M48
;DRILL file {KiCad 4.0.7} date 03/25/18 23:56:29
;FORMAT={-:-/ absolute / metric / decimal}
FMAT,2
METRIC,TZ
T1C0.400
T2C0.990
T3C1.000
T4C1.016
T5C1.050
T6C1.100
T7C1.300
T8C3.048
%
G90
G05
M71
T1
X119.507Y-82.423
X126.111Y-113.411
X135.001Y-102.489
X152.527Y-105.283
X153.162Y-99.314
X153.543Y-90.17
X153.543Y-94.615
X156.718Y-85.217
X159.258Y-85.217
X161.798Y-85.217
X171.831Y-99.314
T2
X106.426Y-98.044
X106.426Y-102.544
T3
X111.125Y-76.2
X111.125Y-78.7
X111.125Y-81.2
X111.125Y-83.7
X132.16Y-109.855
X134.66Y-109.855
X137.16Y-109.855
X143.59Y-109.855
X146.09Y-109.855
X148.59Y-109.855
X156.29Y-109.855
X158.79Y-109.855
X161.29Y-109.855
X165.22Y-80.01
X167.005Y-89.789
X167.005Y-92.329
X167.005Y-94.869
X167.005Y-97.409
X167.72Y-80.01
X167.72Y-109.855
X169.545Y-89.789
X169.545Y-92.329
X169.545Y-94.869
X169.545Y-97.409
X170.22Y-80.01
X170.22Y-109.855
X172.72Y-80.01
X172.72Y-109.855
X181.61Y-80.01
X181.61Y-82.51
X181.61Y-85.01
X181.61Y-87.51
X181.61Y-100.33
X181.61Y-102.83
X181.61Y-105.33
X181.61Y-107.83
X181.61Y-110.33
X181.61Y-112.83
X190.5Y-80.01
X190.5Y-82.51
X190.5Y-85.01
X190.5Y-87.51
X190.5Y-90.01
X190.5Y-92.51
X190.5Y-95.01
X190.5Y-97.51
X190.5Y-100.01
X190.5Y-102.51
T4
X122.174Y-70.866
X124.714Y-70.866
X127.254Y-70.866
X129.794Y-70.866
X131.318Y-119.126
X132.334Y-70.866
X133.858Y-119.126
X134.874Y-70.866
X136.398Y-119.126
X137.414Y-70.866
X138.938Y-119.126
X139.954Y-70.866
X141.478Y-119.126
X142.494Y-70.866
X144.018Y-119.126
X145.034Y-70.866
X146.558Y-119.126
X149.098Y-70.866
X149.098Y-119.126
X151.638Y-70.866
X154.178Y-70.866
X154.178Y-119.126
X156.718Y-70.866
X156.718Y-119.126
X159.258Y-70.866
X159.258Y-119.126
X161.798Y-70.866
X161.798Y-119.126
X164.338Y-70.866
X164.338Y-119.126
X166.878Y-70.866
X166.878Y-119.126
X169.418Y-119.126
X171.958Y-70.866
X171.958Y-119.126
X174.498Y-70.866
X177.038Y-70.866
X177.038Y-119.126
X179.578Y-70.866
X179.578Y-119.126
X182.118Y-70.866
X182.118Y-119.126
X184.658Y-70.866
X184.658Y-119.126
X187.198Y-70.866
X187.198Y-119.126
X189.738Y-70.866
X189.738Y-119.126
X192.278Y-119.126
X194.818Y-119.126
X197.358Y-70.866
X197.358Y-73.406
X197.358Y-75.946
X197.358Y-78.486
X197.358Y-81.026
X197.358Y-83.566
X197.358Y-86.106
X197.358Y-88.646
X197.358Y-91.186
X197.358Y-93.726
X197.358Y-96.266
X197.358Y-98.806
X197.358Y-101.346
X197.358Y-103.886
X197.358Y-106.426
X197.358Y-108.966
X197.358Y-111.506
X197.358Y-114.046
X199.898Y-70.866
X199.898Y-73.406
X199.898Y-75.946
X199.898Y-78.486
X199.898Y-81.026
X199.898Y-83.566
X199.898Y-86.106
X199.898Y-88.646
X199.898Y-91.186
X199.898Y-93.726
X199.898Y-96.266
X199.898Y-98.806
X199.898Y-101.346
X199.898Y-103.886
X199.898Y-106.426
X199.898Y-108.966
X199.898Y-111.506
X199.898Y-114.046
T5
X120.69Y-109.855
X123.19Y-109.855
T6
X107.895Y-109.855
X107.895Y-116.355
X112.395Y-109.855
X112.395Y-116.355
X136.525Y-78.59
X136.525Y-85.09
X136.525Y-92.56
X136.525Y-99.06
X141.025Y-78.59
X141.025Y-85.09
X141.025Y-92.56
X141.025Y-99.06
T7
X108.916Y-96.794
X108.916Y-103.804
T8
X117.348Y-119.126
X118.618Y-70.866
X193.548Y-70.866
X199.898Y-119.126
T0
M30
