G04 #@! TF.FileFunction,Copper,L1,Top,Signal*
%FSLAX46Y46*%
G04 Gerber Fmt 4.6, Leading zero omitted, Abs format (unit mm)*
G04 Created by KiCad (PCBNEW 4.0.7) date 03/25/18 23:56:26*
%MOMM*%
%LPD*%
G01*
G04 APERTURE LIST*
%ADD10C,0.100000*%
%ADD11C,1.727200*%
%ADD12O,1.727200X1.727200*%
%ADD13O,1.727200X2.032000*%
%ADD14C,4.064000*%
%ADD15C,2.100000*%
%ADD16C,1.750000*%
%ADD17R,1.700000X2.000000*%
%ADD18C,2.000000*%
%ADD19R,1.750000X1.750000*%
%ADD20R,1.700000X1.700000*%
%ADD21O,1.700000X1.700000*%
%ADD22R,2.000000X1.700000*%
%ADD23C,0.600000*%
%ADD24C,0.400000*%
%ADD25C,0.254000*%
G04 APERTURE END LIST*
D10*
D11*
X197358000Y-114046000D03*
D12*
X199898000Y-114046000D03*
X197358000Y-111506000D03*
X199898000Y-111506000D03*
X197358000Y-108966000D03*
X199898000Y-108966000D03*
X197358000Y-106426000D03*
X199898000Y-106426000D03*
X197358000Y-103886000D03*
X199898000Y-103886000D03*
X197358000Y-101346000D03*
X199898000Y-101346000D03*
X197358000Y-98806000D03*
X199898000Y-98806000D03*
X197358000Y-96266000D03*
X199898000Y-96266000D03*
X197358000Y-93726000D03*
X199898000Y-93726000D03*
X197358000Y-91186000D03*
X199898000Y-91186000D03*
X197358000Y-88646000D03*
X199898000Y-88646000D03*
X197358000Y-86106000D03*
X199898000Y-86106000D03*
X197358000Y-83566000D03*
X199898000Y-83566000D03*
X197358000Y-81026000D03*
X199898000Y-81026000D03*
X197358000Y-78486000D03*
X199898000Y-78486000D03*
X197358000Y-75946000D03*
X199898000Y-75946000D03*
X197358000Y-73406000D03*
X199898000Y-73406000D03*
X197358000Y-70866000D03*
X199898000Y-70866000D03*
D13*
X131318000Y-119126000D03*
X133858000Y-119126000D03*
X136398000Y-119126000D03*
X138938000Y-119126000D03*
X141478000Y-119126000D03*
X144018000Y-119126000D03*
X146558000Y-119126000D03*
X149098000Y-119126000D03*
X154178000Y-119126000D03*
X156718000Y-119126000D03*
X159258000Y-119126000D03*
X161798000Y-119126000D03*
X164338000Y-119126000D03*
X166878000Y-119126000D03*
X169418000Y-119126000D03*
X171958000Y-119126000D03*
X177038000Y-119126000D03*
X179578000Y-119126000D03*
X182118000Y-119126000D03*
X184658000Y-119126000D03*
X187198000Y-119126000D03*
X189738000Y-119126000D03*
X192278000Y-119126000D03*
X194818000Y-119126000D03*
X122174000Y-70866000D03*
X124714000Y-70866000D03*
X127254000Y-70866000D03*
X129794000Y-70866000D03*
X132334000Y-70866000D03*
X134874000Y-70866000D03*
X137414000Y-70866000D03*
X139954000Y-70866000D03*
X142494000Y-70866000D03*
X145034000Y-70866000D03*
X149098000Y-70866000D03*
X151638000Y-70866000D03*
X154178000Y-70866000D03*
X156718000Y-70866000D03*
X159258000Y-70866000D03*
X161798000Y-70866000D03*
X164338000Y-70866000D03*
X166878000Y-70866000D03*
X171958000Y-70866000D03*
X174498000Y-70866000D03*
X177038000Y-70866000D03*
X179578000Y-70866000D03*
X182118000Y-70866000D03*
X184658000Y-70866000D03*
X187198000Y-70866000D03*
X189738000Y-70866000D03*
D14*
X117348000Y-119126000D03*
X199898000Y-119126000D03*
X118618000Y-70866000D03*
X193548000Y-70866000D03*
D15*
X108916000Y-103804000D03*
D16*
X106426000Y-102544000D03*
X106426000Y-98044000D03*
D15*
X108916000Y-96794000D03*
D17*
X130175000Y-87725000D03*
X130175000Y-83725000D03*
X125095000Y-87725000D03*
X125095000Y-83725000D03*
X130175000Y-97250000D03*
X130175000Y-93250000D03*
X125095000Y-97250000D03*
X125095000Y-93250000D03*
D18*
X141025000Y-99060000D03*
X136525000Y-99060000D03*
X141025000Y-92560000D03*
X136525000Y-92560000D03*
X141025000Y-85090000D03*
X136525000Y-85090000D03*
X141025000Y-78590000D03*
X136525000Y-78590000D03*
D19*
X190500000Y-80010000D03*
D16*
X190500000Y-82510000D03*
X190500000Y-85010000D03*
X190500000Y-87510000D03*
X190500000Y-90010000D03*
X190500000Y-92510000D03*
X190500000Y-95010000D03*
X190500000Y-97510000D03*
X190500000Y-100010000D03*
X190500000Y-102510000D03*
D19*
X137160000Y-109855000D03*
D16*
X134660000Y-109855000D03*
X132160000Y-109855000D03*
D19*
X148590000Y-109855000D03*
D16*
X146090000Y-109855000D03*
X143590000Y-109855000D03*
D19*
X181610000Y-100330000D03*
D16*
X181610000Y-102830000D03*
X181610000Y-105330000D03*
X181610000Y-107830000D03*
X181610000Y-110330000D03*
X181610000Y-112830000D03*
D19*
X161290000Y-109855000D03*
D16*
X158790000Y-109855000D03*
X156290000Y-109855000D03*
D19*
X172720000Y-109855000D03*
D16*
X170220000Y-109855000D03*
X167720000Y-109855000D03*
D19*
X181610000Y-80010000D03*
D16*
X181610000Y-82510000D03*
X181610000Y-85010000D03*
X181610000Y-87510000D03*
D19*
X172720000Y-80010000D03*
D16*
X170220000Y-80010000D03*
X167720000Y-80010000D03*
X165220000Y-80010000D03*
D18*
X107895000Y-109855000D03*
X112395000Y-109855000D03*
X107895000Y-116355000D03*
X112395000Y-116355000D03*
D20*
X167005000Y-89789000D03*
D21*
X169545000Y-89789000D03*
X167005000Y-92329000D03*
X169545000Y-92329000D03*
X167005000Y-94869000D03*
X169545000Y-94869000D03*
X167005000Y-97409000D03*
X169545000Y-97409000D03*
D22*
X153575000Y-99060000D03*
X157575000Y-99060000D03*
X153575000Y-94615000D03*
X157575000Y-94615000D03*
X153575000Y-90170000D03*
X157575000Y-90170000D03*
X125635000Y-78105000D03*
X129635000Y-78105000D03*
D19*
X123190000Y-109855000D03*
D16*
X120690000Y-109855000D03*
D19*
X111125000Y-76200000D03*
D16*
X111125000Y-78700000D03*
X111125000Y-81200000D03*
X111125000Y-83700000D03*
D23*
X153162000Y-99314000D03*
X156718000Y-85217000D03*
X159258000Y-85217000D03*
X153543000Y-94615000D03*
X161798000Y-85217000D03*
X153543000Y-90170000D03*
X135001000Y-102489000D03*
X152527000Y-105283000D03*
X171831000Y-99314000D03*
X126111000Y-113411000D03*
X119507000Y-82423000D03*
D24*
X197358000Y-70866000D02*
X197358000Y-71120000D01*
X197358000Y-71120000D02*
X190500000Y-77978000D01*
X190500000Y-77978000D02*
X190500000Y-80010000D01*
X122174000Y-70866000D02*
X122174000Y-72517000D01*
X113491000Y-81200000D02*
X111125000Y-81200000D01*
X122174000Y-72517000D02*
X113491000Y-81200000D01*
X124714000Y-70866000D02*
X124714000Y-72517000D01*
X113531000Y-83700000D02*
X111125000Y-83700000D01*
X124714000Y-72517000D02*
X113531000Y-83700000D01*
X129635000Y-78105000D02*
X129635000Y-77121000D01*
X134874000Y-71882000D02*
X134874000Y-70866000D01*
X129635000Y-77121000D02*
X134874000Y-71882000D01*
X125095000Y-83725000D02*
X125095000Y-82550000D01*
X137414000Y-72009000D02*
X137414000Y-70866000D01*
X132334000Y-77089000D02*
X137414000Y-72009000D01*
X132334000Y-79883000D02*
X132334000Y-77089000D01*
X131064000Y-81153000D02*
X132334000Y-79883000D01*
X126492000Y-81153000D02*
X131064000Y-81153000D01*
X125095000Y-82550000D02*
X126492000Y-81153000D01*
X130175000Y-83725000D02*
X131032000Y-83725000D01*
X139954000Y-72136000D02*
X139954000Y-70866000D01*
X136398000Y-75692000D02*
X139954000Y-72136000D01*
X136398000Y-75692000D02*
X136398000Y-75692000D01*
X134112000Y-77978000D02*
X136398000Y-75692000D01*
X134112000Y-80645000D02*
X134112000Y-77978000D01*
X131032000Y-83725000D02*
X134112000Y-80645000D01*
X145034000Y-70866000D02*
X145034000Y-72644000D01*
X141025000Y-89861000D02*
X141025000Y-92560000D01*
X143637000Y-87249000D02*
X141025000Y-89861000D01*
X143637000Y-74041000D02*
X143637000Y-87249000D01*
X145034000Y-72644000D02*
X143637000Y-74041000D01*
X156718000Y-70866000D02*
X156718000Y-85217000D01*
X153162000Y-99314000D02*
X153575000Y-99060000D01*
X159258000Y-70866000D02*
X159258000Y-85217000D01*
X153543000Y-94615000D02*
X153575000Y-94615000D01*
X161798000Y-70866000D02*
X161798000Y-85217000D01*
X153543000Y-90170000D02*
X153575000Y-90170000D01*
X152527000Y-105283000D02*
X152400000Y-105283000D01*
X149606000Y-102489000D02*
X135001000Y-102489000D01*
X152400000Y-105283000D02*
X149606000Y-102489000D01*
X169545000Y-94869000D02*
X170815000Y-94869000D01*
X138938000Y-116586000D02*
X138938000Y-119126000D01*
X140589000Y-114935000D02*
X138938000Y-116586000D01*
X149987000Y-114935000D02*
X140589000Y-114935000D01*
X152527000Y-112395000D02*
X149987000Y-114935000D01*
X152527000Y-105283000D02*
X152527000Y-112395000D01*
X171831000Y-95885000D02*
X171831000Y-99314000D01*
X170815000Y-94869000D02*
X171831000Y-95885000D01*
X167720000Y-80010000D02*
X167720000Y-77771000D01*
X172339000Y-75565000D02*
X177038000Y-70866000D01*
X169926000Y-75565000D02*
X172339000Y-75565000D01*
X167720000Y-77771000D02*
X169926000Y-75565000D01*
X130175000Y-93250000D02*
X130175000Y-87725000D01*
X125095000Y-93250000D02*
X125095000Y-87725000D01*
X190500000Y-82510000D02*
X192873000Y-82510000D01*
X193929000Y-83566000D02*
X197358000Y-83566000D01*
X192873000Y-82510000D02*
X193929000Y-83566000D01*
X190500000Y-85010000D02*
X192833000Y-85010000D01*
X193929000Y-86106000D02*
X197358000Y-86106000D01*
X192833000Y-85010000D02*
X193929000Y-86106000D01*
X190500000Y-87510000D02*
X192906000Y-87510000D01*
X194042000Y-88646000D02*
X197358000Y-88646000D01*
X192906000Y-87510000D02*
X194042000Y-88646000D01*
X190500000Y-90010000D02*
X192880000Y-90010000D01*
X194056000Y-91186000D02*
X197358000Y-91186000D01*
X192880000Y-90010000D02*
X194056000Y-91186000D01*
X190500000Y-92510000D02*
X192859000Y-92510000D01*
X194075000Y-93726000D02*
X197358000Y-93726000D01*
X192859000Y-92510000D02*
X194075000Y-93726000D01*
X190500000Y-95010000D02*
X192899000Y-95010000D01*
X194155000Y-96266000D02*
X197358000Y-96266000D01*
X192899000Y-95010000D02*
X194155000Y-96266000D01*
X190500000Y-97510000D02*
X192887000Y-97510000D01*
X194183000Y-98806000D02*
X197358000Y-98806000D01*
X192887000Y-97510000D02*
X194183000Y-98806000D01*
X190500000Y-100010000D02*
X192847000Y-100010000D01*
X194183000Y-101346000D02*
X197358000Y-101346000D01*
X192847000Y-100010000D02*
X194183000Y-101346000D01*
X181610000Y-82510000D02*
X183936000Y-82510000D01*
X184658000Y-76200000D02*
X184658000Y-70866000D01*
X185547000Y-77089000D02*
X184658000Y-76200000D01*
X185547000Y-80899000D02*
X185547000Y-77089000D01*
X183936000Y-82510000D02*
X185547000Y-80899000D01*
X181610000Y-85010000D02*
X178228000Y-85010000D01*
X182118000Y-73406000D02*
X182118000Y-70866000D01*
X180848000Y-74676000D02*
X182118000Y-73406000D01*
X178816000Y-74676000D02*
X180848000Y-74676000D01*
X176784000Y-76708000D02*
X178816000Y-74676000D01*
X176784000Y-83566000D02*
X176784000Y-76708000D01*
X178228000Y-85010000D02*
X176784000Y-83566000D01*
X170220000Y-80010000D02*
X170220000Y-78446000D01*
X172847000Y-77597000D02*
X179578000Y-70866000D01*
X171069000Y-77597000D02*
X172847000Y-77597000D01*
X170220000Y-78446000D02*
X171069000Y-77597000D01*
X167005000Y-92329000D02*
X165735000Y-92329000D01*
X163449000Y-94615000D02*
X157575000Y-94615000D01*
X165735000Y-92329000D02*
X163449000Y-94615000D01*
X167005000Y-94869000D02*
X165608000Y-94869000D01*
X161417000Y-99060000D02*
X157575000Y-99060000D01*
X165608000Y-94869000D02*
X161417000Y-99060000D01*
X107895000Y-109855000D02*
X107895000Y-116355000D01*
X136398000Y-119126000D02*
X136398000Y-117475000D01*
X135509000Y-116586000D02*
X136398000Y-117475000D01*
X129286000Y-116586000D02*
X135509000Y-116586000D01*
X129286000Y-116586000D02*
X126111000Y-113411000D01*
X125635000Y-78105000D02*
X123698000Y-78105000D01*
X119507000Y-82296000D02*
X119507000Y-82423000D01*
X123698000Y-78105000D02*
X119507000Y-82296000D01*
X169545000Y-92329000D02*
X170815000Y-92329000D01*
X161671000Y-90170000D02*
X157575000Y-90170000D01*
X165608000Y-86233000D02*
X161671000Y-90170000D01*
X170434000Y-86233000D02*
X165608000Y-86233000D01*
X172212000Y-88011000D02*
X170434000Y-86233000D01*
X172212000Y-90932000D02*
X172212000Y-88011000D01*
X170815000Y-92329000D02*
X172212000Y-90932000D01*
D25*
G36*
X115951464Y-70333173D02*
X115950538Y-71394172D01*
X116355709Y-72374761D01*
X117105293Y-73125655D01*
X118085173Y-73532536D01*
X119146172Y-73533462D01*
X120126761Y-73128291D01*
X120877655Y-72378707D01*
X121037071Y-71994789D01*
X121114330Y-72110415D01*
X121285407Y-72224725D01*
X113145132Y-80365000D01*
X112413807Y-80365000D01*
X112405862Y-80345771D01*
X111981463Y-79920630D01*
X111958531Y-79911108D01*
X112007455Y-79762060D01*
X111125000Y-78879605D01*
X110242545Y-79762060D01*
X110291318Y-79910648D01*
X110270771Y-79919138D01*
X109845630Y-80343537D01*
X109615262Y-80898325D01*
X109614738Y-81499040D01*
X109844138Y-82054229D01*
X110239536Y-82450318D01*
X109845630Y-82843537D01*
X109615262Y-83398325D01*
X109614738Y-83999040D01*
X109844138Y-84554229D01*
X110268537Y-84979370D01*
X110823325Y-85209738D01*
X111424040Y-85210262D01*
X111979229Y-84980862D01*
X112404370Y-84556463D01*
X112413282Y-84535000D01*
X113531000Y-84535000D01*
X113850541Y-84471439D01*
X114121434Y-84290434D01*
X115803701Y-82608167D01*
X118571838Y-82608167D01*
X118713883Y-82951943D01*
X118976673Y-83215192D01*
X119320201Y-83357838D01*
X119692167Y-83358162D01*
X120035943Y-83216117D01*
X120299192Y-82953327D01*
X120441838Y-82609799D01*
X120441897Y-82541971D01*
X123994102Y-78989766D01*
X124031838Y-79190317D01*
X124170910Y-79406441D01*
X124383110Y-79551431D01*
X124635000Y-79602440D01*
X126635000Y-79602440D01*
X126870317Y-79558162D01*
X127086441Y-79419090D01*
X127231431Y-79206890D01*
X127282440Y-78955000D01*
X127282440Y-77255000D01*
X127238162Y-77019683D01*
X127099090Y-76803559D01*
X126886890Y-76658569D01*
X126635000Y-76607560D01*
X124635000Y-76607560D01*
X124399683Y-76651838D01*
X124183559Y-76790910D01*
X124038569Y-77003110D01*
X123987560Y-77255000D01*
X123987560Y-77270000D01*
X123698000Y-77270000D01*
X123378459Y-77333561D01*
X123202011Y-77451460D01*
X123107566Y-77514566D01*
X119002242Y-81619890D01*
X118978057Y-81629883D01*
X118714808Y-81892673D01*
X118572162Y-82236201D01*
X118571838Y-82608167D01*
X115803701Y-82608167D01*
X125304434Y-73107434D01*
X125438066Y-72907439D01*
X125485439Y-72836541D01*
X125549000Y-72517000D01*
X125549000Y-72260535D01*
X125773670Y-72110415D01*
X125984000Y-71795634D01*
X126194330Y-72110415D01*
X126680511Y-72435271D01*
X127254000Y-72549345D01*
X127827489Y-72435271D01*
X128313670Y-72110415D01*
X128520461Y-71800931D01*
X128891964Y-72216732D01*
X129419209Y-72470709D01*
X129434974Y-72473358D01*
X129667000Y-72352217D01*
X129667000Y-70993000D01*
X129647000Y-70993000D01*
X129647000Y-70739000D01*
X129667000Y-70739000D01*
X129667000Y-70719000D01*
X129921000Y-70719000D01*
X129921000Y-70739000D01*
X129941000Y-70739000D01*
X129941000Y-70993000D01*
X129921000Y-70993000D01*
X129921000Y-72352217D01*
X130153026Y-72473358D01*
X130168791Y-72470709D01*
X130696036Y-72216732D01*
X131067539Y-71800931D01*
X131274330Y-72110415D01*
X131760511Y-72435271D01*
X132334000Y-72549345D01*
X132907489Y-72435271D01*
X133393670Y-72110415D01*
X133604000Y-71795634D01*
X133674295Y-71900837D01*
X129044566Y-76530566D01*
X128993120Y-76607560D01*
X128635000Y-76607560D01*
X128399683Y-76651838D01*
X128183559Y-76790910D01*
X128038569Y-77003110D01*
X127987560Y-77255000D01*
X127987560Y-78955000D01*
X128031838Y-79190317D01*
X128170910Y-79406441D01*
X128383110Y-79551431D01*
X128635000Y-79602440D01*
X130635000Y-79602440D01*
X130870317Y-79558162D01*
X131086441Y-79419090D01*
X131231431Y-79206890D01*
X131282440Y-78955000D01*
X131282440Y-77255000D01*
X131238162Y-77019683D01*
X131112488Y-76824380D01*
X135464434Y-72472434D01*
X135475722Y-72455540D01*
X135522961Y-72384842D01*
X135933670Y-72110415D01*
X136144000Y-71795634D01*
X136265164Y-71976968D01*
X131743566Y-76498566D01*
X131562561Y-76769459D01*
X131499000Y-77089000D01*
X131499000Y-79537132D01*
X130718132Y-80318000D01*
X126492000Y-80318000D01*
X126172459Y-80381561D01*
X125959353Y-80523954D01*
X125901566Y-80562566D01*
X124504566Y-81959566D01*
X124425725Y-82077560D01*
X124245000Y-82077560D01*
X124009683Y-82121838D01*
X123793559Y-82260910D01*
X123648569Y-82473110D01*
X123597560Y-82725000D01*
X123597560Y-84725000D01*
X123641838Y-84960317D01*
X123780910Y-85176441D01*
X123993110Y-85321431D01*
X124245000Y-85372440D01*
X125945000Y-85372440D01*
X126180317Y-85328162D01*
X126396441Y-85189090D01*
X126541431Y-84976890D01*
X126592440Y-84725000D01*
X126592440Y-82725000D01*
X126548162Y-82489683D01*
X126465165Y-82360703D01*
X126837868Y-81988000D01*
X131064000Y-81988000D01*
X131383541Y-81924439D01*
X131654434Y-81743434D01*
X132924434Y-80473434D01*
X132958031Y-80423152D01*
X133105439Y-80202541D01*
X133169000Y-79883000D01*
X133169000Y-77434868D01*
X138004434Y-72599434D01*
X138037902Y-72549345D01*
X138185439Y-72328541D01*
X138191297Y-72299091D01*
X138473670Y-72110415D01*
X138684000Y-71795634D01*
X138856033Y-72053099D01*
X133521566Y-77387566D01*
X133340561Y-77658459D01*
X133277000Y-77978000D01*
X133277000Y-80299132D01*
X131378284Y-82197848D01*
X131276890Y-82128569D01*
X131025000Y-82077560D01*
X129325000Y-82077560D01*
X129089683Y-82121838D01*
X128873559Y-82260910D01*
X128728569Y-82473110D01*
X128677560Y-82725000D01*
X128677560Y-84725000D01*
X128721838Y-84960317D01*
X128860910Y-85176441D01*
X129073110Y-85321431D01*
X129325000Y-85372440D01*
X131025000Y-85372440D01*
X131260317Y-85328162D01*
X131476441Y-85189090D01*
X131621431Y-84976890D01*
X131652096Y-84825461D01*
X134879092Y-84825461D01*
X134903144Y-85475460D01*
X135105613Y-85964264D01*
X135372468Y-86062927D01*
X136345395Y-85090000D01*
X136704605Y-85090000D01*
X137677532Y-86062927D01*
X137944387Y-85964264D01*
X138148893Y-85413795D01*
X139389716Y-85413795D01*
X139638106Y-86014943D01*
X140097637Y-86475278D01*
X140698352Y-86724716D01*
X141348795Y-86725284D01*
X141949943Y-86476894D01*
X142410278Y-86017363D01*
X142659716Y-85416648D01*
X142660284Y-84766205D01*
X142411894Y-84165057D01*
X141952363Y-83704722D01*
X141351648Y-83455284D01*
X140701205Y-83454716D01*
X140100057Y-83703106D01*
X139639722Y-84162637D01*
X139390284Y-84763352D01*
X139389716Y-85413795D01*
X138148893Y-85413795D01*
X138170908Y-85354539D01*
X138146856Y-84704540D01*
X137944387Y-84215736D01*
X137677532Y-84117073D01*
X136704605Y-85090000D01*
X136345395Y-85090000D01*
X135372468Y-84117073D01*
X135105613Y-84215736D01*
X134879092Y-84825461D01*
X131652096Y-84825461D01*
X131672440Y-84725000D01*
X131672440Y-84265428D01*
X132000400Y-83937468D01*
X135552073Y-83937468D01*
X136525000Y-84910395D01*
X137497927Y-83937468D01*
X137399264Y-83670613D01*
X136789539Y-83444092D01*
X136139540Y-83468144D01*
X135650736Y-83670613D01*
X135552073Y-83937468D01*
X132000400Y-83937468D01*
X134702434Y-81235434D01*
X134883440Y-80964540D01*
X134947000Y-80645000D01*
X134947000Y-79742532D01*
X135552073Y-79742532D01*
X135650736Y-80009387D01*
X136260461Y-80235908D01*
X136910460Y-80211856D01*
X137399264Y-80009387D01*
X137497927Y-79742532D01*
X136525000Y-78769605D01*
X135552073Y-79742532D01*
X134947000Y-79742532D01*
X134947000Y-79081338D01*
X135105613Y-79464264D01*
X135372468Y-79562927D01*
X136345395Y-78590000D01*
X136704605Y-78590000D01*
X137677532Y-79562927D01*
X137944387Y-79464264D01*
X138148893Y-78913795D01*
X139389716Y-78913795D01*
X139638106Y-79514943D01*
X140097637Y-79975278D01*
X140698352Y-80224716D01*
X141348795Y-80225284D01*
X141949943Y-79976894D01*
X142410278Y-79517363D01*
X142659716Y-78916648D01*
X142660284Y-78266205D01*
X142411894Y-77665057D01*
X141952363Y-77204722D01*
X141351648Y-76955284D01*
X140701205Y-76954716D01*
X140100057Y-77203106D01*
X139639722Y-77662637D01*
X139390284Y-78263352D01*
X139389716Y-78913795D01*
X138148893Y-78913795D01*
X138170908Y-78854539D01*
X138146856Y-78204540D01*
X137944387Y-77715736D01*
X137677532Y-77617073D01*
X136704605Y-78590000D01*
X136345395Y-78590000D01*
X136331253Y-78575858D01*
X136510858Y-78396253D01*
X136525000Y-78410395D01*
X137497927Y-77437468D01*
X137399264Y-77170613D01*
X136789539Y-76944092D01*
X136308994Y-76961874D01*
X140544434Y-72726434D01*
X140593208Y-72653439D01*
X140725439Y-72455541D01*
X140760431Y-72279624D01*
X141013670Y-72110415D01*
X141224000Y-71795634D01*
X141434330Y-72110415D01*
X141920511Y-72435271D01*
X142494000Y-72549345D01*
X143067489Y-72435271D01*
X143553670Y-72110415D01*
X143764000Y-71795634D01*
X143974330Y-72110415D01*
X144199000Y-72260535D01*
X144199000Y-72298132D01*
X143046566Y-73450566D01*
X142865561Y-73721459D01*
X142802000Y-74041000D01*
X142802000Y-86903132D01*
X140434566Y-89270566D01*
X140253561Y-89541459D01*
X140190000Y-89861000D01*
X140190000Y-91135942D01*
X140100057Y-91173106D01*
X139639722Y-91632637D01*
X139390284Y-92233352D01*
X139389716Y-92883795D01*
X139638106Y-93484943D01*
X140097637Y-93945278D01*
X140698352Y-94194716D01*
X141348795Y-94195284D01*
X141949943Y-93946894D01*
X142132155Y-93765000D01*
X151927560Y-93765000D01*
X151927560Y-95465000D01*
X151971838Y-95700317D01*
X152110910Y-95916441D01*
X152323110Y-96061431D01*
X152575000Y-96112440D01*
X154575000Y-96112440D01*
X154810317Y-96068162D01*
X155026441Y-95929090D01*
X155171431Y-95716890D01*
X155222440Y-95465000D01*
X155222440Y-93765000D01*
X155178162Y-93529683D01*
X155039090Y-93313559D01*
X154826890Y-93168569D01*
X154575000Y-93117560D01*
X152575000Y-93117560D01*
X152339683Y-93161838D01*
X152123559Y-93300910D01*
X151978569Y-93513110D01*
X151927560Y-93765000D01*
X142132155Y-93765000D01*
X142410278Y-93487363D01*
X142659716Y-92886648D01*
X142660284Y-92236205D01*
X142411894Y-91635057D01*
X141952363Y-91174722D01*
X141860000Y-91136370D01*
X141860000Y-90206868D01*
X142746868Y-89320000D01*
X151927560Y-89320000D01*
X151927560Y-91020000D01*
X151971838Y-91255317D01*
X152110910Y-91471441D01*
X152323110Y-91616431D01*
X152575000Y-91667440D01*
X154575000Y-91667440D01*
X154810317Y-91623162D01*
X155026441Y-91484090D01*
X155171431Y-91271890D01*
X155222440Y-91020000D01*
X155222440Y-89320000D01*
X155927560Y-89320000D01*
X155927560Y-91020000D01*
X155971838Y-91255317D01*
X156110910Y-91471441D01*
X156323110Y-91616431D01*
X156575000Y-91667440D01*
X158575000Y-91667440D01*
X158810317Y-91623162D01*
X159026441Y-91484090D01*
X159171431Y-91271890D01*
X159222440Y-91020000D01*
X159222440Y-91005000D01*
X161671000Y-91005000D01*
X161990541Y-90941439D01*
X162261434Y-90760434D01*
X165953868Y-87068000D01*
X170088132Y-87068000D01*
X171377000Y-88356868D01*
X171377000Y-90586132D01*
X170648195Y-91314937D01*
X170624147Y-91278946D01*
X170294974Y-91059000D01*
X170624147Y-90839054D01*
X170946054Y-90357285D01*
X171059093Y-89789000D01*
X170946054Y-89220715D01*
X170624147Y-88738946D01*
X170142378Y-88417039D01*
X169574093Y-88304000D01*
X169515907Y-88304000D01*
X168947622Y-88417039D01*
X168465853Y-88738946D01*
X168465029Y-88740179D01*
X168458162Y-88703683D01*
X168319090Y-88487559D01*
X168106890Y-88342569D01*
X167855000Y-88291560D01*
X166155000Y-88291560D01*
X165919683Y-88335838D01*
X165703559Y-88474910D01*
X165558569Y-88687110D01*
X165507560Y-88939000D01*
X165507560Y-90639000D01*
X165551838Y-90874317D01*
X165690910Y-91090441D01*
X165903110Y-91235431D01*
X165970541Y-91249086D01*
X165925853Y-91278946D01*
X165782159Y-91494000D01*
X165735000Y-91494000D01*
X165415459Y-91557561D01*
X165223632Y-91685736D01*
X165144566Y-91738566D01*
X163103132Y-93780000D01*
X159222440Y-93780000D01*
X159222440Y-93765000D01*
X159178162Y-93529683D01*
X159039090Y-93313559D01*
X158826890Y-93168569D01*
X158575000Y-93117560D01*
X156575000Y-93117560D01*
X156339683Y-93161838D01*
X156123559Y-93300910D01*
X155978569Y-93513110D01*
X155927560Y-93765000D01*
X155927560Y-95465000D01*
X155971838Y-95700317D01*
X156110910Y-95916441D01*
X156323110Y-96061431D01*
X156575000Y-96112440D01*
X158575000Y-96112440D01*
X158810317Y-96068162D01*
X159026441Y-95929090D01*
X159171431Y-95716890D01*
X159222440Y-95465000D01*
X159222440Y-95450000D01*
X163449000Y-95450000D01*
X163768541Y-95386439D01*
X164039434Y-95205434D01*
X165901805Y-93343063D01*
X165925853Y-93379054D01*
X166255026Y-93599000D01*
X165925853Y-93818946D01*
X165782159Y-94034000D01*
X165608000Y-94034000D01*
X165288459Y-94097561D01*
X165077438Y-94238561D01*
X165017566Y-94278566D01*
X161071132Y-98225000D01*
X159222440Y-98225000D01*
X159222440Y-98210000D01*
X159178162Y-97974683D01*
X159039090Y-97758559D01*
X158826890Y-97613569D01*
X158575000Y-97562560D01*
X156575000Y-97562560D01*
X156339683Y-97606838D01*
X156123559Y-97745910D01*
X155978569Y-97958110D01*
X155927560Y-98210000D01*
X155927560Y-99910000D01*
X155971838Y-100145317D01*
X156110910Y-100361441D01*
X156323110Y-100506431D01*
X156575000Y-100557440D01*
X158575000Y-100557440D01*
X158810317Y-100513162D01*
X159026441Y-100374090D01*
X159171431Y-100161890D01*
X159222440Y-99910000D01*
X159222440Y-99895000D01*
X161417000Y-99895000D01*
X161736541Y-99831439D01*
X162007434Y-99650434D01*
X163891978Y-97765890D01*
X165563524Y-97765890D01*
X165733355Y-98175924D01*
X166123642Y-98604183D01*
X166648108Y-98850486D01*
X166878000Y-98729819D01*
X166878000Y-97536000D01*
X165684845Y-97536000D01*
X165563524Y-97765890D01*
X163891978Y-97765890D01*
X165850936Y-95806932D01*
X165925853Y-95919054D01*
X166266553Y-96146702D01*
X166123642Y-96213817D01*
X165733355Y-96642076D01*
X165563524Y-97052110D01*
X165684845Y-97282000D01*
X166878000Y-97282000D01*
X166878000Y-97262000D01*
X167132000Y-97262000D01*
X167132000Y-97282000D01*
X167152000Y-97282000D01*
X167152000Y-97536000D01*
X167132000Y-97536000D01*
X167132000Y-98729819D01*
X167361892Y-98850486D01*
X167886358Y-98604183D01*
X168276645Y-98175924D01*
X168276655Y-98175899D01*
X168465853Y-98459054D01*
X168947622Y-98780961D01*
X169515907Y-98894000D01*
X169574093Y-98894000D01*
X170142378Y-98780961D01*
X170624147Y-98459054D01*
X170946054Y-97977285D01*
X170996000Y-97726190D01*
X170996000Y-98886766D01*
X170896162Y-99127201D01*
X170895838Y-99499167D01*
X171037883Y-99842943D01*
X171300673Y-100106192D01*
X171644201Y-100248838D01*
X172016167Y-100249162D01*
X172359943Y-100107117D01*
X172623192Y-99844327D01*
X172765838Y-99500799D01*
X172765877Y-99455000D01*
X180087560Y-99455000D01*
X180087560Y-101205000D01*
X180131838Y-101440317D01*
X180270910Y-101656441D01*
X180483110Y-101801431D01*
X180499676Y-101804786D01*
X180330630Y-101973537D01*
X180100262Y-102528325D01*
X180099738Y-103129040D01*
X180329138Y-103684229D01*
X180724536Y-104080318D01*
X180330630Y-104473537D01*
X180100262Y-105028325D01*
X180099738Y-105629040D01*
X180329138Y-106184229D01*
X180724536Y-106580318D01*
X180330630Y-106973537D01*
X180100262Y-107528325D01*
X180099738Y-108129040D01*
X180329138Y-108684229D01*
X180724536Y-109080318D01*
X180330630Y-109473537D01*
X180100262Y-110028325D01*
X180099738Y-110629040D01*
X180329138Y-111184229D01*
X180753537Y-111609370D01*
X180776469Y-111618892D01*
X180727545Y-111767940D01*
X181610000Y-112650395D01*
X182492455Y-111767940D01*
X182443682Y-111619352D01*
X182464229Y-111610862D01*
X182889370Y-111186463D01*
X183119738Y-110631675D01*
X183120262Y-110030960D01*
X182890862Y-109475771D01*
X182495464Y-109079682D01*
X182889370Y-108686463D01*
X183119738Y-108131675D01*
X183120262Y-107530960D01*
X182890862Y-106975771D01*
X182495464Y-106579682D01*
X182889370Y-106186463D01*
X183119738Y-105631675D01*
X183120262Y-105030960D01*
X182890862Y-104475771D01*
X182495464Y-104079682D01*
X182889370Y-103686463D01*
X182936874Y-103572060D01*
X189617545Y-103572060D01*
X189700884Y-103825953D01*
X190265306Y-104031590D01*
X190865458Y-104005579D01*
X191299116Y-103825953D01*
X191382455Y-103572060D01*
X190500000Y-102689605D01*
X189617545Y-103572060D01*
X182936874Y-103572060D01*
X183119738Y-103131675D01*
X183120262Y-102530960D01*
X183014628Y-102275306D01*
X188978410Y-102275306D01*
X189004421Y-102875458D01*
X189184047Y-103309116D01*
X189437940Y-103392455D01*
X190320395Y-102510000D01*
X190679605Y-102510000D01*
X191562060Y-103392455D01*
X191815953Y-103309116D01*
X192021590Y-102744694D01*
X191995579Y-102144542D01*
X191815953Y-101710884D01*
X191562060Y-101627545D01*
X190679605Y-102510000D01*
X190320395Y-102510000D01*
X189437940Y-101627545D01*
X189184047Y-101710884D01*
X188978410Y-102275306D01*
X183014628Y-102275306D01*
X182890862Y-101975771D01*
X182722283Y-101806897D01*
X182936441Y-101669090D01*
X183081431Y-101456890D01*
X183132440Y-101205000D01*
X183132440Y-99455000D01*
X183088162Y-99219683D01*
X182949090Y-99003559D01*
X182736890Y-98858569D01*
X182485000Y-98807560D01*
X180735000Y-98807560D01*
X180499683Y-98851838D01*
X180283559Y-98990910D01*
X180138569Y-99203110D01*
X180087560Y-99455000D01*
X172765877Y-99455000D01*
X172766162Y-99128833D01*
X172666000Y-98886422D01*
X172666000Y-95885000D01*
X172602439Y-95565459D01*
X172421434Y-95294566D01*
X171405434Y-94278566D01*
X171345562Y-94238561D01*
X171134541Y-94097561D01*
X170815000Y-94034000D01*
X170767841Y-94034000D01*
X170624147Y-93818946D01*
X170294974Y-93599000D01*
X170624147Y-93379054D01*
X170767841Y-93164000D01*
X170815000Y-93164000D01*
X171134541Y-93100439D01*
X171405434Y-92919434D01*
X172802434Y-91522434D01*
X172879252Y-91407468D01*
X172983439Y-91251541D01*
X173047000Y-90932000D01*
X173047000Y-88572060D01*
X180727545Y-88572060D01*
X180810884Y-88825953D01*
X181375306Y-89031590D01*
X181975458Y-89005579D01*
X182409116Y-88825953D01*
X182492455Y-88572060D01*
X181610000Y-87689605D01*
X180727545Y-88572060D01*
X173047000Y-88572060D01*
X173047000Y-88011000D01*
X173020039Y-87875458D01*
X172983440Y-87691460D01*
X172802434Y-87420566D01*
X172657174Y-87275306D01*
X180088410Y-87275306D01*
X180114421Y-87875458D01*
X180294047Y-88309116D01*
X180547940Y-88392455D01*
X181430395Y-87510000D01*
X181789605Y-87510000D01*
X182672060Y-88392455D01*
X182925953Y-88309116D01*
X183131590Y-87744694D01*
X183105579Y-87144542D01*
X182925953Y-86710884D01*
X182672060Y-86627545D01*
X181789605Y-87510000D01*
X181430395Y-87510000D01*
X180547940Y-86627545D01*
X180294047Y-86710884D01*
X180088410Y-87275306D01*
X172657174Y-87275306D01*
X171024434Y-85642566D01*
X170865756Y-85536541D01*
X170753541Y-85461561D01*
X170434000Y-85398000D01*
X165608000Y-85398000D01*
X165288460Y-85461560D01*
X165017566Y-85642566D01*
X161325132Y-89335000D01*
X159222440Y-89335000D01*
X159222440Y-89320000D01*
X159178162Y-89084683D01*
X159039090Y-88868559D01*
X158826890Y-88723569D01*
X158575000Y-88672560D01*
X156575000Y-88672560D01*
X156339683Y-88716838D01*
X156123559Y-88855910D01*
X155978569Y-89068110D01*
X155927560Y-89320000D01*
X155222440Y-89320000D01*
X155178162Y-89084683D01*
X155039090Y-88868559D01*
X154826890Y-88723569D01*
X154575000Y-88672560D01*
X152575000Y-88672560D01*
X152339683Y-88716838D01*
X152123559Y-88855910D01*
X151978569Y-89068110D01*
X151927560Y-89320000D01*
X142746868Y-89320000D01*
X144227434Y-87839434D01*
X144326307Y-87691460D01*
X144408439Y-87568541D01*
X144472000Y-87249000D01*
X144472000Y-74386868D01*
X145624434Y-73234434D01*
X145643433Y-73206000D01*
X145805439Y-72963541D01*
X145869000Y-72644000D01*
X145869000Y-72260535D01*
X146093670Y-72110415D01*
X146418526Y-71624234D01*
X146532600Y-71050745D01*
X146532600Y-70681255D01*
X146418526Y-70107766D01*
X146331151Y-69977000D01*
X147800849Y-69977000D01*
X147713474Y-70107766D01*
X147599400Y-70681255D01*
X147599400Y-71050745D01*
X147713474Y-71624234D01*
X148038330Y-72110415D01*
X148524511Y-72435271D01*
X149098000Y-72549345D01*
X149671489Y-72435271D01*
X150157670Y-72110415D01*
X150368000Y-71795634D01*
X150578330Y-72110415D01*
X151064511Y-72435271D01*
X151638000Y-72549345D01*
X152211489Y-72435271D01*
X152697670Y-72110415D01*
X152908000Y-71795634D01*
X153118330Y-72110415D01*
X153604511Y-72435271D01*
X154178000Y-72549345D01*
X154751489Y-72435271D01*
X155237670Y-72110415D01*
X155448000Y-71795634D01*
X155658330Y-72110415D01*
X155883000Y-72260535D01*
X155883000Y-84789766D01*
X155783162Y-85030201D01*
X155782838Y-85402167D01*
X155924883Y-85745943D01*
X156187673Y-86009192D01*
X156531201Y-86151838D01*
X156903167Y-86152162D01*
X157246943Y-86010117D01*
X157510192Y-85747327D01*
X157652838Y-85403799D01*
X157653162Y-85031833D01*
X157553000Y-84789422D01*
X157553000Y-72260535D01*
X157777670Y-72110415D01*
X157988000Y-71795634D01*
X158198330Y-72110415D01*
X158423000Y-72260535D01*
X158423000Y-84789766D01*
X158323162Y-85030201D01*
X158322838Y-85402167D01*
X158464883Y-85745943D01*
X158727673Y-86009192D01*
X159071201Y-86151838D01*
X159443167Y-86152162D01*
X159786943Y-86010117D01*
X160050192Y-85747327D01*
X160192838Y-85403799D01*
X160193162Y-85031833D01*
X160093000Y-84789422D01*
X160093000Y-72260535D01*
X160317670Y-72110415D01*
X160528000Y-71795634D01*
X160738330Y-72110415D01*
X160963000Y-72260535D01*
X160963000Y-84789766D01*
X160863162Y-85030201D01*
X160862838Y-85402167D01*
X161004883Y-85745943D01*
X161267673Y-86009192D01*
X161611201Y-86151838D01*
X161983167Y-86152162D01*
X162326943Y-86010117D01*
X162590192Y-85747327D01*
X162732838Y-85403799D01*
X162733162Y-85031833D01*
X162633000Y-84789422D01*
X162633000Y-81072060D01*
X164337545Y-81072060D01*
X164420884Y-81325953D01*
X164985306Y-81531590D01*
X165585458Y-81505579D01*
X166019116Y-81325953D01*
X166102455Y-81072060D01*
X165220000Y-80189605D01*
X164337545Y-81072060D01*
X162633000Y-81072060D01*
X162633000Y-79775306D01*
X163698410Y-79775306D01*
X163724421Y-80375458D01*
X163904047Y-80809116D01*
X164157940Y-80892455D01*
X165040395Y-80010000D01*
X164157940Y-79127545D01*
X163904047Y-79210884D01*
X163698410Y-79775306D01*
X162633000Y-79775306D01*
X162633000Y-78947940D01*
X164337545Y-78947940D01*
X165220000Y-79830395D01*
X166102455Y-78947940D01*
X166019116Y-78694047D01*
X165454694Y-78488410D01*
X164854542Y-78514421D01*
X164420884Y-78694047D01*
X164337545Y-78947940D01*
X162633000Y-78947940D01*
X162633000Y-72260535D01*
X162857670Y-72110415D01*
X163068000Y-71795634D01*
X163278330Y-72110415D01*
X163764511Y-72435271D01*
X164338000Y-72549345D01*
X164911489Y-72435271D01*
X165397670Y-72110415D01*
X165608000Y-71795634D01*
X165818330Y-72110415D01*
X166304511Y-72435271D01*
X166878000Y-72549345D01*
X167451489Y-72435271D01*
X167937670Y-72110415D01*
X168262526Y-71624234D01*
X168376600Y-71050745D01*
X168376600Y-70681255D01*
X168262526Y-70107766D01*
X168175151Y-69977000D01*
X170660849Y-69977000D01*
X170573474Y-70107766D01*
X170459400Y-70681255D01*
X170459400Y-71050745D01*
X170573474Y-71624234D01*
X170898330Y-72110415D01*
X171384511Y-72435271D01*
X171958000Y-72549345D01*
X172531489Y-72435271D01*
X173017670Y-72110415D01*
X173228000Y-71795634D01*
X173438330Y-72110415D01*
X173924511Y-72435271D01*
X174227577Y-72495555D01*
X171993132Y-74730000D01*
X169926000Y-74730000D01*
X169606459Y-74793561D01*
X169416390Y-74920561D01*
X169335566Y-74974566D01*
X167129566Y-77180566D01*
X166948561Y-77451459D01*
X166885000Y-77771000D01*
X166885000Y-78721193D01*
X166865771Y-78729138D01*
X166440630Y-79153537D01*
X166431108Y-79176469D01*
X166282060Y-79127545D01*
X165399605Y-80010000D01*
X166282060Y-80892455D01*
X166430648Y-80843682D01*
X166439138Y-80864229D01*
X166863537Y-81289370D01*
X167418325Y-81519738D01*
X168019040Y-81520262D01*
X168574229Y-81290862D01*
X168970318Y-80895464D01*
X169363537Y-81289370D01*
X169918325Y-81519738D01*
X170519040Y-81520262D01*
X171074229Y-81290862D01*
X171243103Y-81122283D01*
X171380910Y-81336441D01*
X171593110Y-81481431D01*
X171845000Y-81532440D01*
X173595000Y-81532440D01*
X173830317Y-81488162D01*
X174046441Y-81349090D01*
X174191431Y-81136890D01*
X174242440Y-80885000D01*
X174242440Y-79135000D01*
X174198162Y-78899683D01*
X174059090Y-78683559D01*
X173846890Y-78538569D01*
X173595000Y-78487560D01*
X171845000Y-78487560D01*
X171609683Y-78531838D01*
X171393559Y-78670910D01*
X171248569Y-78883110D01*
X171245214Y-78899676D01*
X171096333Y-78750535D01*
X171414868Y-78432000D01*
X172847000Y-78432000D01*
X173166541Y-78368439D01*
X173437434Y-78187434D01*
X179158890Y-72465979D01*
X179578000Y-72549345D01*
X180151489Y-72435271D01*
X180637670Y-72110415D01*
X180848000Y-71795634D01*
X181058330Y-72110415D01*
X181283000Y-72260535D01*
X181283000Y-73060132D01*
X180502132Y-73841000D01*
X178816000Y-73841000D01*
X178496459Y-73904561D01*
X178340383Y-74008848D01*
X178225566Y-74085566D01*
X176193566Y-76117566D01*
X176012561Y-76388459D01*
X175949000Y-76708000D01*
X175949000Y-83566000D01*
X176012561Y-83885541D01*
X176167266Y-84117073D01*
X176193566Y-84156434D01*
X177637566Y-85600434D01*
X177908459Y-85781439D01*
X178228000Y-85845000D01*
X180321193Y-85845000D01*
X180329138Y-85864229D01*
X180753537Y-86289370D01*
X180776469Y-86298892D01*
X180727545Y-86447940D01*
X181610000Y-87330395D01*
X182492455Y-86447940D01*
X182443682Y-86299352D01*
X182464229Y-86290862D01*
X182889370Y-85866463D01*
X183119738Y-85311675D01*
X183120262Y-84710960D01*
X182890862Y-84155771D01*
X182495464Y-83759682D01*
X182889370Y-83366463D01*
X182898282Y-83345000D01*
X183936000Y-83345000D01*
X184255541Y-83281439D01*
X184526434Y-83100434D01*
X186137434Y-81489434D01*
X186231209Y-81349090D01*
X186318439Y-81218541D01*
X186382000Y-80899000D01*
X186382000Y-77089000D01*
X186318439Y-76769459D01*
X186137434Y-76498566D01*
X185493000Y-75854132D01*
X185493000Y-72260535D01*
X185717670Y-72110415D01*
X185928000Y-71795634D01*
X186138330Y-72110415D01*
X186624511Y-72435271D01*
X187198000Y-72549345D01*
X187771489Y-72435271D01*
X188257670Y-72110415D01*
X188468000Y-71795634D01*
X188678330Y-72110415D01*
X189164511Y-72435271D01*
X189738000Y-72549345D01*
X190311489Y-72435271D01*
X190797670Y-72110415D01*
X191031739Y-71760106D01*
X191285709Y-72374761D01*
X192035293Y-73125655D01*
X193015173Y-73532536D01*
X193763943Y-73533189D01*
X189909566Y-77387566D01*
X189728561Y-77658459D01*
X189665000Y-77978000D01*
X189665000Y-78487560D01*
X189625000Y-78487560D01*
X189389683Y-78531838D01*
X189173559Y-78670910D01*
X189028569Y-78883110D01*
X188977560Y-79135000D01*
X188977560Y-80885000D01*
X189021838Y-81120317D01*
X189160910Y-81336441D01*
X189373110Y-81481431D01*
X189389676Y-81484786D01*
X189220630Y-81653537D01*
X188990262Y-82208325D01*
X188989738Y-82809040D01*
X189219138Y-83364229D01*
X189614536Y-83760318D01*
X189220630Y-84153537D01*
X188990262Y-84708325D01*
X188989738Y-85309040D01*
X189219138Y-85864229D01*
X189614536Y-86260318D01*
X189220630Y-86653537D01*
X188990262Y-87208325D01*
X188989738Y-87809040D01*
X189219138Y-88364229D01*
X189614536Y-88760318D01*
X189220630Y-89153537D01*
X188990262Y-89708325D01*
X188989738Y-90309040D01*
X189219138Y-90864229D01*
X189614536Y-91260318D01*
X189220630Y-91653537D01*
X188990262Y-92208325D01*
X188989738Y-92809040D01*
X189219138Y-93364229D01*
X189614536Y-93760318D01*
X189220630Y-94153537D01*
X188990262Y-94708325D01*
X188989738Y-95309040D01*
X189219138Y-95864229D01*
X189614536Y-96260318D01*
X189220630Y-96653537D01*
X188990262Y-97208325D01*
X188989738Y-97809040D01*
X189219138Y-98364229D01*
X189614536Y-98760318D01*
X189220630Y-99153537D01*
X188990262Y-99708325D01*
X188989738Y-100309040D01*
X189219138Y-100864229D01*
X189643537Y-101289370D01*
X189666469Y-101298892D01*
X189617545Y-101447940D01*
X190500000Y-102330395D01*
X191382455Y-101447940D01*
X191333682Y-101299352D01*
X191354229Y-101290862D01*
X191779370Y-100866463D01*
X191788282Y-100845000D01*
X192501132Y-100845000D01*
X193592566Y-101936434D01*
X193863459Y-102117439D01*
X194183000Y-102181000D01*
X196128593Y-102181000D01*
X196298330Y-102435029D01*
X196569172Y-102616000D01*
X196298330Y-102796971D01*
X195973474Y-103283152D01*
X195859400Y-103856641D01*
X195859400Y-103915359D01*
X195973474Y-104488848D01*
X196298330Y-104975029D01*
X196569172Y-105156000D01*
X196298330Y-105336971D01*
X195973474Y-105823152D01*
X195859400Y-106396641D01*
X195859400Y-106455359D01*
X195973474Y-107028848D01*
X196298330Y-107515029D01*
X196569172Y-107696000D01*
X196298330Y-107876971D01*
X195973474Y-108363152D01*
X195859400Y-108936641D01*
X195859400Y-108995359D01*
X195973474Y-109568848D01*
X196298330Y-110055029D01*
X196569172Y-110236000D01*
X196298330Y-110416971D01*
X195973474Y-110903152D01*
X195859400Y-111476641D01*
X195859400Y-111535359D01*
X195973474Y-112108848D01*
X196298330Y-112595029D01*
X196556620Y-112767613D01*
X196483800Y-112992195D01*
X197358000Y-113866395D01*
X198232200Y-112992195D01*
X198159380Y-112767613D01*
X198417670Y-112595029D01*
X198628000Y-112280248D01*
X198838330Y-112595029D01*
X199109161Y-112775992D01*
X198691179Y-113157510D01*
X198648510Y-113248551D01*
X198411805Y-113171800D01*
X197537605Y-114046000D01*
X198411805Y-114920200D01*
X198648510Y-114843449D01*
X198691179Y-114934490D01*
X199123053Y-115328688D01*
X199538974Y-115500958D01*
X199771000Y-115379817D01*
X199771000Y-114173000D01*
X199751000Y-114173000D01*
X199751000Y-113919000D01*
X199771000Y-113919000D01*
X199771000Y-113899000D01*
X200025000Y-113899000D01*
X200025000Y-113919000D01*
X200045000Y-113919000D01*
X200045000Y-114173000D01*
X200025000Y-114173000D01*
X200025000Y-115379817D01*
X200257026Y-115500958D01*
X200672947Y-115328688D01*
X201104821Y-114934490D01*
X201168000Y-114799687D01*
X201168000Y-116765564D01*
X200430827Y-116459464D01*
X199369828Y-116458538D01*
X198389239Y-116863709D01*
X197638345Y-117613293D01*
X197231464Y-118593173D01*
X197230538Y-119654172D01*
X197589530Y-120523000D01*
X195649311Y-120523000D01*
X195877670Y-120370415D01*
X196202526Y-119884234D01*
X196316600Y-119310745D01*
X196316600Y-118941255D01*
X196202526Y-118367766D01*
X195877670Y-117881585D01*
X195391489Y-117556729D01*
X194818000Y-117442655D01*
X194244511Y-117556729D01*
X193758330Y-117881585D01*
X193548000Y-118196366D01*
X193337670Y-117881585D01*
X192851489Y-117556729D01*
X192278000Y-117442655D01*
X191704511Y-117556729D01*
X191218330Y-117881585D01*
X191008000Y-118196366D01*
X190797670Y-117881585D01*
X190311489Y-117556729D01*
X189738000Y-117442655D01*
X189164511Y-117556729D01*
X188678330Y-117881585D01*
X188468000Y-118196366D01*
X188257670Y-117881585D01*
X187771489Y-117556729D01*
X187198000Y-117442655D01*
X186624511Y-117556729D01*
X186138330Y-117881585D01*
X185928000Y-118196366D01*
X185717670Y-117881585D01*
X185231489Y-117556729D01*
X184658000Y-117442655D01*
X184084511Y-117556729D01*
X183598330Y-117881585D01*
X183388000Y-118196366D01*
X183177670Y-117881585D01*
X182691489Y-117556729D01*
X182118000Y-117442655D01*
X181544511Y-117556729D01*
X181058330Y-117881585D01*
X180848000Y-118196366D01*
X180637670Y-117881585D01*
X180151489Y-117556729D01*
X179578000Y-117442655D01*
X179004511Y-117556729D01*
X178518330Y-117881585D01*
X178308000Y-118196366D01*
X178097670Y-117881585D01*
X177611489Y-117556729D01*
X177038000Y-117442655D01*
X176464511Y-117556729D01*
X175978330Y-117881585D01*
X175653474Y-118367766D01*
X175539400Y-118941255D01*
X175539400Y-119310745D01*
X175653474Y-119884234D01*
X175978330Y-120370415D01*
X176206689Y-120523000D01*
X172789311Y-120523000D01*
X173017670Y-120370415D01*
X173342526Y-119884234D01*
X173456600Y-119310745D01*
X173456600Y-118941255D01*
X173342526Y-118367766D01*
X173017670Y-117881585D01*
X172531489Y-117556729D01*
X171958000Y-117442655D01*
X171384511Y-117556729D01*
X170898330Y-117881585D01*
X170688000Y-118196366D01*
X170477670Y-117881585D01*
X169991489Y-117556729D01*
X169418000Y-117442655D01*
X168844511Y-117556729D01*
X168358330Y-117881585D01*
X168148000Y-118196366D01*
X167937670Y-117881585D01*
X167451489Y-117556729D01*
X166878000Y-117442655D01*
X166304511Y-117556729D01*
X165818330Y-117881585D01*
X165608000Y-118196366D01*
X165397670Y-117881585D01*
X164911489Y-117556729D01*
X164338000Y-117442655D01*
X163764511Y-117556729D01*
X163278330Y-117881585D01*
X163068000Y-118196366D01*
X162857670Y-117881585D01*
X162371489Y-117556729D01*
X161798000Y-117442655D01*
X161224511Y-117556729D01*
X160738330Y-117881585D01*
X160528000Y-118196366D01*
X160317670Y-117881585D01*
X159831489Y-117556729D01*
X159258000Y-117442655D01*
X158684511Y-117556729D01*
X158198330Y-117881585D01*
X157988000Y-118196366D01*
X157777670Y-117881585D01*
X157291489Y-117556729D01*
X156718000Y-117442655D01*
X156144511Y-117556729D01*
X155658330Y-117881585D01*
X155448000Y-118196366D01*
X155237670Y-117881585D01*
X154751489Y-117556729D01*
X154178000Y-117442655D01*
X153604511Y-117556729D01*
X153118330Y-117881585D01*
X152793474Y-118367766D01*
X152679400Y-118941255D01*
X152679400Y-119310745D01*
X152793474Y-119884234D01*
X153118330Y-120370415D01*
X153346689Y-120523000D01*
X149929311Y-120523000D01*
X150157670Y-120370415D01*
X150482526Y-119884234D01*
X150596600Y-119310745D01*
X150596600Y-118941255D01*
X150482526Y-118367766D01*
X150157670Y-117881585D01*
X149671489Y-117556729D01*
X149098000Y-117442655D01*
X148524511Y-117556729D01*
X148038330Y-117881585D01*
X147831539Y-118191069D01*
X147460036Y-117775268D01*
X146932791Y-117521291D01*
X146917026Y-117518642D01*
X146685000Y-117639783D01*
X146685000Y-118999000D01*
X146705000Y-118999000D01*
X146705000Y-119253000D01*
X146685000Y-119253000D01*
X146685000Y-119273000D01*
X146431000Y-119273000D01*
X146431000Y-119253000D01*
X144145000Y-119253000D01*
X144145000Y-119273000D01*
X143891000Y-119273000D01*
X143891000Y-119253000D01*
X143871000Y-119253000D01*
X143871000Y-118999000D01*
X143891000Y-118999000D01*
X143891000Y-117639783D01*
X144145000Y-117639783D01*
X144145000Y-118999000D01*
X146431000Y-118999000D01*
X146431000Y-117639783D01*
X146198974Y-117518642D01*
X146183209Y-117521291D01*
X145655964Y-117775268D01*
X145288000Y-118187108D01*
X144920036Y-117775268D01*
X144392791Y-117521291D01*
X144377026Y-117518642D01*
X144145000Y-117639783D01*
X143891000Y-117639783D01*
X143658974Y-117518642D01*
X143643209Y-117521291D01*
X143115964Y-117775268D01*
X142744461Y-118191069D01*
X142537670Y-117881585D01*
X142051489Y-117556729D01*
X141478000Y-117442655D01*
X140904511Y-117556729D01*
X140418330Y-117881585D01*
X140208000Y-118196366D01*
X139997670Y-117881585D01*
X139773000Y-117731465D01*
X139773000Y-116931868D01*
X140934868Y-115770000D01*
X149987000Y-115770000D01*
X150306541Y-115706439D01*
X150577434Y-115525434D01*
X151003063Y-115099805D01*
X196483800Y-115099805D01*
X196565741Y-115352516D01*
X197126030Y-115556248D01*
X197721635Y-115530058D01*
X198150259Y-115352516D01*
X198232200Y-115099805D01*
X197358000Y-114225605D01*
X196483800Y-115099805D01*
X151003063Y-115099805D01*
X152210808Y-113892060D01*
X180727545Y-113892060D01*
X180810884Y-114145953D01*
X181375306Y-114351590D01*
X181975458Y-114325579D01*
X182409116Y-114145953D01*
X182492455Y-113892060D01*
X182414425Y-113814030D01*
X195847752Y-113814030D01*
X195873942Y-114409635D01*
X196051484Y-114838259D01*
X196304195Y-114920200D01*
X197178395Y-114046000D01*
X196304195Y-113171800D01*
X196051484Y-113253741D01*
X195847752Y-113814030D01*
X182414425Y-113814030D01*
X181610000Y-113009605D01*
X180727545Y-113892060D01*
X152210808Y-113892060D01*
X153117434Y-112985434D01*
X153187433Y-112880673D01*
X153298439Y-112714541D01*
X153322156Y-112595306D01*
X180088410Y-112595306D01*
X180114421Y-113195458D01*
X180294047Y-113629116D01*
X180547940Y-113712455D01*
X181430395Y-112830000D01*
X181789605Y-112830000D01*
X182672060Y-113712455D01*
X182925953Y-113629116D01*
X183131590Y-113064694D01*
X183105579Y-112464542D01*
X182925953Y-112030884D01*
X182672060Y-111947545D01*
X181789605Y-112830000D01*
X181430395Y-112830000D01*
X180547940Y-111947545D01*
X180294047Y-112030884D01*
X180088410Y-112595306D01*
X153322156Y-112595306D01*
X153362000Y-112395000D01*
X153362000Y-110917060D01*
X155407545Y-110917060D01*
X155490884Y-111170953D01*
X156055306Y-111376590D01*
X156655458Y-111350579D01*
X157089116Y-111170953D01*
X157172455Y-110917060D01*
X156290000Y-110034605D01*
X155407545Y-110917060D01*
X153362000Y-110917060D01*
X153362000Y-109620306D01*
X154768410Y-109620306D01*
X154794421Y-110220458D01*
X154974047Y-110654116D01*
X155227940Y-110737455D01*
X156110395Y-109855000D01*
X156469605Y-109855000D01*
X157352060Y-110737455D01*
X157500648Y-110688682D01*
X157509138Y-110709229D01*
X157933537Y-111134370D01*
X158488325Y-111364738D01*
X159089040Y-111365262D01*
X159644229Y-111135862D01*
X159813103Y-110967283D01*
X159950910Y-111181441D01*
X160163110Y-111326431D01*
X160415000Y-111377440D01*
X162165000Y-111377440D01*
X162400317Y-111333162D01*
X162616441Y-111194090D01*
X162761431Y-110981890D01*
X162774559Y-110917060D01*
X166837545Y-110917060D01*
X166920884Y-111170953D01*
X167485306Y-111376590D01*
X168085458Y-111350579D01*
X168519116Y-111170953D01*
X168602455Y-110917060D01*
X167720000Y-110034605D01*
X166837545Y-110917060D01*
X162774559Y-110917060D01*
X162812440Y-110730000D01*
X162812440Y-109620306D01*
X166198410Y-109620306D01*
X166224421Y-110220458D01*
X166404047Y-110654116D01*
X166657940Y-110737455D01*
X167540395Y-109855000D01*
X167899605Y-109855000D01*
X168782060Y-110737455D01*
X168930648Y-110688682D01*
X168939138Y-110709229D01*
X169363537Y-111134370D01*
X169918325Y-111364738D01*
X170519040Y-111365262D01*
X171074229Y-111135862D01*
X171243103Y-110967283D01*
X171380910Y-111181441D01*
X171593110Y-111326431D01*
X171845000Y-111377440D01*
X173595000Y-111377440D01*
X173830317Y-111333162D01*
X174046441Y-111194090D01*
X174191431Y-110981890D01*
X174242440Y-110730000D01*
X174242440Y-108980000D01*
X174198162Y-108744683D01*
X174059090Y-108528559D01*
X173846890Y-108383569D01*
X173595000Y-108332560D01*
X171845000Y-108332560D01*
X171609683Y-108376838D01*
X171393559Y-108515910D01*
X171248569Y-108728110D01*
X171245214Y-108744676D01*
X171076463Y-108575630D01*
X170521675Y-108345262D01*
X169920960Y-108344738D01*
X169365771Y-108574138D01*
X168940630Y-108998537D01*
X168931108Y-109021469D01*
X168782060Y-108972545D01*
X167899605Y-109855000D01*
X167540395Y-109855000D01*
X166657940Y-108972545D01*
X166404047Y-109055884D01*
X166198410Y-109620306D01*
X162812440Y-109620306D01*
X162812440Y-108980000D01*
X162777243Y-108792940D01*
X166837545Y-108792940D01*
X167720000Y-109675395D01*
X168602455Y-108792940D01*
X168519116Y-108539047D01*
X167954694Y-108333410D01*
X167354542Y-108359421D01*
X166920884Y-108539047D01*
X166837545Y-108792940D01*
X162777243Y-108792940D01*
X162768162Y-108744683D01*
X162629090Y-108528559D01*
X162416890Y-108383569D01*
X162165000Y-108332560D01*
X160415000Y-108332560D01*
X160179683Y-108376838D01*
X159963559Y-108515910D01*
X159818569Y-108728110D01*
X159815214Y-108744676D01*
X159646463Y-108575630D01*
X159091675Y-108345262D01*
X158490960Y-108344738D01*
X157935771Y-108574138D01*
X157510630Y-108998537D01*
X157501108Y-109021469D01*
X157352060Y-108972545D01*
X156469605Y-109855000D01*
X156110395Y-109855000D01*
X155227940Y-108972545D01*
X154974047Y-109055884D01*
X154768410Y-109620306D01*
X153362000Y-109620306D01*
X153362000Y-108792940D01*
X155407545Y-108792940D01*
X156290000Y-109675395D01*
X157172455Y-108792940D01*
X157089116Y-108539047D01*
X156524694Y-108333410D01*
X155924542Y-108359421D01*
X155490884Y-108539047D01*
X155407545Y-108792940D01*
X153362000Y-108792940D01*
X153362000Y-105710234D01*
X153461838Y-105469799D01*
X153462162Y-105097833D01*
X153320117Y-104754057D01*
X153057327Y-104490808D01*
X152713799Y-104348162D01*
X152645971Y-104348103D01*
X150196434Y-101898566D01*
X149925541Y-101717561D01*
X149606000Y-101654000D01*
X135428234Y-101654000D01*
X135187799Y-101554162D01*
X134815833Y-101553838D01*
X134472057Y-101695883D01*
X134208808Y-101958673D01*
X134066162Y-102302201D01*
X134065838Y-102674167D01*
X134207883Y-103017943D01*
X134470673Y-103281192D01*
X134814201Y-103423838D01*
X135186167Y-103424162D01*
X135428578Y-103324000D01*
X149260132Y-103324000D01*
X151692000Y-105755868D01*
X151692000Y-112049132D01*
X149641132Y-114100000D01*
X140589000Y-114100000D01*
X140269460Y-114163560D01*
X139998566Y-114344566D01*
X138347566Y-115995566D01*
X138166561Y-116266459D01*
X138103000Y-116586000D01*
X138103000Y-117731465D01*
X137878330Y-117881585D01*
X137668000Y-118196366D01*
X137457670Y-117881585D01*
X137233000Y-117731465D01*
X137233000Y-117475000D01*
X137169439Y-117155459D01*
X136988434Y-116884566D01*
X136099434Y-115995566D01*
X136060483Y-115969540D01*
X135828541Y-115814561D01*
X135509000Y-115751000D01*
X129631868Y-115751000D01*
X127003535Y-113122667D01*
X126904117Y-112882057D01*
X126641327Y-112618808D01*
X126297799Y-112476162D01*
X125925833Y-112475838D01*
X125582057Y-112617883D01*
X125318808Y-112880673D01*
X125176162Y-113224201D01*
X125175838Y-113596167D01*
X125317883Y-113939943D01*
X125580673Y-114203192D01*
X125822910Y-114303778D01*
X128695566Y-117176434D01*
X128966459Y-117357439D01*
X129286000Y-117421000D01*
X135163132Y-117421000D01*
X135509407Y-117767275D01*
X135338330Y-117881585D01*
X135128000Y-118196366D01*
X134917670Y-117881585D01*
X134431489Y-117556729D01*
X133858000Y-117442655D01*
X133284511Y-117556729D01*
X132798330Y-117881585D01*
X132588000Y-118196366D01*
X132377670Y-117881585D01*
X131891489Y-117556729D01*
X131318000Y-117442655D01*
X130744511Y-117556729D01*
X130258330Y-117881585D01*
X129933474Y-118367766D01*
X129819400Y-118941255D01*
X129819400Y-119310745D01*
X129933474Y-119884234D01*
X130258330Y-120370415D01*
X130486689Y-120523000D01*
X119655701Y-120523000D01*
X120014536Y-119658827D01*
X120015462Y-118597828D01*
X119610291Y-117617239D01*
X118860707Y-116866345D01*
X117880827Y-116459464D01*
X116819828Y-116458538D01*
X115839239Y-116863709D01*
X115088345Y-117613293D01*
X114681464Y-118593173D01*
X114680538Y-119654172D01*
X115039530Y-120523000D01*
X106097606Y-120523000D01*
X104902000Y-119327394D01*
X104902000Y-110178795D01*
X106259716Y-110178795D01*
X106508106Y-110779943D01*
X106967637Y-111240278D01*
X107060000Y-111278630D01*
X107060000Y-114930942D01*
X106970057Y-114968106D01*
X106509722Y-115427637D01*
X106260284Y-116028352D01*
X106259716Y-116678795D01*
X106508106Y-117279943D01*
X106967637Y-117740278D01*
X107568352Y-117989716D01*
X108218795Y-117990284D01*
X108819943Y-117741894D01*
X109054715Y-117507532D01*
X111422073Y-117507532D01*
X111520736Y-117774387D01*
X112130461Y-118000908D01*
X112780460Y-117976856D01*
X113269264Y-117774387D01*
X113367927Y-117507532D01*
X112395000Y-116534605D01*
X111422073Y-117507532D01*
X109054715Y-117507532D01*
X109280278Y-117282363D01*
X109529716Y-116681648D01*
X109530232Y-116090461D01*
X110749092Y-116090461D01*
X110773144Y-116740460D01*
X110975613Y-117229264D01*
X111242468Y-117327927D01*
X112215395Y-116355000D01*
X112574605Y-116355000D01*
X113547532Y-117327927D01*
X113814387Y-117229264D01*
X114040908Y-116619539D01*
X114016856Y-115969540D01*
X113814387Y-115480736D01*
X113547532Y-115382073D01*
X112574605Y-116355000D01*
X112215395Y-116355000D01*
X111242468Y-115382073D01*
X110975613Y-115480736D01*
X110749092Y-116090461D01*
X109530232Y-116090461D01*
X109530284Y-116031205D01*
X109281894Y-115430057D01*
X109054703Y-115202468D01*
X111422073Y-115202468D01*
X112395000Y-116175395D01*
X113367927Y-115202468D01*
X113269264Y-114935613D01*
X112659539Y-114709092D01*
X112009540Y-114733144D01*
X111520736Y-114935613D01*
X111422073Y-115202468D01*
X109054703Y-115202468D01*
X108822363Y-114969722D01*
X108730000Y-114931370D01*
X108730000Y-111279058D01*
X108819943Y-111241894D01*
X109054715Y-111007532D01*
X111422073Y-111007532D01*
X111520736Y-111274387D01*
X112130461Y-111500908D01*
X112780460Y-111476856D01*
X113269264Y-111274387D01*
X113367927Y-111007532D01*
X112395000Y-110034605D01*
X111422073Y-111007532D01*
X109054715Y-111007532D01*
X109280278Y-110782363D01*
X109529716Y-110181648D01*
X109530232Y-109590461D01*
X110749092Y-109590461D01*
X110773144Y-110240460D01*
X110975613Y-110729264D01*
X111242468Y-110827927D01*
X112215395Y-109855000D01*
X112574605Y-109855000D01*
X113547532Y-110827927D01*
X113814387Y-110729264D01*
X114040908Y-110119539D01*
X114022435Y-109620306D01*
X119168410Y-109620306D01*
X119194421Y-110220458D01*
X119374047Y-110654116D01*
X119627940Y-110737455D01*
X120510395Y-109855000D01*
X119627940Y-108972545D01*
X119374047Y-109055884D01*
X119168410Y-109620306D01*
X114022435Y-109620306D01*
X114016856Y-109469540D01*
X113814387Y-108980736D01*
X113547532Y-108882073D01*
X112574605Y-109855000D01*
X112215395Y-109855000D01*
X111242468Y-108882073D01*
X110975613Y-108980736D01*
X110749092Y-109590461D01*
X109530232Y-109590461D01*
X109530284Y-109531205D01*
X109281894Y-108930057D01*
X109054703Y-108702468D01*
X111422073Y-108702468D01*
X112395000Y-109675395D01*
X113277455Y-108792940D01*
X119807545Y-108792940D01*
X120690000Y-109675395D01*
X120704143Y-109661253D01*
X120883748Y-109840858D01*
X120869605Y-109855000D01*
X120883748Y-109869143D01*
X120704143Y-110048748D01*
X120690000Y-110034605D01*
X119807545Y-110917060D01*
X119890884Y-111170953D01*
X120455306Y-111376590D01*
X121055458Y-111350579D01*
X121489116Y-111170953D01*
X121572454Y-110917062D01*
X121687086Y-111031694D01*
X121728136Y-110990644D01*
X121850910Y-111181441D01*
X122063110Y-111326431D01*
X122315000Y-111377440D01*
X124065000Y-111377440D01*
X124300317Y-111333162D01*
X124516441Y-111194090D01*
X124661431Y-110981890D01*
X124674559Y-110917060D01*
X131277545Y-110917060D01*
X131360884Y-111170953D01*
X131925306Y-111376590D01*
X132525458Y-111350579D01*
X132959116Y-111170953D01*
X133042455Y-110917060D01*
X132160000Y-110034605D01*
X131277545Y-110917060D01*
X124674559Y-110917060D01*
X124712440Y-110730000D01*
X124712440Y-109620306D01*
X130638410Y-109620306D01*
X130664421Y-110220458D01*
X130844047Y-110654116D01*
X131097940Y-110737455D01*
X131980395Y-109855000D01*
X132339605Y-109855000D01*
X133222060Y-110737455D01*
X133370648Y-110688682D01*
X133379138Y-110709229D01*
X133803537Y-111134370D01*
X134358325Y-111364738D01*
X134959040Y-111365262D01*
X135514229Y-111135862D01*
X135683103Y-110967283D01*
X135820910Y-111181441D01*
X136033110Y-111326431D01*
X136285000Y-111377440D01*
X138035000Y-111377440D01*
X138270317Y-111333162D01*
X138486441Y-111194090D01*
X138631431Y-110981890D01*
X138644559Y-110917060D01*
X142707545Y-110917060D01*
X142790884Y-111170953D01*
X143355306Y-111376590D01*
X143955458Y-111350579D01*
X144389116Y-111170953D01*
X144472455Y-110917060D01*
X143590000Y-110034605D01*
X142707545Y-110917060D01*
X138644559Y-110917060D01*
X138682440Y-110730000D01*
X138682440Y-109620306D01*
X142068410Y-109620306D01*
X142094421Y-110220458D01*
X142274047Y-110654116D01*
X142527940Y-110737455D01*
X143410395Y-109855000D01*
X143769605Y-109855000D01*
X144652060Y-110737455D01*
X144800648Y-110688682D01*
X144809138Y-110709229D01*
X145233537Y-111134370D01*
X145788325Y-111364738D01*
X146389040Y-111365262D01*
X146944229Y-111135862D01*
X147113103Y-110967283D01*
X147250910Y-111181441D01*
X147463110Y-111326431D01*
X147715000Y-111377440D01*
X149465000Y-111377440D01*
X149700317Y-111333162D01*
X149916441Y-111194090D01*
X150061431Y-110981890D01*
X150112440Y-110730000D01*
X150112440Y-108980000D01*
X150068162Y-108744683D01*
X149929090Y-108528559D01*
X149716890Y-108383569D01*
X149465000Y-108332560D01*
X147715000Y-108332560D01*
X147479683Y-108376838D01*
X147263559Y-108515910D01*
X147118569Y-108728110D01*
X147115214Y-108744676D01*
X146946463Y-108575630D01*
X146391675Y-108345262D01*
X145790960Y-108344738D01*
X145235771Y-108574138D01*
X144810630Y-108998537D01*
X144801108Y-109021469D01*
X144652060Y-108972545D01*
X143769605Y-109855000D01*
X143410395Y-109855000D01*
X142527940Y-108972545D01*
X142274047Y-109055884D01*
X142068410Y-109620306D01*
X138682440Y-109620306D01*
X138682440Y-108980000D01*
X138647243Y-108792940D01*
X142707545Y-108792940D01*
X143590000Y-109675395D01*
X144472455Y-108792940D01*
X144389116Y-108539047D01*
X143824694Y-108333410D01*
X143224542Y-108359421D01*
X142790884Y-108539047D01*
X142707545Y-108792940D01*
X138647243Y-108792940D01*
X138638162Y-108744683D01*
X138499090Y-108528559D01*
X138286890Y-108383569D01*
X138035000Y-108332560D01*
X136285000Y-108332560D01*
X136049683Y-108376838D01*
X135833559Y-108515910D01*
X135688569Y-108728110D01*
X135685214Y-108744676D01*
X135516463Y-108575630D01*
X134961675Y-108345262D01*
X134360960Y-108344738D01*
X133805771Y-108574138D01*
X133380630Y-108998537D01*
X133371108Y-109021469D01*
X133222060Y-108972545D01*
X132339605Y-109855000D01*
X131980395Y-109855000D01*
X131097940Y-108972545D01*
X130844047Y-109055884D01*
X130638410Y-109620306D01*
X124712440Y-109620306D01*
X124712440Y-108980000D01*
X124677243Y-108792940D01*
X131277545Y-108792940D01*
X132160000Y-109675395D01*
X133042455Y-108792940D01*
X132959116Y-108539047D01*
X132394694Y-108333410D01*
X131794542Y-108359421D01*
X131360884Y-108539047D01*
X131277545Y-108792940D01*
X124677243Y-108792940D01*
X124668162Y-108744683D01*
X124529090Y-108528559D01*
X124316890Y-108383569D01*
X124065000Y-108332560D01*
X122315000Y-108332560D01*
X122079683Y-108376838D01*
X121863559Y-108515910D01*
X121726006Y-108717226D01*
X121687086Y-108678306D01*
X121572454Y-108792938D01*
X121489116Y-108539047D01*
X120924694Y-108333410D01*
X120324542Y-108359421D01*
X119890884Y-108539047D01*
X119807545Y-108792940D01*
X113277455Y-108792940D01*
X113367927Y-108702468D01*
X113269264Y-108435613D01*
X112659539Y-108209092D01*
X112009540Y-108233144D01*
X111520736Y-108435613D01*
X111422073Y-108702468D01*
X109054703Y-108702468D01*
X108822363Y-108469722D01*
X108221648Y-108220284D01*
X107571205Y-108219716D01*
X106970057Y-108468106D01*
X106509722Y-108927637D01*
X106260284Y-109528352D01*
X106259716Y-110178795D01*
X104902000Y-110178795D01*
X104902000Y-102843040D01*
X104915738Y-102843040D01*
X105145138Y-103398229D01*
X105569537Y-103823370D01*
X106124325Y-104053738D01*
X106725040Y-104054262D01*
X107230963Y-103845218D01*
X107230708Y-104137697D01*
X107486694Y-104757229D01*
X107960278Y-105231640D01*
X108579362Y-105488707D01*
X109249697Y-105489292D01*
X109869229Y-105233306D01*
X110343640Y-104759722D01*
X110600707Y-104140638D01*
X110601292Y-103470303D01*
X110345306Y-102850771D01*
X109871722Y-102376360D01*
X109252638Y-102119293D01*
X108582303Y-102118708D01*
X107962771Y-102374694D01*
X107936126Y-102401293D01*
X107936262Y-102244960D01*
X107706862Y-101689771D01*
X107282463Y-101264630D01*
X106727675Y-101034262D01*
X106126960Y-101033738D01*
X105571771Y-101263138D01*
X105146630Y-101687537D01*
X104916262Y-102242325D01*
X104915738Y-102843040D01*
X104902000Y-102843040D01*
X104902000Y-100212532D01*
X135552073Y-100212532D01*
X135650736Y-100479387D01*
X136260461Y-100705908D01*
X136910460Y-100681856D01*
X137399264Y-100479387D01*
X137497927Y-100212532D01*
X136525000Y-99239605D01*
X135552073Y-100212532D01*
X104902000Y-100212532D01*
X104902000Y-99106060D01*
X105543545Y-99106060D01*
X105626884Y-99359953D01*
X106191306Y-99565590D01*
X106791458Y-99539579D01*
X107225116Y-99359953D01*
X107308455Y-99106060D01*
X106426000Y-98223605D01*
X105543545Y-99106060D01*
X104902000Y-99106060D01*
X104902000Y-97809306D01*
X104904410Y-97809306D01*
X104930421Y-98409458D01*
X105110047Y-98843116D01*
X105363940Y-98926455D01*
X106246395Y-98044000D01*
X105363940Y-97161545D01*
X105110047Y-97244884D01*
X104904410Y-97809306D01*
X104902000Y-97809306D01*
X104902000Y-96981940D01*
X105543545Y-96981940D01*
X106426000Y-97864395D01*
X106440143Y-97850253D01*
X106619748Y-98029858D01*
X106605605Y-98044000D01*
X107488060Y-98926455D01*
X107741953Y-98843116D01*
X107947590Y-98278694D01*
X107944429Y-98205763D01*
X107960278Y-98221640D01*
X108579362Y-98478707D01*
X109249697Y-98479292D01*
X109869229Y-98223306D01*
X110343640Y-97749722D01*
X110432489Y-97535750D01*
X123610000Y-97535750D01*
X123610000Y-98376309D01*
X123706673Y-98609698D01*
X123885301Y-98788327D01*
X124118690Y-98885000D01*
X124809250Y-98885000D01*
X124968000Y-98726250D01*
X124968000Y-97377000D01*
X125222000Y-97377000D01*
X125222000Y-98726250D01*
X125380750Y-98885000D01*
X126071310Y-98885000D01*
X126304699Y-98788327D01*
X126483327Y-98609698D01*
X126580000Y-98376309D01*
X126580000Y-97535750D01*
X128690000Y-97535750D01*
X128690000Y-98376309D01*
X128786673Y-98609698D01*
X128965301Y-98788327D01*
X129198690Y-98885000D01*
X129889250Y-98885000D01*
X130048000Y-98726250D01*
X130048000Y-97377000D01*
X130302000Y-97377000D01*
X130302000Y-98726250D01*
X130460750Y-98885000D01*
X131151310Y-98885000D01*
X131367476Y-98795461D01*
X134879092Y-98795461D01*
X134903144Y-99445460D01*
X135105613Y-99934264D01*
X135372468Y-100032927D01*
X136345395Y-99060000D01*
X136704605Y-99060000D01*
X137677532Y-100032927D01*
X137944387Y-99934264D01*
X138148893Y-99383795D01*
X139389716Y-99383795D01*
X139638106Y-99984943D01*
X140097637Y-100445278D01*
X140698352Y-100694716D01*
X141348795Y-100695284D01*
X141949943Y-100446894D01*
X142410278Y-99987363D01*
X142659716Y-99386648D01*
X142660284Y-98736205D01*
X142442860Y-98210000D01*
X151927560Y-98210000D01*
X151927560Y-99910000D01*
X151971838Y-100145317D01*
X152110910Y-100361441D01*
X152323110Y-100506431D01*
X152575000Y-100557440D01*
X154575000Y-100557440D01*
X154810317Y-100513162D01*
X155026441Y-100374090D01*
X155171431Y-100161890D01*
X155222440Y-99910000D01*
X155222440Y-98210000D01*
X155178162Y-97974683D01*
X155039090Y-97758559D01*
X154826890Y-97613569D01*
X154575000Y-97562560D01*
X152575000Y-97562560D01*
X152339683Y-97606838D01*
X152123559Y-97745910D01*
X151978569Y-97958110D01*
X151927560Y-98210000D01*
X142442860Y-98210000D01*
X142411894Y-98135057D01*
X141952363Y-97674722D01*
X141351648Y-97425284D01*
X140701205Y-97424716D01*
X140100057Y-97673106D01*
X139639722Y-98132637D01*
X139390284Y-98733352D01*
X139389716Y-99383795D01*
X138148893Y-99383795D01*
X138170908Y-99324539D01*
X138146856Y-98674540D01*
X137944387Y-98185736D01*
X137677532Y-98087073D01*
X136704605Y-99060000D01*
X136345395Y-99060000D01*
X135372468Y-98087073D01*
X135105613Y-98185736D01*
X134879092Y-98795461D01*
X131367476Y-98795461D01*
X131384699Y-98788327D01*
X131563327Y-98609698D01*
X131660000Y-98376309D01*
X131660000Y-97907468D01*
X135552073Y-97907468D01*
X136525000Y-98880395D01*
X137497927Y-97907468D01*
X137399264Y-97640613D01*
X136789539Y-97414092D01*
X136139540Y-97438144D01*
X135650736Y-97640613D01*
X135552073Y-97907468D01*
X131660000Y-97907468D01*
X131660000Y-97535750D01*
X131501250Y-97377000D01*
X130302000Y-97377000D01*
X130048000Y-97377000D01*
X128848750Y-97377000D01*
X128690000Y-97535750D01*
X126580000Y-97535750D01*
X126421250Y-97377000D01*
X125222000Y-97377000D01*
X124968000Y-97377000D01*
X123768750Y-97377000D01*
X123610000Y-97535750D01*
X110432489Y-97535750D01*
X110600707Y-97130638D01*
X110601292Y-96460303D01*
X110462207Y-96123691D01*
X123610000Y-96123691D01*
X123610000Y-96964250D01*
X123768750Y-97123000D01*
X124968000Y-97123000D01*
X124968000Y-95773750D01*
X125222000Y-95773750D01*
X125222000Y-97123000D01*
X126421250Y-97123000D01*
X126580000Y-96964250D01*
X126580000Y-96123691D01*
X128690000Y-96123691D01*
X128690000Y-96964250D01*
X128848750Y-97123000D01*
X130048000Y-97123000D01*
X130048000Y-95773750D01*
X130302000Y-95773750D01*
X130302000Y-97123000D01*
X131501250Y-97123000D01*
X131660000Y-96964250D01*
X131660000Y-96123691D01*
X131563327Y-95890302D01*
X131384699Y-95711673D01*
X131151310Y-95615000D01*
X130460750Y-95615000D01*
X130302000Y-95773750D01*
X130048000Y-95773750D01*
X129889250Y-95615000D01*
X129198690Y-95615000D01*
X128965301Y-95711673D01*
X128786673Y-95890302D01*
X128690000Y-96123691D01*
X126580000Y-96123691D01*
X126483327Y-95890302D01*
X126304699Y-95711673D01*
X126071310Y-95615000D01*
X125380750Y-95615000D01*
X125222000Y-95773750D01*
X124968000Y-95773750D01*
X124809250Y-95615000D01*
X124118690Y-95615000D01*
X123885301Y-95711673D01*
X123706673Y-95890302D01*
X123610000Y-96123691D01*
X110462207Y-96123691D01*
X110345306Y-95840771D01*
X109871722Y-95366360D01*
X109252638Y-95109293D01*
X108582303Y-95108708D01*
X107962771Y-95364694D01*
X107488360Y-95838278D01*
X107231293Y-96457362D01*
X107231041Y-96746098D01*
X107225116Y-96728047D01*
X106660694Y-96522410D01*
X106060542Y-96548421D01*
X105626884Y-96728047D01*
X105543545Y-96981940D01*
X104902000Y-96981940D01*
X104902000Y-86725000D01*
X123597560Y-86725000D01*
X123597560Y-88725000D01*
X123641838Y-88960317D01*
X123780910Y-89176441D01*
X123993110Y-89321431D01*
X124245000Y-89372440D01*
X124260000Y-89372440D01*
X124260000Y-91602560D01*
X124245000Y-91602560D01*
X124009683Y-91646838D01*
X123793559Y-91785910D01*
X123648569Y-91998110D01*
X123597560Y-92250000D01*
X123597560Y-94250000D01*
X123641838Y-94485317D01*
X123780910Y-94701441D01*
X123993110Y-94846431D01*
X124245000Y-94897440D01*
X125945000Y-94897440D01*
X126180317Y-94853162D01*
X126396441Y-94714090D01*
X126541431Y-94501890D01*
X126592440Y-94250000D01*
X126592440Y-92250000D01*
X126548162Y-92014683D01*
X126409090Y-91798559D01*
X126196890Y-91653569D01*
X125945000Y-91602560D01*
X125930000Y-91602560D01*
X125930000Y-89372440D01*
X125945000Y-89372440D01*
X126180317Y-89328162D01*
X126396441Y-89189090D01*
X126541431Y-88976890D01*
X126592440Y-88725000D01*
X126592440Y-86725000D01*
X128677560Y-86725000D01*
X128677560Y-88725000D01*
X128721838Y-88960317D01*
X128860910Y-89176441D01*
X129073110Y-89321431D01*
X129325000Y-89372440D01*
X129340000Y-89372440D01*
X129340000Y-91602560D01*
X129325000Y-91602560D01*
X129089683Y-91646838D01*
X128873559Y-91785910D01*
X128728569Y-91998110D01*
X128677560Y-92250000D01*
X128677560Y-94250000D01*
X128721838Y-94485317D01*
X128860910Y-94701441D01*
X129073110Y-94846431D01*
X129325000Y-94897440D01*
X131025000Y-94897440D01*
X131260317Y-94853162D01*
X131476441Y-94714090D01*
X131621431Y-94501890D01*
X131672440Y-94250000D01*
X131672440Y-93712532D01*
X135552073Y-93712532D01*
X135650736Y-93979387D01*
X136260461Y-94205908D01*
X136910460Y-94181856D01*
X137399264Y-93979387D01*
X137497927Y-93712532D01*
X136525000Y-92739605D01*
X135552073Y-93712532D01*
X131672440Y-93712532D01*
X131672440Y-92295461D01*
X134879092Y-92295461D01*
X134903144Y-92945460D01*
X135105613Y-93434264D01*
X135372468Y-93532927D01*
X136345395Y-92560000D01*
X136704605Y-92560000D01*
X137677532Y-93532927D01*
X137944387Y-93434264D01*
X138170908Y-92824539D01*
X138146856Y-92174540D01*
X137944387Y-91685736D01*
X137677532Y-91587073D01*
X136704605Y-92560000D01*
X136345395Y-92560000D01*
X135372468Y-91587073D01*
X135105613Y-91685736D01*
X134879092Y-92295461D01*
X131672440Y-92295461D01*
X131672440Y-92250000D01*
X131628162Y-92014683D01*
X131489090Y-91798559D01*
X131276890Y-91653569D01*
X131025000Y-91602560D01*
X131010000Y-91602560D01*
X131010000Y-91407468D01*
X135552073Y-91407468D01*
X136525000Y-92380395D01*
X137497927Y-91407468D01*
X137399264Y-91140613D01*
X136789539Y-90914092D01*
X136139540Y-90938144D01*
X135650736Y-91140613D01*
X135552073Y-91407468D01*
X131010000Y-91407468D01*
X131010000Y-89372440D01*
X131025000Y-89372440D01*
X131260317Y-89328162D01*
X131476441Y-89189090D01*
X131621431Y-88976890D01*
X131672440Y-88725000D01*
X131672440Y-86725000D01*
X131628162Y-86489683D01*
X131489090Y-86273559D01*
X131443681Y-86242532D01*
X135552073Y-86242532D01*
X135650736Y-86509387D01*
X136260461Y-86735908D01*
X136910460Y-86711856D01*
X137399264Y-86509387D01*
X137497927Y-86242532D01*
X136525000Y-85269605D01*
X135552073Y-86242532D01*
X131443681Y-86242532D01*
X131276890Y-86128569D01*
X131025000Y-86077560D01*
X129325000Y-86077560D01*
X129089683Y-86121838D01*
X128873559Y-86260910D01*
X128728569Y-86473110D01*
X128677560Y-86725000D01*
X126592440Y-86725000D01*
X126548162Y-86489683D01*
X126409090Y-86273559D01*
X126196890Y-86128569D01*
X125945000Y-86077560D01*
X124245000Y-86077560D01*
X124009683Y-86121838D01*
X123793559Y-86260910D01*
X123648569Y-86473110D01*
X123597560Y-86725000D01*
X104902000Y-86725000D01*
X104902000Y-75325000D01*
X109602560Y-75325000D01*
X109602560Y-77075000D01*
X109646838Y-77310317D01*
X109785910Y-77526441D01*
X109987226Y-77663994D01*
X109948306Y-77702914D01*
X110062938Y-77817546D01*
X109809047Y-77900884D01*
X109603410Y-78465306D01*
X109629421Y-79065458D01*
X109809047Y-79499116D01*
X110062940Y-79582455D01*
X110945395Y-78700000D01*
X110931253Y-78685858D01*
X111110858Y-78506253D01*
X111125000Y-78520395D01*
X111139143Y-78506253D01*
X111318748Y-78685858D01*
X111304605Y-78700000D01*
X112187060Y-79582455D01*
X112440953Y-79499116D01*
X112646590Y-78934694D01*
X112620579Y-78334542D01*
X112440953Y-77900884D01*
X112187062Y-77817546D01*
X112301694Y-77702914D01*
X112260644Y-77661864D01*
X112451441Y-77539090D01*
X112596431Y-77326890D01*
X112647440Y-77075000D01*
X112647440Y-75325000D01*
X112603162Y-75089683D01*
X112464090Y-74873559D01*
X112251890Y-74728569D01*
X112000000Y-74677560D01*
X110250000Y-74677560D01*
X110014683Y-74721838D01*
X109798559Y-74860910D01*
X109653569Y-75073110D01*
X109602560Y-75325000D01*
X104902000Y-75325000D01*
X104902000Y-71172606D01*
X106097606Y-69977000D01*
X116099360Y-69977000D01*
X115951464Y-70333173D01*
X115951464Y-70333173D01*
G37*
X115951464Y-70333173D02*
X115950538Y-71394172D01*
X116355709Y-72374761D01*
X117105293Y-73125655D01*
X118085173Y-73532536D01*
X119146172Y-73533462D01*
X120126761Y-73128291D01*
X120877655Y-72378707D01*
X121037071Y-71994789D01*
X121114330Y-72110415D01*
X121285407Y-72224725D01*
X113145132Y-80365000D01*
X112413807Y-80365000D01*
X112405862Y-80345771D01*
X111981463Y-79920630D01*
X111958531Y-79911108D01*
X112007455Y-79762060D01*
X111125000Y-78879605D01*
X110242545Y-79762060D01*
X110291318Y-79910648D01*
X110270771Y-79919138D01*
X109845630Y-80343537D01*
X109615262Y-80898325D01*
X109614738Y-81499040D01*
X109844138Y-82054229D01*
X110239536Y-82450318D01*
X109845630Y-82843537D01*
X109615262Y-83398325D01*
X109614738Y-83999040D01*
X109844138Y-84554229D01*
X110268537Y-84979370D01*
X110823325Y-85209738D01*
X111424040Y-85210262D01*
X111979229Y-84980862D01*
X112404370Y-84556463D01*
X112413282Y-84535000D01*
X113531000Y-84535000D01*
X113850541Y-84471439D01*
X114121434Y-84290434D01*
X115803701Y-82608167D01*
X118571838Y-82608167D01*
X118713883Y-82951943D01*
X118976673Y-83215192D01*
X119320201Y-83357838D01*
X119692167Y-83358162D01*
X120035943Y-83216117D01*
X120299192Y-82953327D01*
X120441838Y-82609799D01*
X120441897Y-82541971D01*
X123994102Y-78989766D01*
X124031838Y-79190317D01*
X124170910Y-79406441D01*
X124383110Y-79551431D01*
X124635000Y-79602440D01*
X126635000Y-79602440D01*
X126870317Y-79558162D01*
X127086441Y-79419090D01*
X127231431Y-79206890D01*
X127282440Y-78955000D01*
X127282440Y-77255000D01*
X127238162Y-77019683D01*
X127099090Y-76803559D01*
X126886890Y-76658569D01*
X126635000Y-76607560D01*
X124635000Y-76607560D01*
X124399683Y-76651838D01*
X124183559Y-76790910D01*
X124038569Y-77003110D01*
X123987560Y-77255000D01*
X123987560Y-77270000D01*
X123698000Y-77270000D01*
X123378459Y-77333561D01*
X123202011Y-77451460D01*
X123107566Y-77514566D01*
X119002242Y-81619890D01*
X118978057Y-81629883D01*
X118714808Y-81892673D01*
X118572162Y-82236201D01*
X118571838Y-82608167D01*
X115803701Y-82608167D01*
X125304434Y-73107434D01*
X125438066Y-72907439D01*
X125485439Y-72836541D01*
X125549000Y-72517000D01*
X125549000Y-72260535D01*
X125773670Y-72110415D01*
X125984000Y-71795634D01*
X126194330Y-72110415D01*
X126680511Y-72435271D01*
X127254000Y-72549345D01*
X127827489Y-72435271D01*
X128313670Y-72110415D01*
X128520461Y-71800931D01*
X128891964Y-72216732D01*
X129419209Y-72470709D01*
X129434974Y-72473358D01*
X129667000Y-72352217D01*
X129667000Y-70993000D01*
X129647000Y-70993000D01*
X129647000Y-70739000D01*
X129667000Y-70739000D01*
X129667000Y-70719000D01*
X129921000Y-70719000D01*
X129921000Y-70739000D01*
X129941000Y-70739000D01*
X129941000Y-70993000D01*
X129921000Y-70993000D01*
X129921000Y-72352217D01*
X130153026Y-72473358D01*
X130168791Y-72470709D01*
X130696036Y-72216732D01*
X131067539Y-71800931D01*
X131274330Y-72110415D01*
X131760511Y-72435271D01*
X132334000Y-72549345D01*
X132907489Y-72435271D01*
X133393670Y-72110415D01*
X133604000Y-71795634D01*
X133674295Y-71900837D01*
X129044566Y-76530566D01*
X128993120Y-76607560D01*
X128635000Y-76607560D01*
X128399683Y-76651838D01*
X128183559Y-76790910D01*
X128038569Y-77003110D01*
X127987560Y-77255000D01*
X127987560Y-78955000D01*
X128031838Y-79190317D01*
X128170910Y-79406441D01*
X128383110Y-79551431D01*
X128635000Y-79602440D01*
X130635000Y-79602440D01*
X130870317Y-79558162D01*
X131086441Y-79419090D01*
X131231431Y-79206890D01*
X131282440Y-78955000D01*
X131282440Y-77255000D01*
X131238162Y-77019683D01*
X131112488Y-76824380D01*
X135464434Y-72472434D01*
X135475722Y-72455540D01*
X135522961Y-72384842D01*
X135933670Y-72110415D01*
X136144000Y-71795634D01*
X136265164Y-71976968D01*
X131743566Y-76498566D01*
X131562561Y-76769459D01*
X131499000Y-77089000D01*
X131499000Y-79537132D01*
X130718132Y-80318000D01*
X126492000Y-80318000D01*
X126172459Y-80381561D01*
X125959353Y-80523954D01*
X125901566Y-80562566D01*
X124504566Y-81959566D01*
X124425725Y-82077560D01*
X124245000Y-82077560D01*
X124009683Y-82121838D01*
X123793559Y-82260910D01*
X123648569Y-82473110D01*
X123597560Y-82725000D01*
X123597560Y-84725000D01*
X123641838Y-84960317D01*
X123780910Y-85176441D01*
X123993110Y-85321431D01*
X124245000Y-85372440D01*
X125945000Y-85372440D01*
X126180317Y-85328162D01*
X126396441Y-85189090D01*
X126541431Y-84976890D01*
X126592440Y-84725000D01*
X126592440Y-82725000D01*
X126548162Y-82489683D01*
X126465165Y-82360703D01*
X126837868Y-81988000D01*
X131064000Y-81988000D01*
X131383541Y-81924439D01*
X131654434Y-81743434D01*
X132924434Y-80473434D01*
X132958031Y-80423152D01*
X133105439Y-80202541D01*
X133169000Y-79883000D01*
X133169000Y-77434868D01*
X138004434Y-72599434D01*
X138037902Y-72549345D01*
X138185439Y-72328541D01*
X138191297Y-72299091D01*
X138473670Y-72110415D01*
X138684000Y-71795634D01*
X138856033Y-72053099D01*
X133521566Y-77387566D01*
X133340561Y-77658459D01*
X133277000Y-77978000D01*
X133277000Y-80299132D01*
X131378284Y-82197848D01*
X131276890Y-82128569D01*
X131025000Y-82077560D01*
X129325000Y-82077560D01*
X129089683Y-82121838D01*
X128873559Y-82260910D01*
X128728569Y-82473110D01*
X128677560Y-82725000D01*
X128677560Y-84725000D01*
X128721838Y-84960317D01*
X128860910Y-85176441D01*
X129073110Y-85321431D01*
X129325000Y-85372440D01*
X131025000Y-85372440D01*
X131260317Y-85328162D01*
X131476441Y-85189090D01*
X131621431Y-84976890D01*
X131652096Y-84825461D01*
X134879092Y-84825461D01*
X134903144Y-85475460D01*
X135105613Y-85964264D01*
X135372468Y-86062927D01*
X136345395Y-85090000D01*
X136704605Y-85090000D01*
X137677532Y-86062927D01*
X137944387Y-85964264D01*
X138148893Y-85413795D01*
X139389716Y-85413795D01*
X139638106Y-86014943D01*
X140097637Y-86475278D01*
X140698352Y-86724716D01*
X141348795Y-86725284D01*
X141949943Y-86476894D01*
X142410278Y-86017363D01*
X142659716Y-85416648D01*
X142660284Y-84766205D01*
X142411894Y-84165057D01*
X141952363Y-83704722D01*
X141351648Y-83455284D01*
X140701205Y-83454716D01*
X140100057Y-83703106D01*
X139639722Y-84162637D01*
X139390284Y-84763352D01*
X139389716Y-85413795D01*
X138148893Y-85413795D01*
X138170908Y-85354539D01*
X138146856Y-84704540D01*
X137944387Y-84215736D01*
X137677532Y-84117073D01*
X136704605Y-85090000D01*
X136345395Y-85090000D01*
X135372468Y-84117073D01*
X135105613Y-84215736D01*
X134879092Y-84825461D01*
X131652096Y-84825461D01*
X131672440Y-84725000D01*
X131672440Y-84265428D01*
X132000400Y-83937468D01*
X135552073Y-83937468D01*
X136525000Y-84910395D01*
X137497927Y-83937468D01*
X137399264Y-83670613D01*
X136789539Y-83444092D01*
X136139540Y-83468144D01*
X135650736Y-83670613D01*
X135552073Y-83937468D01*
X132000400Y-83937468D01*
X134702434Y-81235434D01*
X134883440Y-80964540D01*
X134947000Y-80645000D01*
X134947000Y-79742532D01*
X135552073Y-79742532D01*
X135650736Y-80009387D01*
X136260461Y-80235908D01*
X136910460Y-80211856D01*
X137399264Y-80009387D01*
X137497927Y-79742532D01*
X136525000Y-78769605D01*
X135552073Y-79742532D01*
X134947000Y-79742532D01*
X134947000Y-79081338D01*
X135105613Y-79464264D01*
X135372468Y-79562927D01*
X136345395Y-78590000D01*
X136704605Y-78590000D01*
X137677532Y-79562927D01*
X137944387Y-79464264D01*
X138148893Y-78913795D01*
X139389716Y-78913795D01*
X139638106Y-79514943D01*
X140097637Y-79975278D01*
X140698352Y-80224716D01*
X141348795Y-80225284D01*
X141949943Y-79976894D01*
X142410278Y-79517363D01*
X142659716Y-78916648D01*
X142660284Y-78266205D01*
X142411894Y-77665057D01*
X141952363Y-77204722D01*
X141351648Y-76955284D01*
X140701205Y-76954716D01*
X140100057Y-77203106D01*
X139639722Y-77662637D01*
X139390284Y-78263352D01*
X139389716Y-78913795D01*
X138148893Y-78913795D01*
X138170908Y-78854539D01*
X138146856Y-78204540D01*
X137944387Y-77715736D01*
X137677532Y-77617073D01*
X136704605Y-78590000D01*
X136345395Y-78590000D01*
X136331253Y-78575858D01*
X136510858Y-78396253D01*
X136525000Y-78410395D01*
X137497927Y-77437468D01*
X137399264Y-77170613D01*
X136789539Y-76944092D01*
X136308994Y-76961874D01*
X140544434Y-72726434D01*
X140593208Y-72653439D01*
X140725439Y-72455541D01*
X140760431Y-72279624D01*
X141013670Y-72110415D01*
X141224000Y-71795634D01*
X141434330Y-72110415D01*
X141920511Y-72435271D01*
X142494000Y-72549345D01*
X143067489Y-72435271D01*
X143553670Y-72110415D01*
X143764000Y-71795634D01*
X143974330Y-72110415D01*
X144199000Y-72260535D01*
X144199000Y-72298132D01*
X143046566Y-73450566D01*
X142865561Y-73721459D01*
X142802000Y-74041000D01*
X142802000Y-86903132D01*
X140434566Y-89270566D01*
X140253561Y-89541459D01*
X140190000Y-89861000D01*
X140190000Y-91135942D01*
X140100057Y-91173106D01*
X139639722Y-91632637D01*
X139390284Y-92233352D01*
X139389716Y-92883795D01*
X139638106Y-93484943D01*
X140097637Y-93945278D01*
X140698352Y-94194716D01*
X141348795Y-94195284D01*
X141949943Y-93946894D01*
X142132155Y-93765000D01*
X151927560Y-93765000D01*
X151927560Y-95465000D01*
X151971838Y-95700317D01*
X152110910Y-95916441D01*
X152323110Y-96061431D01*
X152575000Y-96112440D01*
X154575000Y-96112440D01*
X154810317Y-96068162D01*
X155026441Y-95929090D01*
X155171431Y-95716890D01*
X155222440Y-95465000D01*
X155222440Y-93765000D01*
X155178162Y-93529683D01*
X155039090Y-93313559D01*
X154826890Y-93168569D01*
X154575000Y-93117560D01*
X152575000Y-93117560D01*
X152339683Y-93161838D01*
X152123559Y-93300910D01*
X151978569Y-93513110D01*
X151927560Y-93765000D01*
X142132155Y-93765000D01*
X142410278Y-93487363D01*
X142659716Y-92886648D01*
X142660284Y-92236205D01*
X142411894Y-91635057D01*
X141952363Y-91174722D01*
X141860000Y-91136370D01*
X141860000Y-90206868D01*
X142746868Y-89320000D01*
X151927560Y-89320000D01*
X151927560Y-91020000D01*
X151971838Y-91255317D01*
X152110910Y-91471441D01*
X152323110Y-91616431D01*
X152575000Y-91667440D01*
X154575000Y-91667440D01*
X154810317Y-91623162D01*
X155026441Y-91484090D01*
X155171431Y-91271890D01*
X155222440Y-91020000D01*
X155222440Y-89320000D01*
X155927560Y-89320000D01*
X155927560Y-91020000D01*
X155971838Y-91255317D01*
X156110910Y-91471441D01*
X156323110Y-91616431D01*
X156575000Y-91667440D01*
X158575000Y-91667440D01*
X158810317Y-91623162D01*
X159026441Y-91484090D01*
X159171431Y-91271890D01*
X159222440Y-91020000D01*
X159222440Y-91005000D01*
X161671000Y-91005000D01*
X161990541Y-90941439D01*
X162261434Y-90760434D01*
X165953868Y-87068000D01*
X170088132Y-87068000D01*
X171377000Y-88356868D01*
X171377000Y-90586132D01*
X170648195Y-91314937D01*
X170624147Y-91278946D01*
X170294974Y-91059000D01*
X170624147Y-90839054D01*
X170946054Y-90357285D01*
X171059093Y-89789000D01*
X170946054Y-89220715D01*
X170624147Y-88738946D01*
X170142378Y-88417039D01*
X169574093Y-88304000D01*
X169515907Y-88304000D01*
X168947622Y-88417039D01*
X168465853Y-88738946D01*
X168465029Y-88740179D01*
X168458162Y-88703683D01*
X168319090Y-88487559D01*
X168106890Y-88342569D01*
X167855000Y-88291560D01*
X166155000Y-88291560D01*
X165919683Y-88335838D01*
X165703559Y-88474910D01*
X165558569Y-88687110D01*
X165507560Y-88939000D01*
X165507560Y-90639000D01*
X165551838Y-90874317D01*
X165690910Y-91090441D01*
X165903110Y-91235431D01*
X165970541Y-91249086D01*
X165925853Y-91278946D01*
X165782159Y-91494000D01*
X165735000Y-91494000D01*
X165415459Y-91557561D01*
X165223632Y-91685736D01*
X165144566Y-91738566D01*
X163103132Y-93780000D01*
X159222440Y-93780000D01*
X159222440Y-93765000D01*
X159178162Y-93529683D01*
X159039090Y-93313559D01*
X158826890Y-93168569D01*
X158575000Y-93117560D01*
X156575000Y-93117560D01*
X156339683Y-93161838D01*
X156123559Y-93300910D01*
X155978569Y-93513110D01*
X155927560Y-93765000D01*
X155927560Y-95465000D01*
X155971838Y-95700317D01*
X156110910Y-95916441D01*
X156323110Y-96061431D01*
X156575000Y-96112440D01*
X158575000Y-96112440D01*
X158810317Y-96068162D01*
X159026441Y-95929090D01*
X159171431Y-95716890D01*
X159222440Y-95465000D01*
X159222440Y-95450000D01*
X163449000Y-95450000D01*
X163768541Y-95386439D01*
X164039434Y-95205434D01*
X165901805Y-93343063D01*
X165925853Y-93379054D01*
X166255026Y-93599000D01*
X165925853Y-93818946D01*
X165782159Y-94034000D01*
X165608000Y-94034000D01*
X165288459Y-94097561D01*
X165077438Y-94238561D01*
X165017566Y-94278566D01*
X161071132Y-98225000D01*
X159222440Y-98225000D01*
X159222440Y-98210000D01*
X159178162Y-97974683D01*
X159039090Y-97758559D01*
X158826890Y-97613569D01*
X158575000Y-97562560D01*
X156575000Y-97562560D01*
X156339683Y-97606838D01*
X156123559Y-97745910D01*
X155978569Y-97958110D01*
X155927560Y-98210000D01*
X155927560Y-99910000D01*
X155971838Y-100145317D01*
X156110910Y-100361441D01*
X156323110Y-100506431D01*
X156575000Y-100557440D01*
X158575000Y-100557440D01*
X158810317Y-100513162D01*
X159026441Y-100374090D01*
X159171431Y-100161890D01*
X159222440Y-99910000D01*
X159222440Y-99895000D01*
X161417000Y-99895000D01*
X161736541Y-99831439D01*
X162007434Y-99650434D01*
X163891978Y-97765890D01*
X165563524Y-97765890D01*
X165733355Y-98175924D01*
X166123642Y-98604183D01*
X166648108Y-98850486D01*
X166878000Y-98729819D01*
X166878000Y-97536000D01*
X165684845Y-97536000D01*
X165563524Y-97765890D01*
X163891978Y-97765890D01*
X165850936Y-95806932D01*
X165925853Y-95919054D01*
X166266553Y-96146702D01*
X166123642Y-96213817D01*
X165733355Y-96642076D01*
X165563524Y-97052110D01*
X165684845Y-97282000D01*
X166878000Y-97282000D01*
X166878000Y-97262000D01*
X167132000Y-97262000D01*
X167132000Y-97282000D01*
X167152000Y-97282000D01*
X167152000Y-97536000D01*
X167132000Y-97536000D01*
X167132000Y-98729819D01*
X167361892Y-98850486D01*
X167886358Y-98604183D01*
X168276645Y-98175924D01*
X168276655Y-98175899D01*
X168465853Y-98459054D01*
X168947622Y-98780961D01*
X169515907Y-98894000D01*
X169574093Y-98894000D01*
X170142378Y-98780961D01*
X170624147Y-98459054D01*
X170946054Y-97977285D01*
X170996000Y-97726190D01*
X170996000Y-98886766D01*
X170896162Y-99127201D01*
X170895838Y-99499167D01*
X171037883Y-99842943D01*
X171300673Y-100106192D01*
X171644201Y-100248838D01*
X172016167Y-100249162D01*
X172359943Y-100107117D01*
X172623192Y-99844327D01*
X172765838Y-99500799D01*
X172765877Y-99455000D01*
X180087560Y-99455000D01*
X180087560Y-101205000D01*
X180131838Y-101440317D01*
X180270910Y-101656441D01*
X180483110Y-101801431D01*
X180499676Y-101804786D01*
X180330630Y-101973537D01*
X180100262Y-102528325D01*
X180099738Y-103129040D01*
X180329138Y-103684229D01*
X180724536Y-104080318D01*
X180330630Y-104473537D01*
X180100262Y-105028325D01*
X180099738Y-105629040D01*
X180329138Y-106184229D01*
X180724536Y-106580318D01*
X180330630Y-106973537D01*
X180100262Y-107528325D01*
X180099738Y-108129040D01*
X180329138Y-108684229D01*
X180724536Y-109080318D01*
X180330630Y-109473537D01*
X180100262Y-110028325D01*
X180099738Y-110629040D01*
X180329138Y-111184229D01*
X180753537Y-111609370D01*
X180776469Y-111618892D01*
X180727545Y-111767940D01*
X181610000Y-112650395D01*
X182492455Y-111767940D01*
X182443682Y-111619352D01*
X182464229Y-111610862D01*
X182889370Y-111186463D01*
X183119738Y-110631675D01*
X183120262Y-110030960D01*
X182890862Y-109475771D01*
X182495464Y-109079682D01*
X182889370Y-108686463D01*
X183119738Y-108131675D01*
X183120262Y-107530960D01*
X182890862Y-106975771D01*
X182495464Y-106579682D01*
X182889370Y-106186463D01*
X183119738Y-105631675D01*
X183120262Y-105030960D01*
X182890862Y-104475771D01*
X182495464Y-104079682D01*
X182889370Y-103686463D01*
X182936874Y-103572060D01*
X189617545Y-103572060D01*
X189700884Y-103825953D01*
X190265306Y-104031590D01*
X190865458Y-104005579D01*
X191299116Y-103825953D01*
X191382455Y-103572060D01*
X190500000Y-102689605D01*
X189617545Y-103572060D01*
X182936874Y-103572060D01*
X183119738Y-103131675D01*
X183120262Y-102530960D01*
X183014628Y-102275306D01*
X188978410Y-102275306D01*
X189004421Y-102875458D01*
X189184047Y-103309116D01*
X189437940Y-103392455D01*
X190320395Y-102510000D01*
X190679605Y-102510000D01*
X191562060Y-103392455D01*
X191815953Y-103309116D01*
X192021590Y-102744694D01*
X191995579Y-102144542D01*
X191815953Y-101710884D01*
X191562060Y-101627545D01*
X190679605Y-102510000D01*
X190320395Y-102510000D01*
X189437940Y-101627545D01*
X189184047Y-101710884D01*
X188978410Y-102275306D01*
X183014628Y-102275306D01*
X182890862Y-101975771D01*
X182722283Y-101806897D01*
X182936441Y-101669090D01*
X183081431Y-101456890D01*
X183132440Y-101205000D01*
X183132440Y-99455000D01*
X183088162Y-99219683D01*
X182949090Y-99003559D01*
X182736890Y-98858569D01*
X182485000Y-98807560D01*
X180735000Y-98807560D01*
X180499683Y-98851838D01*
X180283559Y-98990910D01*
X180138569Y-99203110D01*
X180087560Y-99455000D01*
X172765877Y-99455000D01*
X172766162Y-99128833D01*
X172666000Y-98886422D01*
X172666000Y-95885000D01*
X172602439Y-95565459D01*
X172421434Y-95294566D01*
X171405434Y-94278566D01*
X171345562Y-94238561D01*
X171134541Y-94097561D01*
X170815000Y-94034000D01*
X170767841Y-94034000D01*
X170624147Y-93818946D01*
X170294974Y-93599000D01*
X170624147Y-93379054D01*
X170767841Y-93164000D01*
X170815000Y-93164000D01*
X171134541Y-93100439D01*
X171405434Y-92919434D01*
X172802434Y-91522434D01*
X172879252Y-91407468D01*
X172983439Y-91251541D01*
X173047000Y-90932000D01*
X173047000Y-88572060D01*
X180727545Y-88572060D01*
X180810884Y-88825953D01*
X181375306Y-89031590D01*
X181975458Y-89005579D01*
X182409116Y-88825953D01*
X182492455Y-88572060D01*
X181610000Y-87689605D01*
X180727545Y-88572060D01*
X173047000Y-88572060D01*
X173047000Y-88011000D01*
X173020039Y-87875458D01*
X172983440Y-87691460D01*
X172802434Y-87420566D01*
X172657174Y-87275306D01*
X180088410Y-87275306D01*
X180114421Y-87875458D01*
X180294047Y-88309116D01*
X180547940Y-88392455D01*
X181430395Y-87510000D01*
X181789605Y-87510000D01*
X182672060Y-88392455D01*
X182925953Y-88309116D01*
X183131590Y-87744694D01*
X183105579Y-87144542D01*
X182925953Y-86710884D01*
X182672060Y-86627545D01*
X181789605Y-87510000D01*
X181430395Y-87510000D01*
X180547940Y-86627545D01*
X180294047Y-86710884D01*
X180088410Y-87275306D01*
X172657174Y-87275306D01*
X171024434Y-85642566D01*
X170865756Y-85536541D01*
X170753541Y-85461561D01*
X170434000Y-85398000D01*
X165608000Y-85398000D01*
X165288460Y-85461560D01*
X165017566Y-85642566D01*
X161325132Y-89335000D01*
X159222440Y-89335000D01*
X159222440Y-89320000D01*
X159178162Y-89084683D01*
X159039090Y-88868559D01*
X158826890Y-88723569D01*
X158575000Y-88672560D01*
X156575000Y-88672560D01*
X156339683Y-88716838D01*
X156123559Y-88855910D01*
X155978569Y-89068110D01*
X155927560Y-89320000D01*
X155222440Y-89320000D01*
X155178162Y-89084683D01*
X155039090Y-88868559D01*
X154826890Y-88723569D01*
X154575000Y-88672560D01*
X152575000Y-88672560D01*
X152339683Y-88716838D01*
X152123559Y-88855910D01*
X151978569Y-89068110D01*
X151927560Y-89320000D01*
X142746868Y-89320000D01*
X144227434Y-87839434D01*
X144326307Y-87691460D01*
X144408439Y-87568541D01*
X144472000Y-87249000D01*
X144472000Y-74386868D01*
X145624434Y-73234434D01*
X145643433Y-73206000D01*
X145805439Y-72963541D01*
X145869000Y-72644000D01*
X145869000Y-72260535D01*
X146093670Y-72110415D01*
X146418526Y-71624234D01*
X146532600Y-71050745D01*
X146532600Y-70681255D01*
X146418526Y-70107766D01*
X146331151Y-69977000D01*
X147800849Y-69977000D01*
X147713474Y-70107766D01*
X147599400Y-70681255D01*
X147599400Y-71050745D01*
X147713474Y-71624234D01*
X148038330Y-72110415D01*
X148524511Y-72435271D01*
X149098000Y-72549345D01*
X149671489Y-72435271D01*
X150157670Y-72110415D01*
X150368000Y-71795634D01*
X150578330Y-72110415D01*
X151064511Y-72435271D01*
X151638000Y-72549345D01*
X152211489Y-72435271D01*
X152697670Y-72110415D01*
X152908000Y-71795634D01*
X153118330Y-72110415D01*
X153604511Y-72435271D01*
X154178000Y-72549345D01*
X154751489Y-72435271D01*
X155237670Y-72110415D01*
X155448000Y-71795634D01*
X155658330Y-72110415D01*
X155883000Y-72260535D01*
X155883000Y-84789766D01*
X155783162Y-85030201D01*
X155782838Y-85402167D01*
X155924883Y-85745943D01*
X156187673Y-86009192D01*
X156531201Y-86151838D01*
X156903167Y-86152162D01*
X157246943Y-86010117D01*
X157510192Y-85747327D01*
X157652838Y-85403799D01*
X157653162Y-85031833D01*
X157553000Y-84789422D01*
X157553000Y-72260535D01*
X157777670Y-72110415D01*
X157988000Y-71795634D01*
X158198330Y-72110415D01*
X158423000Y-72260535D01*
X158423000Y-84789766D01*
X158323162Y-85030201D01*
X158322838Y-85402167D01*
X158464883Y-85745943D01*
X158727673Y-86009192D01*
X159071201Y-86151838D01*
X159443167Y-86152162D01*
X159786943Y-86010117D01*
X160050192Y-85747327D01*
X160192838Y-85403799D01*
X160193162Y-85031833D01*
X160093000Y-84789422D01*
X160093000Y-72260535D01*
X160317670Y-72110415D01*
X160528000Y-71795634D01*
X160738330Y-72110415D01*
X160963000Y-72260535D01*
X160963000Y-84789766D01*
X160863162Y-85030201D01*
X160862838Y-85402167D01*
X161004883Y-85745943D01*
X161267673Y-86009192D01*
X161611201Y-86151838D01*
X161983167Y-86152162D01*
X162326943Y-86010117D01*
X162590192Y-85747327D01*
X162732838Y-85403799D01*
X162733162Y-85031833D01*
X162633000Y-84789422D01*
X162633000Y-81072060D01*
X164337545Y-81072060D01*
X164420884Y-81325953D01*
X164985306Y-81531590D01*
X165585458Y-81505579D01*
X166019116Y-81325953D01*
X166102455Y-81072060D01*
X165220000Y-80189605D01*
X164337545Y-81072060D01*
X162633000Y-81072060D01*
X162633000Y-79775306D01*
X163698410Y-79775306D01*
X163724421Y-80375458D01*
X163904047Y-80809116D01*
X164157940Y-80892455D01*
X165040395Y-80010000D01*
X164157940Y-79127545D01*
X163904047Y-79210884D01*
X163698410Y-79775306D01*
X162633000Y-79775306D01*
X162633000Y-78947940D01*
X164337545Y-78947940D01*
X165220000Y-79830395D01*
X166102455Y-78947940D01*
X166019116Y-78694047D01*
X165454694Y-78488410D01*
X164854542Y-78514421D01*
X164420884Y-78694047D01*
X164337545Y-78947940D01*
X162633000Y-78947940D01*
X162633000Y-72260535D01*
X162857670Y-72110415D01*
X163068000Y-71795634D01*
X163278330Y-72110415D01*
X163764511Y-72435271D01*
X164338000Y-72549345D01*
X164911489Y-72435271D01*
X165397670Y-72110415D01*
X165608000Y-71795634D01*
X165818330Y-72110415D01*
X166304511Y-72435271D01*
X166878000Y-72549345D01*
X167451489Y-72435271D01*
X167937670Y-72110415D01*
X168262526Y-71624234D01*
X168376600Y-71050745D01*
X168376600Y-70681255D01*
X168262526Y-70107766D01*
X168175151Y-69977000D01*
X170660849Y-69977000D01*
X170573474Y-70107766D01*
X170459400Y-70681255D01*
X170459400Y-71050745D01*
X170573474Y-71624234D01*
X170898330Y-72110415D01*
X171384511Y-72435271D01*
X171958000Y-72549345D01*
X172531489Y-72435271D01*
X173017670Y-72110415D01*
X173228000Y-71795634D01*
X173438330Y-72110415D01*
X173924511Y-72435271D01*
X174227577Y-72495555D01*
X171993132Y-74730000D01*
X169926000Y-74730000D01*
X169606459Y-74793561D01*
X169416390Y-74920561D01*
X169335566Y-74974566D01*
X167129566Y-77180566D01*
X166948561Y-77451459D01*
X166885000Y-77771000D01*
X166885000Y-78721193D01*
X166865771Y-78729138D01*
X166440630Y-79153537D01*
X166431108Y-79176469D01*
X166282060Y-79127545D01*
X165399605Y-80010000D01*
X166282060Y-80892455D01*
X166430648Y-80843682D01*
X166439138Y-80864229D01*
X166863537Y-81289370D01*
X167418325Y-81519738D01*
X168019040Y-81520262D01*
X168574229Y-81290862D01*
X168970318Y-80895464D01*
X169363537Y-81289370D01*
X169918325Y-81519738D01*
X170519040Y-81520262D01*
X171074229Y-81290862D01*
X171243103Y-81122283D01*
X171380910Y-81336441D01*
X171593110Y-81481431D01*
X171845000Y-81532440D01*
X173595000Y-81532440D01*
X173830317Y-81488162D01*
X174046441Y-81349090D01*
X174191431Y-81136890D01*
X174242440Y-80885000D01*
X174242440Y-79135000D01*
X174198162Y-78899683D01*
X174059090Y-78683559D01*
X173846890Y-78538569D01*
X173595000Y-78487560D01*
X171845000Y-78487560D01*
X171609683Y-78531838D01*
X171393559Y-78670910D01*
X171248569Y-78883110D01*
X171245214Y-78899676D01*
X171096333Y-78750535D01*
X171414868Y-78432000D01*
X172847000Y-78432000D01*
X173166541Y-78368439D01*
X173437434Y-78187434D01*
X179158890Y-72465979D01*
X179578000Y-72549345D01*
X180151489Y-72435271D01*
X180637670Y-72110415D01*
X180848000Y-71795634D01*
X181058330Y-72110415D01*
X181283000Y-72260535D01*
X181283000Y-73060132D01*
X180502132Y-73841000D01*
X178816000Y-73841000D01*
X178496459Y-73904561D01*
X178340383Y-74008848D01*
X178225566Y-74085566D01*
X176193566Y-76117566D01*
X176012561Y-76388459D01*
X175949000Y-76708000D01*
X175949000Y-83566000D01*
X176012561Y-83885541D01*
X176167266Y-84117073D01*
X176193566Y-84156434D01*
X177637566Y-85600434D01*
X177908459Y-85781439D01*
X178228000Y-85845000D01*
X180321193Y-85845000D01*
X180329138Y-85864229D01*
X180753537Y-86289370D01*
X180776469Y-86298892D01*
X180727545Y-86447940D01*
X181610000Y-87330395D01*
X182492455Y-86447940D01*
X182443682Y-86299352D01*
X182464229Y-86290862D01*
X182889370Y-85866463D01*
X183119738Y-85311675D01*
X183120262Y-84710960D01*
X182890862Y-84155771D01*
X182495464Y-83759682D01*
X182889370Y-83366463D01*
X182898282Y-83345000D01*
X183936000Y-83345000D01*
X184255541Y-83281439D01*
X184526434Y-83100434D01*
X186137434Y-81489434D01*
X186231209Y-81349090D01*
X186318439Y-81218541D01*
X186382000Y-80899000D01*
X186382000Y-77089000D01*
X186318439Y-76769459D01*
X186137434Y-76498566D01*
X185493000Y-75854132D01*
X185493000Y-72260535D01*
X185717670Y-72110415D01*
X185928000Y-71795634D01*
X186138330Y-72110415D01*
X186624511Y-72435271D01*
X187198000Y-72549345D01*
X187771489Y-72435271D01*
X188257670Y-72110415D01*
X188468000Y-71795634D01*
X188678330Y-72110415D01*
X189164511Y-72435271D01*
X189738000Y-72549345D01*
X190311489Y-72435271D01*
X190797670Y-72110415D01*
X191031739Y-71760106D01*
X191285709Y-72374761D01*
X192035293Y-73125655D01*
X193015173Y-73532536D01*
X193763943Y-73533189D01*
X189909566Y-77387566D01*
X189728561Y-77658459D01*
X189665000Y-77978000D01*
X189665000Y-78487560D01*
X189625000Y-78487560D01*
X189389683Y-78531838D01*
X189173559Y-78670910D01*
X189028569Y-78883110D01*
X188977560Y-79135000D01*
X188977560Y-80885000D01*
X189021838Y-81120317D01*
X189160910Y-81336441D01*
X189373110Y-81481431D01*
X189389676Y-81484786D01*
X189220630Y-81653537D01*
X188990262Y-82208325D01*
X188989738Y-82809040D01*
X189219138Y-83364229D01*
X189614536Y-83760318D01*
X189220630Y-84153537D01*
X188990262Y-84708325D01*
X188989738Y-85309040D01*
X189219138Y-85864229D01*
X189614536Y-86260318D01*
X189220630Y-86653537D01*
X188990262Y-87208325D01*
X188989738Y-87809040D01*
X189219138Y-88364229D01*
X189614536Y-88760318D01*
X189220630Y-89153537D01*
X188990262Y-89708325D01*
X188989738Y-90309040D01*
X189219138Y-90864229D01*
X189614536Y-91260318D01*
X189220630Y-91653537D01*
X188990262Y-92208325D01*
X188989738Y-92809040D01*
X189219138Y-93364229D01*
X189614536Y-93760318D01*
X189220630Y-94153537D01*
X188990262Y-94708325D01*
X188989738Y-95309040D01*
X189219138Y-95864229D01*
X189614536Y-96260318D01*
X189220630Y-96653537D01*
X188990262Y-97208325D01*
X188989738Y-97809040D01*
X189219138Y-98364229D01*
X189614536Y-98760318D01*
X189220630Y-99153537D01*
X188990262Y-99708325D01*
X188989738Y-100309040D01*
X189219138Y-100864229D01*
X189643537Y-101289370D01*
X189666469Y-101298892D01*
X189617545Y-101447940D01*
X190500000Y-102330395D01*
X191382455Y-101447940D01*
X191333682Y-101299352D01*
X191354229Y-101290862D01*
X191779370Y-100866463D01*
X191788282Y-100845000D01*
X192501132Y-100845000D01*
X193592566Y-101936434D01*
X193863459Y-102117439D01*
X194183000Y-102181000D01*
X196128593Y-102181000D01*
X196298330Y-102435029D01*
X196569172Y-102616000D01*
X196298330Y-102796971D01*
X195973474Y-103283152D01*
X195859400Y-103856641D01*
X195859400Y-103915359D01*
X195973474Y-104488848D01*
X196298330Y-104975029D01*
X196569172Y-105156000D01*
X196298330Y-105336971D01*
X195973474Y-105823152D01*
X195859400Y-106396641D01*
X195859400Y-106455359D01*
X195973474Y-107028848D01*
X196298330Y-107515029D01*
X196569172Y-107696000D01*
X196298330Y-107876971D01*
X195973474Y-108363152D01*
X195859400Y-108936641D01*
X195859400Y-108995359D01*
X195973474Y-109568848D01*
X196298330Y-110055029D01*
X196569172Y-110236000D01*
X196298330Y-110416971D01*
X195973474Y-110903152D01*
X195859400Y-111476641D01*
X195859400Y-111535359D01*
X195973474Y-112108848D01*
X196298330Y-112595029D01*
X196556620Y-112767613D01*
X196483800Y-112992195D01*
X197358000Y-113866395D01*
X198232200Y-112992195D01*
X198159380Y-112767613D01*
X198417670Y-112595029D01*
X198628000Y-112280248D01*
X198838330Y-112595029D01*
X199109161Y-112775992D01*
X198691179Y-113157510D01*
X198648510Y-113248551D01*
X198411805Y-113171800D01*
X197537605Y-114046000D01*
X198411805Y-114920200D01*
X198648510Y-114843449D01*
X198691179Y-114934490D01*
X199123053Y-115328688D01*
X199538974Y-115500958D01*
X199771000Y-115379817D01*
X199771000Y-114173000D01*
X199751000Y-114173000D01*
X199751000Y-113919000D01*
X199771000Y-113919000D01*
X199771000Y-113899000D01*
X200025000Y-113899000D01*
X200025000Y-113919000D01*
X200045000Y-113919000D01*
X200045000Y-114173000D01*
X200025000Y-114173000D01*
X200025000Y-115379817D01*
X200257026Y-115500958D01*
X200672947Y-115328688D01*
X201104821Y-114934490D01*
X201168000Y-114799687D01*
X201168000Y-116765564D01*
X200430827Y-116459464D01*
X199369828Y-116458538D01*
X198389239Y-116863709D01*
X197638345Y-117613293D01*
X197231464Y-118593173D01*
X197230538Y-119654172D01*
X197589530Y-120523000D01*
X195649311Y-120523000D01*
X195877670Y-120370415D01*
X196202526Y-119884234D01*
X196316600Y-119310745D01*
X196316600Y-118941255D01*
X196202526Y-118367766D01*
X195877670Y-117881585D01*
X195391489Y-117556729D01*
X194818000Y-117442655D01*
X194244511Y-117556729D01*
X193758330Y-117881585D01*
X193548000Y-118196366D01*
X193337670Y-117881585D01*
X192851489Y-117556729D01*
X192278000Y-117442655D01*
X191704511Y-117556729D01*
X191218330Y-117881585D01*
X191008000Y-118196366D01*
X190797670Y-117881585D01*
X190311489Y-117556729D01*
X189738000Y-117442655D01*
X189164511Y-117556729D01*
X188678330Y-117881585D01*
X188468000Y-118196366D01*
X188257670Y-117881585D01*
X187771489Y-117556729D01*
X187198000Y-117442655D01*
X186624511Y-117556729D01*
X186138330Y-117881585D01*
X185928000Y-118196366D01*
X185717670Y-117881585D01*
X185231489Y-117556729D01*
X184658000Y-117442655D01*
X184084511Y-117556729D01*
X183598330Y-117881585D01*
X183388000Y-118196366D01*
X183177670Y-117881585D01*
X182691489Y-117556729D01*
X182118000Y-117442655D01*
X181544511Y-117556729D01*
X181058330Y-117881585D01*
X180848000Y-118196366D01*
X180637670Y-117881585D01*
X180151489Y-117556729D01*
X179578000Y-117442655D01*
X179004511Y-117556729D01*
X178518330Y-117881585D01*
X178308000Y-118196366D01*
X178097670Y-117881585D01*
X177611489Y-117556729D01*
X177038000Y-117442655D01*
X176464511Y-117556729D01*
X175978330Y-117881585D01*
X175653474Y-118367766D01*
X175539400Y-118941255D01*
X175539400Y-119310745D01*
X175653474Y-119884234D01*
X175978330Y-120370415D01*
X176206689Y-120523000D01*
X172789311Y-120523000D01*
X173017670Y-120370415D01*
X173342526Y-119884234D01*
X173456600Y-119310745D01*
X173456600Y-118941255D01*
X173342526Y-118367766D01*
X173017670Y-117881585D01*
X172531489Y-117556729D01*
X171958000Y-117442655D01*
X171384511Y-117556729D01*
X170898330Y-117881585D01*
X170688000Y-118196366D01*
X170477670Y-117881585D01*
X169991489Y-117556729D01*
X169418000Y-117442655D01*
X168844511Y-117556729D01*
X168358330Y-117881585D01*
X168148000Y-118196366D01*
X167937670Y-117881585D01*
X167451489Y-117556729D01*
X166878000Y-117442655D01*
X166304511Y-117556729D01*
X165818330Y-117881585D01*
X165608000Y-118196366D01*
X165397670Y-117881585D01*
X164911489Y-117556729D01*
X164338000Y-117442655D01*
X163764511Y-117556729D01*
X163278330Y-117881585D01*
X163068000Y-118196366D01*
X162857670Y-117881585D01*
X162371489Y-117556729D01*
X161798000Y-117442655D01*
X161224511Y-117556729D01*
X160738330Y-117881585D01*
X160528000Y-118196366D01*
X160317670Y-117881585D01*
X159831489Y-117556729D01*
X159258000Y-117442655D01*
X158684511Y-117556729D01*
X158198330Y-117881585D01*
X157988000Y-118196366D01*
X157777670Y-117881585D01*
X157291489Y-117556729D01*
X156718000Y-117442655D01*
X156144511Y-117556729D01*
X155658330Y-117881585D01*
X155448000Y-118196366D01*
X155237670Y-117881585D01*
X154751489Y-117556729D01*
X154178000Y-117442655D01*
X153604511Y-117556729D01*
X153118330Y-117881585D01*
X152793474Y-118367766D01*
X152679400Y-118941255D01*
X152679400Y-119310745D01*
X152793474Y-119884234D01*
X153118330Y-120370415D01*
X153346689Y-120523000D01*
X149929311Y-120523000D01*
X150157670Y-120370415D01*
X150482526Y-119884234D01*
X150596600Y-119310745D01*
X150596600Y-118941255D01*
X150482526Y-118367766D01*
X150157670Y-117881585D01*
X149671489Y-117556729D01*
X149098000Y-117442655D01*
X148524511Y-117556729D01*
X148038330Y-117881585D01*
X147831539Y-118191069D01*
X147460036Y-117775268D01*
X146932791Y-117521291D01*
X146917026Y-117518642D01*
X146685000Y-117639783D01*
X146685000Y-118999000D01*
X146705000Y-118999000D01*
X146705000Y-119253000D01*
X146685000Y-119253000D01*
X146685000Y-119273000D01*
X146431000Y-119273000D01*
X146431000Y-119253000D01*
X144145000Y-119253000D01*
X144145000Y-119273000D01*
X143891000Y-119273000D01*
X143891000Y-119253000D01*
X143871000Y-119253000D01*
X143871000Y-118999000D01*
X143891000Y-118999000D01*
X143891000Y-117639783D01*
X144145000Y-117639783D01*
X144145000Y-118999000D01*
X146431000Y-118999000D01*
X146431000Y-117639783D01*
X146198974Y-117518642D01*
X146183209Y-117521291D01*
X145655964Y-117775268D01*
X145288000Y-118187108D01*
X144920036Y-117775268D01*
X144392791Y-117521291D01*
X144377026Y-117518642D01*
X144145000Y-117639783D01*
X143891000Y-117639783D01*
X143658974Y-117518642D01*
X143643209Y-117521291D01*
X143115964Y-117775268D01*
X142744461Y-118191069D01*
X142537670Y-117881585D01*
X142051489Y-117556729D01*
X141478000Y-117442655D01*
X140904511Y-117556729D01*
X140418330Y-117881585D01*
X140208000Y-118196366D01*
X139997670Y-117881585D01*
X139773000Y-117731465D01*
X139773000Y-116931868D01*
X140934868Y-115770000D01*
X149987000Y-115770000D01*
X150306541Y-115706439D01*
X150577434Y-115525434D01*
X151003063Y-115099805D01*
X196483800Y-115099805D01*
X196565741Y-115352516D01*
X197126030Y-115556248D01*
X197721635Y-115530058D01*
X198150259Y-115352516D01*
X198232200Y-115099805D01*
X197358000Y-114225605D01*
X196483800Y-115099805D01*
X151003063Y-115099805D01*
X152210808Y-113892060D01*
X180727545Y-113892060D01*
X180810884Y-114145953D01*
X181375306Y-114351590D01*
X181975458Y-114325579D01*
X182409116Y-114145953D01*
X182492455Y-113892060D01*
X182414425Y-113814030D01*
X195847752Y-113814030D01*
X195873942Y-114409635D01*
X196051484Y-114838259D01*
X196304195Y-114920200D01*
X197178395Y-114046000D01*
X196304195Y-113171800D01*
X196051484Y-113253741D01*
X195847752Y-113814030D01*
X182414425Y-113814030D01*
X181610000Y-113009605D01*
X180727545Y-113892060D01*
X152210808Y-113892060D01*
X153117434Y-112985434D01*
X153187433Y-112880673D01*
X153298439Y-112714541D01*
X153322156Y-112595306D01*
X180088410Y-112595306D01*
X180114421Y-113195458D01*
X180294047Y-113629116D01*
X180547940Y-113712455D01*
X181430395Y-112830000D01*
X181789605Y-112830000D01*
X182672060Y-113712455D01*
X182925953Y-113629116D01*
X183131590Y-113064694D01*
X183105579Y-112464542D01*
X182925953Y-112030884D01*
X182672060Y-111947545D01*
X181789605Y-112830000D01*
X181430395Y-112830000D01*
X180547940Y-111947545D01*
X180294047Y-112030884D01*
X180088410Y-112595306D01*
X153322156Y-112595306D01*
X153362000Y-112395000D01*
X153362000Y-110917060D01*
X155407545Y-110917060D01*
X155490884Y-111170953D01*
X156055306Y-111376590D01*
X156655458Y-111350579D01*
X157089116Y-111170953D01*
X157172455Y-110917060D01*
X156290000Y-110034605D01*
X155407545Y-110917060D01*
X153362000Y-110917060D01*
X153362000Y-109620306D01*
X154768410Y-109620306D01*
X154794421Y-110220458D01*
X154974047Y-110654116D01*
X155227940Y-110737455D01*
X156110395Y-109855000D01*
X156469605Y-109855000D01*
X157352060Y-110737455D01*
X157500648Y-110688682D01*
X157509138Y-110709229D01*
X157933537Y-111134370D01*
X158488325Y-111364738D01*
X159089040Y-111365262D01*
X159644229Y-111135862D01*
X159813103Y-110967283D01*
X159950910Y-111181441D01*
X160163110Y-111326431D01*
X160415000Y-111377440D01*
X162165000Y-111377440D01*
X162400317Y-111333162D01*
X162616441Y-111194090D01*
X162761431Y-110981890D01*
X162774559Y-110917060D01*
X166837545Y-110917060D01*
X166920884Y-111170953D01*
X167485306Y-111376590D01*
X168085458Y-111350579D01*
X168519116Y-111170953D01*
X168602455Y-110917060D01*
X167720000Y-110034605D01*
X166837545Y-110917060D01*
X162774559Y-110917060D01*
X162812440Y-110730000D01*
X162812440Y-109620306D01*
X166198410Y-109620306D01*
X166224421Y-110220458D01*
X166404047Y-110654116D01*
X166657940Y-110737455D01*
X167540395Y-109855000D01*
X167899605Y-109855000D01*
X168782060Y-110737455D01*
X168930648Y-110688682D01*
X168939138Y-110709229D01*
X169363537Y-111134370D01*
X169918325Y-111364738D01*
X170519040Y-111365262D01*
X171074229Y-111135862D01*
X171243103Y-110967283D01*
X171380910Y-111181441D01*
X171593110Y-111326431D01*
X171845000Y-111377440D01*
X173595000Y-111377440D01*
X173830317Y-111333162D01*
X174046441Y-111194090D01*
X174191431Y-110981890D01*
X174242440Y-110730000D01*
X174242440Y-108980000D01*
X174198162Y-108744683D01*
X174059090Y-108528559D01*
X173846890Y-108383569D01*
X173595000Y-108332560D01*
X171845000Y-108332560D01*
X171609683Y-108376838D01*
X171393559Y-108515910D01*
X171248569Y-108728110D01*
X171245214Y-108744676D01*
X171076463Y-108575630D01*
X170521675Y-108345262D01*
X169920960Y-108344738D01*
X169365771Y-108574138D01*
X168940630Y-108998537D01*
X168931108Y-109021469D01*
X168782060Y-108972545D01*
X167899605Y-109855000D01*
X167540395Y-109855000D01*
X166657940Y-108972545D01*
X166404047Y-109055884D01*
X166198410Y-109620306D01*
X162812440Y-109620306D01*
X162812440Y-108980000D01*
X162777243Y-108792940D01*
X166837545Y-108792940D01*
X167720000Y-109675395D01*
X168602455Y-108792940D01*
X168519116Y-108539047D01*
X167954694Y-108333410D01*
X167354542Y-108359421D01*
X166920884Y-108539047D01*
X166837545Y-108792940D01*
X162777243Y-108792940D01*
X162768162Y-108744683D01*
X162629090Y-108528559D01*
X162416890Y-108383569D01*
X162165000Y-108332560D01*
X160415000Y-108332560D01*
X160179683Y-108376838D01*
X159963559Y-108515910D01*
X159818569Y-108728110D01*
X159815214Y-108744676D01*
X159646463Y-108575630D01*
X159091675Y-108345262D01*
X158490960Y-108344738D01*
X157935771Y-108574138D01*
X157510630Y-108998537D01*
X157501108Y-109021469D01*
X157352060Y-108972545D01*
X156469605Y-109855000D01*
X156110395Y-109855000D01*
X155227940Y-108972545D01*
X154974047Y-109055884D01*
X154768410Y-109620306D01*
X153362000Y-109620306D01*
X153362000Y-108792940D01*
X155407545Y-108792940D01*
X156290000Y-109675395D01*
X157172455Y-108792940D01*
X157089116Y-108539047D01*
X156524694Y-108333410D01*
X155924542Y-108359421D01*
X155490884Y-108539047D01*
X155407545Y-108792940D01*
X153362000Y-108792940D01*
X153362000Y-105710234D01*
X153461838Y-105469799D01*
X153462162Y-105097833D01*
X153320117Y-104754057D01*
X153057327Y-104490808D01*
X152713799Y-104348162D01*
X152645971Y-104348103D01*
X150196434Y-101898566D01*
X149925541Y-101717561D01*
X149606000Y-101654000D01*
X135428234Y-101654000D01*
X135187799Y-101554162D01*
X134815833Y-101553838D01*
X134472057Y-101695883D01*
X134208808Y-101958673D01*
X134066162Y-102302201D01*
X134065838Y-102674167D01*
X134207883Y-103017943D01*
X134470673Y-103281192D01*
X134814201Y-103423838D01*
X135186167Y-103424162D01*
X135428578Y-103324000D01*
X149260132Y-103324000D01*
X151692000Y-105755868D01*
X151692000Y-112049132D01*
X149641132Y-114100000D01*
X140589000Y-114100000D01*
X140269460Y-114163560D01*
X139998566Y-114344566D01*
X138347566Y-115995566D01*
X138166561Y-116266459D01*
X138103000Y-116586000D01*
X138103000Y-117731465D01*
X137878330Y-117881585D01*
X137668000Y-118196366D01*
X137457670Y-117881585D01*
X137233000Y-117731465D01*
X137233000Y-117475000D01*
X137169439Y-117155459D01*
X136988434Y-116884566D01*
X136099434Y-115995566D01*
X136060483Y-115969540D01*
X135828541Y-115814561D01*
X135509000Y-115751000D01*
X129631868Y-115751000D01*
X127003535Y-113122667D01*
X126904117Y-112882057D01*
X126641327Y-112618808D01*
X126297799Y-112476162D01*
X125925833Y-112475838D01*
X125582057Y-112617883D01*
X125318808Y-112880673D01*
X125176162Y-113224201D01*
X125175838Y-113596167D01*
X125317883Y-113939943D01*
X125580673Y-114203192D01*
X125822910Y-114303778D01*
X128695566Y-117176434D01*
X128966459Y-117357439D01*
X129286000Y-117421000D01*
X135163132Y-117421000D01*
X135509407Y-117767275D01*
X135338330Y-117881585D01*
X135128000Y-118196366D01*
X134917670Y-117881585D01*
X134431489Y-117556729D01*
X133858000Y-117442655D01*
X133284511Y-117556729D01*
X132798330Y-117881585D01*
X132588000Y-118196366D01*
X132377670Y-117881585D01*
X131891489Y-117556729D01*
X131318000Y-117442655D01*
X130744511Y-117556729D01*
X130258330Y-117881585D01*
X129933474Y-118367766D01*
X129819400Y-118941255D01*
X129819400Y-119310745D01*
X129933474Y-119884234D01*
X130258330Y-120370415D01*
X130486689Y-120523000D01*
X119655701Y-120523000D01*
X120014536Y-119658827D01*
X120015462Y-118597828D01*
X119610291Y-117617239D01*
X118860707Y-116866345D01*
X117880827Y-116459464D01*
X116819828Y-116458538D01*
X115839239Y-116863709D01*
X115088345Y-117613293D01*
X114681464Y-118593173D01*
X114680538Y-119654172D01*
X115039530Y-120523000D01*
X106097606Y-120523000D01*
X104902000Y-119327394D01*
X104902000Y-110178795D01*
X106259716Y-110178795D01*
X106508106Y-110779943D01*
X106967637Y-111240278D01*
X107060000Y-111278630D01*
X107060000Y-114930942D01*
X106970057Y-114968106D01*
X106509722Y-115427637D01*
X106260284Y-116028352D01*
X106259716Y-116678795D01*
X106508106Y-117279943D01*
X106967637Y-117740278D01*
X107568352Y-117989716D01*
X108218795Y-117990284D01*
X108819943Y-117741894D01*
X109054715Y-117507532D01*
X111422073Y-117507532D01*
X111520736Y-117774387D01*
X112130461Y-118000908D01*
X112780460Y-117976856D01*
X113269264Y-117774387D01*
X113367927Y-117507532D01*
X112395000Y-116534605D01*
X111422073Y-117507532D01*
X109054715Y-117507532D01*
X109280278Y-117282363D01*
X109529716Y-116681648D01*
X109530232Y-116090461D01*
X110749092Y-116090461D01*
X110773144Y-116740460D01*
X110975613Y-117229264D01*
X111242468Y-117327927D01*
X112215395Y-116355000D01*
X112574605Y-116355000D01*
X113547532Y-117327927D01*
X113814387Y-117229264D01*
X114040908Y-116619539D01*
X114016856Y-115969540D01*
X113814387Y-115480736D01*
X113547532Y-115382073D01*
X112574605Y-116355000D01*
X112215395Y-116355000D01*
X111242468Y-115382073D01*
X110975613Y-115480736D01*
X110749092Y-116090461D01*
X109530232Y-116090461D01*
X109530284Y-116031205D01*
X109281894Y-115430057D01*
X109054703Y-115202468D01*
X111422073Y-115202468D01*
X112395000Y-116175395D01*
X113367927Y-115202468D01*
X113269264Y-114935613D01*
X112659539Y-114709092D01*
X112009540Y-114733144D01*
X111520736Y-114935613D01*
X111422073Y-115202468D01*
X109054703Y-115202468D01*
X108822363Y-114969722D01*
X108730000Y-114931370D01*
X108730000Y-111279058D01*
X108819943Y-111241894D01*
X109054715Y-111007532D01*
X111422073Y-111007532D01*
X111520736Y-111274387D01*
X112130461Y-111500908D01*
X112780460Y-111476856D01*
X113269264Y-111274387D01*
X113367927Y-111007532D01*
X112395000Y-110034605D01*
X111422073Y-111007532D01*
X109054715Y-111007532D01*
X109280278Y-110782363D01*
X109529716Y-110181648D01*
X109530232Y-109590461D01*
X110749092Y-109590461D01*
X110773144Y-110240460D01*
X110975613Y-110729264D01*
X111242468Y-110827927D01*
X112215395Y-109855000D01*
X112574605Y-109855000D01*
X113547532Y-110827927D01*
X113814387Y-110729264D01*
X114040908Y-110119539D01*
X114022435Y-109620306D01*
X119168410Y-109620306D01*
X119194421Y-110220458D01*
X119374047Y-110654116D01*
X119627940Y-110737455D01*
X120510395Y-109855000D01*
X119627940Y-108972545D01*
X119374047Y-109055884D01*
X119168410Y-109620306D01*
X114022435Y-109620306D01*
X114016856Y-109469540D01*
X113814387Y-108980736D01*
X113547532Y-108882073D01*
X112574605Y-109855000D01*
X112215395Y-109855000D01*
X111242468Y-108882073D01*
X110975613Y-108980736D01*
X110749092Y-109590461D01*
X109530232Y-109590461D01*
X109530284Y-109531205D01*
X109281894Y-108930057D01*
X109054703Y-108702468D01*
X111422073Y-108702468D01*
X112395000Y-109675395D01*
X113277455Y-108792940D01*
X119807545Y-108792940D01*
X120690000Y-109675395D01*
X120704143Y-109661253D01*
X120883748Y-109840858D01*
X120869605Y-109855000D01*
X120883748Y-109869143D01*
X120704143Y-110048748D01*
X120690000Y-110034605D01*
X119807545Y-110917060D01*
X119890884Y-111170953D01*
X120455306Y-111376590D01*
X121055458Y-111350579D01*
X121489116Y-111170953D01*
X121572454Y-110917062D01*
X121687086Y-111031694D01*
X121728136Y-110990644D01*
X121850910Y-111181441D01*
X122063110Y-111326431D01*
X122315000Y-111377440D01*
X124065000Y-111377440D01*
X124300317Y-111333162D01*
X124516441Y-111194090D01*
X124661431Y-110981890D01*
X124674559Y-110917060D01*
X131277545Y-110917060D01*
X131360884Y-111170953D01*
X131925306Y-111376590D01*
X132525458Y-111350579D01*
X132959116Y-111170953D01*
X133042455Y-110917060D01*
X132160000Y-110034605D01*
X131277545Y-110917060D01*
X124674559Y-110917060D01*
X124712440Y-110730000D01*
X124712440Y-109620306D01*
X130638410Y-109620306D01*
X130664421Y-110220458D01*
X130844047Y-110654116D01*
X131097940Y-110737455D01*
X131980395Y-109855000D01*
X132339605Y-109855000D01*
X133222060Y-110737455D01*
X133370648Y-110688682D01*
X133379138Y-110709229D01*
X133803537Y-111134370D01*
X134358325Y-111364738D01*
X134959040Y-111365262D01*
X135514229Y-111135862D01*
X135683103Y-110967283D01*
X135820910Y-111181441D01*
X136033110Y-111326431D01*
X136285000Y-111377440D01*
X138035000Y-111377440D01*
X138270317Y-111333162D01*
X138486441Y-111194090D01*
X138631431Y-110981890D01*
X138644559Y-110917060D01*
X142707545Y-110917060D01*
X142790884Y-111170953D01*
X143355306Y-111376590D01*
X143955458Y-111350579D01*
X144389116Y-111170953D01*
X144472455Y-110917060D01*
X143590000Y-110034605D01*
X142707545Y-110917060D01*
X138644559Y-110917060D01*
X138682440Y-110730000D01*
X138682440Y-109620306D01*
X142068410Y-109620306D01*
X142094421Y-110220458D01*
X142274047Y-110654116D01*
X142527940Y-110737455D01*
X143410395Y-109855000D01*
X143769605Y-109855000D01*
X144652060Y-110737455D01*
X144800648Y-110688682D01*
X144809138Y-110709229D01*
X145233537Y-111134370D01*
X145788325Y-111364738D01*
X146389040Y-111365262D01*
X146944229Y-111135862D01*
X147113103Y-110967283D01*
X147250910Y-111181441D01*
X147463110Y-111326431D01*
X147715000Y-111377440D01*
X149465000Y-111377440D01*
X149700317Y-111333162D01*
X149916441Y-111194090D01*
X150061431Y-110981890D01*
X150112440Y-110730000D01*
X150112440Y-108980000D01*
X150068162Y-108744683D01*
X149929090Y-108528559D01*
X149716890Y-108383569D01*
X149465000Y-108332560D01*
X147715000Y-108332560D01*
X147479683Y-108376838D01*
X147263559Y-108515910D01*
X147118569Y-108728110D01*
X147115214Y-108744676D01*
X146946463Y-108575630D01*
X146391675Y-108345262D01*
X145790960Y-108344738D01*
X145235771Y-108574138D01*
X144810630Y-108998537D01*
X144801108Y-109021469D01*
X144652060Y-108972545D01*
X143769605Y-109855000D01*
X143410395Y-109855000D01*
X142527940Y-108972545D01*
X142274047Y-109055884D01*
X142068410Y-109620306D01*
X138682440Y-109620306D01*
X138682440Y-108980000D01*
X138647243Y-108792940D01*
X142707545Y-108792940D01*
X143590000Y-109675395D01*
X144472455Y-108792940D01*
X144389116Y-108539047D01*
X143824694Y-108333410D01*
X143224542Y-108359421D01*
X142790884Y-108539047D01*
X142707545Y-108792940D01*
X138647243Y-108792940D01*
X138638162Y-108744683D01*
X138499090Y-108528559D01*
X138286890Y-108383569D01*
X138035000Y-108332560D01*
X136285000Y-108332560D01*
X136049683Y-108376838D01*
X135833559Y-108515910D01*
X135688569Y-108728110D01*
X135685214Y-108744676D01*
X135516463Y-108575630D01*
X134961675Y-108345262D01*
X134360960Y-108344738D01*
X133805771Y-108574138D01*
X133380630Y-108998537D01*
X133371108Y-109021469D01*
X133222060Y-108972545D01*
X132339605Y-109855000D01*
X131980395Y-109855000D01*
X131097940Y-108972545D01*
X130844047Y-109055884D01*
X130638410Y-109620306D01*
X124712440Y-109620306D01*
X124712440Y-108980000D01*
X124677243Y-108792940D01*
X131277545Y-108792940D01*
X132160000Y-109675395D01*
X133042455Y-108792940D01*
X132959116Y-108539047D01*
X132394694Y-108333410D01*
X131794542Y-108359421D01*
X131360884Y-108539047D01*
X131277545Y-108792940D01*
X124677243Y-108792940D01*
X124668162Y-108744683D01*
X124529090Y-108528559D01*
X124316890Y-108383569D01*
X124065000Y-108332560D01*
X122315000Y-108332560D01*
X122079683Y-108376838D01*
X121863559Y-108515910D01*
X121726006Y-108717226D01*
X121687086Y-108678306D01*
X121572454Y-108792938D01*
X121489116Y-108539047D01*
X120924694Y-108333410D01*
X120324542Y-108359421D01*
X119890884Y-108539047D01*
X119807545Y-108792940D01*
X113277455Y-108792940D01*
X113367927Y-108702468D01*
X113269264Y-108435613D01*
X112659539Y-108209092D01*
X112009540Y-108233144D01*
X111520736Y-108435613D01*
X111422073Y-108702468D01*
X109054703Y-108702468D01*
X108822363Y-108469722D01*
X108221648Y-108220284D01*
X107571205Y-108219716D01*
X106970057Y-108468106D01*
X106509722Y-108927637D01*
X106260284Y-109528352D01*
X106259716Y-110178795D01*
X104902000Y-110178795D01*
X104902000Y-102843040D01*
X104915738Y-102843040D01*
X105145138Y-103398229D01*
X105569537Y-103823370D01*
X106124325Y-104053738D01*
X106725040Y-104054262D01*
X107230963Y-103845218D01*
X107230708Y-104137697D01*
X107486694Y-104757229D01*
X107960278Y-105231640D01*
X108579362Y-105488707D01*
X109249697Y-105489292D01*
X109869229Y-105233306D01*
X110343640Y-104759722D01*
X110600707Y-104140638D01*
X110601292Y-103470303D01*
X110345306Y-102850771D01*
X109871722Y-102376360D01*
X109252638Y-102119293D01*
X108582303Y-102118708D01*
X107962771Y-102374694D01*
X107936126Y-102401293D01*
X107936262Y-102244960D01*
X107706862Y-101689771D01*
X107282463Y-101264630D01*
X106727675Y-101034262D01*
X106126960Y-101033738D01*
X105571771Y-101263138D01*
X105146630Y-101687537D01*
X104916262Y-102242325D01*
X104915738Y-102843040D01*
X104902000Y-102843040D01*
X104902000Y-100212532D01*
X135552073Y-100212532D01*
X135650736Y-100479387D01*
X136260461Y-100705908D01*
X136910460Y-100681856D01*
X137399264Y-100479387D01*
X137497927Y-100212532D01*
X136525000Y-99239605D01*
X135552073Y-100212532D01*
X104902000Y-100212532D01*
X104902000Y-99106060D01*
X105543545Y-99106060D01*
X105626884Y-99359953D01*
X106191306Y-99565590D01*
X106791458Y-99539579D01*
X107225116Y-99359953D01*
X107308455Y-99106060D01*
X106426000Y-98223605D01*
X105543545Y-99106060D01*
X104902000Y-99106060D01*
X104902000Y-97809306D01*
X104904410Y-97809306D01*
X104930421Y-98409458D01*
X105110047Y-98843116D01*
X105363940Y-98926455D01*
X106246395Y-98044000D01*
X105363940Y-97161545D01*
X105110047Y-97244884D01*
X104904410Y-97809306D01*
X104902000Y-97809306D01*
X104902000Y-96981940D01*
X105543545Y-96981940D01*
X106426000Y-97864395D01*
X106440143Y-97850253D01*
X106619748Y-98029858D01*
X106605605Y-98044000D01*
X107488060Y-98926455D01*
X107741953Y-98843116D01*
X107947590Y-98278694D01*
X107944429Y-98205763D01*
X107960278Y-98221640D01*
X108579362Y-98478707D01*
X109249697Y-98479292D01*
X109869229Y-98223306D01*
X110343640Y-97749722D01*
X110432489Y-97535750D01*
X123610000Y-97535750D01*
X123610000Y-98376309D01*
X123706673Y-98609698D01*
X123885301Y-98788327D01*
X124118690Y-98885000D01*
X124809250Y-98885000D01*
X124968000Y-98726250D01*
X124968000Y-97377000D01*
X125222000Y-97377000D01*
X125222000Y-98726250D01*
X125380750Y-98885000D01*
X126071310Y-98885000D01*
X126304699Y-98788327D01*
X126483327Y-98609698D01*
X126580000Y-98376309D01*
X126580000Y-97535750D01*
X128690000Y-97535750D01*
X128690000Y-98376309D01*
X128786673Y-98609698D01*
X128965301Y-98788327D01*
X129198690Y-98885000D01*
X129889250Y-98885000D01*
X130048000Y-98726250D01*
X130048000Y-97377000D01*
X130302000Y-97377000D01*
X130302000Y-98726250D01*
X130460750Y-98885000D01*
X131151310Y-98885000D01*
X131367476Y-98795461D01*
X134879092Y-98795461D01*
X134903144Y-99445460D01*
X135105613Y-99934264D01*
X135372468Y-100032927D01*
X136345395Y-99060000D01*
X136704605Y-99060000D01*
X137677532Y-100032927D01*
X137944387Y-99934264D01*
X138148893Y-99383795D01*
X139389716Y-99383795D01*
X139638106Y-99984943D01*
X140097637Y-100445278D01*
X140698352Y-100694716D01*
X141348795Y-100695284D01*
X141949943Y-100446894D01*
X142410278Y-99987363D01*
X142659716Y-99386648D01*
X142660284Y-98736205D01*
X142442860Y-98210000D01*
X151927560Y-98210000D01*
X151927560Y-99910000D01*
X151971838Y-100145317D01*
X152110910Y-100361441D01*
X152323110Y-100506431D01*
X152575000Y-100557440D01*
X154575000Y-100557440D01*
X154810317Y-100513162D01*
X155026441Y-100374090D01*
X155171431Y-100161890D01*
X155222440Y-99910000D01*
X155222440Y-98210000D01*
X155178162Y-97974683D01*
X155039090Y-97758559D01*
X154826890Y-97613569D01*
X154575000Y-97562560D01*
X152575000Y-97562560D01*
X152339683Y-97606838D01*
X152123559Y-97745910D01*
X151978569Y-97958110D01*
X151927560Y-98210000D01*
X142442860Y-98210000D01*
X142411894Y-98135057D01*
X141952363Y-97674722D01*
X141351648Y-97425284D01*
X140701205Y-97424716D01*
X140100057Y-97673106D01*
X139639722Y-98132637D01*
X139390284Y-98733352D01*
X139389716Y-99383795D01*
X138148893Y-99383795D01*
X138170908Y-99324539D01*
X138146856Y-98674540D01*
X137944387Y-98185736D01*
X137677532Y-98087073D01*
X136704605Y-99060000D01*
X136345395Y-99060000D01*
X135372468Y-98087073D01*
X135105613Y-98185736D01*
X134879092Y-98795461D01*
X131367476Y-98795461D01*
X131384699Y-98788327D01*
X131563327Y-98609698D01*
X131660000Y-98376309D01*
X131660000Y-97907468D01*
X135552073Y-97907468D01*
X136525000Y-98880395D01*
X137497927Y-97907468D01*
X137399264Y-97640613D01*
X136789539Y-97414092D01*
X136139540Y-97438144D01*
X135650736Y-97640613D01*
X135552073Y-97907468D01*
X131660000Y-97907468D01*
X131660000Y-97535750D01*
X131501250Y-97377000D01*
X130302000Y-97377000D01*
X130048000Y-97377000D01*
X128848750Y-97377000D01*
X128690000Y-97535750D01*
X126580000Y-97535750D01*
X126421250Y-97377000D01*
X125222000Y-97377000D01*
X124968000Y-97377000D01*
X123768750Y-97377000D01*
X123610000Y-97535750D01*
X110432489Y-97535750D01*
X110600707Y-97130638D01*
X110601292Y-96460303D01*
X110462207Y-96123691D01*
X123610000Y-96123691D01*
X123610000Y-96964250D01*
X123768750Y-97123000D01*
X124968000Y-97123000D01*
X124968000Y-95773750D01*
X125222000Y-95773750D01*
X125222000Y-97123000D01*
X126421250Y-97123000D01*
X126580000Y-96964250D01*
X126580000Y-96123691D01*
X128690000Y-96123691D01*
X128690000Y-96964250D01*
X128848750Y-97123000D01*
X130048000Y-97123000D01*
X130048000Y-95773750D01*
X130302000Y-95773750D01*
X130302000Y-97123000D01*
X131501250Y-97123000D01*
X131660000Y-96964250D01*
X131660000Y-96123691D01*
X131563327Y-95890302D01*
X131384699Y-95711673D01*
X131151310Y-95615000D01*
X130460750Y-95615000D01*
X130302000Y-95773750D01*
X130048000Y-95773750D01*
X129889250Y-95615000D01*
X129198690Y-95615000D01*
X128965301Y-95711673D01*
X128786673Y-95890302D01*
X128690000Y-96123691D01*
X126580000Y-96123691D01*
X126483327Y-95890302D01*
X126304699Y-95711673D01*
X126071310Y-95615000D01*
X125380750Y-95615000D01*
X125222000Y-95773750D01*
X124968000Y-95773750D01*
X124809250Y-95615000D01*
X124118690Y-95615000D01*
X123885301Y-95711673D01*
X123706673Y-95890302D01*
X123610000Y-96123691D01*
X110462207Y-96123691D01*
X110345306Y-95840771D01*
X109871722Y-95366360D01*
X109252638Y-95109293D01*
X108582303Y-95108708D01*
X107962771Y-95364694D01*
X107488360Y-95838278D01*
X107231293Y-96457362D01*
X107231041Y-96746098D01*
X107225116Y-96728047D01*
X106660694Y-96522410D01*
X106060542Y-96548421D01*
X105626884Y-96728047D01*
X105543545Y-96981940D01*
X104902000Y-96981940D01*
X104902000Y-86725000D01*
X123597560Y-86725000D01*
X123597560Y-88725000D01*
X123641838Y-88960317D01*
X123780910Y-89176441D01*
X123993110Y-89321431D01*
X124245000Y-89372440D01*
X124260000Y-89372440D01*
X124260000Y-91602560D01*
X124245000Y-91602560D01*
X124009683Y-91646838D01*
X123793559Y-91785910D01*
X123648569Y-91998110D01*
X123597560Y-92250000D01*
X123597560Y-94250000D01*
X123641838Y-94485317D01*
X123780910Y-94701441D01*
X123993110Y-94846431D01*
X124245000Y-94897440D01*
X125945000Y-94897440D01*
X126180317Y-94853162D01*
X126396441Y-94714090D01*
X126541431Y-94501890D01*
X126592440Y-94250000D01*
X126592440Y-92250000D01*
X126548162Y-92014683D01*
X126409090Y-91798559D01*
X126196890Y-91653569D01*
X125945000Y-91602560D01*
X125930000Y-91602560D01*
X125930000Y-89372440D01*
X125945000Y-89372440D01*
X126180317Y-89328162D01*
X126396441Y-89189090D01*
X126541431Y-88976890D01*
X126592440Y-88725000D01*
X126592440Y-86725000D01*
X128677560Y-86725000D01*
X128677560Y-88725000D01*
X128721838Y-88960317D01*
X128860910Y-89176441D01*
X129073110Y-89321431D01*
X129325000Y-89372440D01*
X129340000Y-89372440D01*
X129340000Y-91602560D01*
X129325000Y-91602560D01*
X129089683Y-91646838D01*
X128873559Y-91785910D01*
X128728569Y-91998110D01*
X128677560Y-92250000D01*
X128677560Y-94250000D01*
X128721838Y-94485317D01*
X128860910Y-94701441D01*
X129073110Y-94846431D01*
X129325000Y-94897440D01*
X131025000Y-94897440D01*
X131260317Y-94853162D01*
X131476441Y-94714090D01*
X131621431Y-94501890D01*
X131672440Y-94250000D01*
X131672440Y-93712532D01*
X135552073Y-93712532D01*
X135650736Y-93979387D01*
X136260461Y-94205908D01*
X136910460Y-94181856D01*
X137399264Y-93979387D01*
X137497927Y-93712532D01*
X136525000Y-92739605D01*
X135552073Y-93712532D01*
X131672440Y-93712532D01*
X131672440Y-92295461D01*
X134879092Y-92295461D01*
X134903144Y-92945460D01*
X135105613Y-93434264D01*
X135372468Y-93532927D01*
X136345395Y-92560000D01*
X136704605Y-92560000D01*
X137677532Y-93532927D01*
X137944387Y-93434264D01*
X138170908Y-92824539D01*
X138146856Y-92174540D01*
X137944387Y-91685736D01*
X137677532Y-91587073D01*
X136704605Y-92560000D01*
X136345395Y-92560000D01*
X135372468Y-91587073D01*
X135105613Y-91685736D01*
X134879092Y-92295461D01*
X131672440Y-92295461D01*
X131672440Y-92250000D01*
X131628162Y-92014683D01*
X131489090Y-91798559D01*
X131276890Y-91653569D01*
X131025000Y-91602560D01*
X131010000Y-91602560D01*
X131010000Y-91407468D01*
X135552073Y-91407468D01*
X136525000Y-92380395D01*
X137497927Y-91407468D01*
X137399264Y-91140613D01*
X136789539Y-90914092D01*
X136139540Y-90938144D01*
X135650736Y-91140613D01*
X135552073Y-91407468D01*
X131010000Y-91407468D01*
X131010000Y-89372440D01*
X131025000Y-89372440D01*
X131260317Y-89328162D01*
X131476441Y-89189090D01*
X131621431Y-88976890D01*
X131672440Y-88725000D01*
X131672440Y-86725000D01*
X131628162Y-86489683D01*
X131489090Y-86273559D01*
X131443681Y-86242532D01*
X135552073Y-86242532D01*
X135650736Y-86509387D01*
X136260461Y-86735908D01*
X136910460Y-86711856D01*
X137399264Y-86509387D01*
X137497927Y-86242532D01*
X136525000Y-85269605D01*
X135552073Y-86242532D01*
X131443681Y-86242532D01*
X131276890Y-86128569D01*
X131025000Y-86077560D01*
X129325000Y-86077560D01*
X129089683Y-86121838D01*
X128873559Y-86260910D01*
X128728569Y-86473110D01*
X128677560Y-86725000D01*
X126592440Y-86725000D01*
X126548162Y-86489683D01*
X126409090Y-86273559D01*
X126196890Y-86128569D01*
X125945000Y-86077560D01*
X124245000Y-86077560D01*
X124009683Y-86121838D01*
X123793559Y-86260910D01*
X123648569Y-86473110D01*
X123597560Y-86725000D01*
X104902000Y-86725000D01*
X104902000Y-75325000D01*
X109602560Y-75325000D01*
X109602560Y-77075000D01*
X109646838Y-77310317D01*
X109785910Y-77526441D01*
X109987226Y-77663994D01*
X109948306Y-77702914D01*
X110062938Y-77817546D01*
X109809047Y-77900884D01*
X109603410Y-78465306D01*
X109629421Y-79065458D01*
X109809047Y-79499116D01*
X110062940Y-79582455D01*
X110945395Y-78700000D01*
X110931253Y-78685858D01*
X111110858Y-78506253D01*
X111125000Y-78520395D01*
X111139143Y-78506253D01*
X111318748Y-78685858D01*
X111304605Y-78700000D01*
X112187060Y-79582455D01*
X112440953Y-79499116D01*
X112646590Y-78934694D01*
X112620579Y-78334542D01*
X112440953Y-77900884D01*
X112187062Y-77817546D01*
X112301694Y-77702914D01*
X112260644Y-77661864D01*
X112451441Y-77539090D01*
X112596431Y-77326890D01*
X112647440Y-77075000D01*
X112647440Y-75325000D01*
X112603162Y-75089683D01*
X112464090Y-74873559D01*
X112251890Y-74728569D01*
X112000000Y-74677560D01*
X110250000Y-74677560D01*
X110014683Y-74721838D01*
X109798559Y-74860910D01*
X109653569Y-75073110D01*
X109602560Y-75325000D01*
X104902000Y-75325000D01*
X104902000Y-71172606D01*
X106097606Y-69977000D01*
X116099360Y-69977000D01*
X115951464Y-70333173D01*
M02*
