G04 #@! TF.FileFunction,Soldermask,Top*
%FSLAX46Y46*%
G04 Gerber Fmt 4.6, Leading zero omitted, Abs format (unit mm)*
G04 Created by KiCad (PCBNEW 4.0.7) date 03/25/18 23:56:26*
%MOMM*%
%LPD*%
G01*
G04 APERTURE LIST*
%ADD10C,0.100000*%
%ADD11C,1.727200*%
%ADD12O,1.727200X1.727200*%
%ADD13O,1.727200X2.032000*%
%ADD14C,4.064000*%
%ADD15C,2.100000*%
%ADD16C,1.750000*%
%ADD17R,1.700000X2.000000*%
%ADD18C,2.000000*%
%ADD19R,1.750000X1.750000*%
%ADD20R,1.700000X1.700000*%
%ADD21O,1.700000X1.700000*%
%ADD22R,2.000000X1.700000*%
G04 APERTURE END LIST*
D10*
D11*
X197358000Y-114046000D03*
D12*
X199898000Y-114046000D03*
X197358000Y-111506000D03*
X199898000Y-111506000D03*
X197358000Y-108966000D03*
X199898000Y-108966000D03*
X197358000Y-106426000D03*
X199898000Y-106426000D03*
X197358000Y-103886000D03*
X199898000Y-103886000D03*
X197358000Y-101346000D03*
X199898000Y-101346000D03*
X197358000Y-98806000D03*
X199898000Y-98806000D03*
X197358000Y-96266000D03*
X199898000Y-96266000D03*
X197358000Y-93726000D03*
X199898000Y-93726000D03*
X197358000Y-91186000D03*
X199898000Y-91186000D03*
X197358000Y-88646000D03*
X199898000Y-88646000D03*
X197358000Y-86106000D03*
X199898000Y-86106000D03*
X197358000Y-83566000D03*
X199898000Y-83566000D03*
X197358000Y-81026000D03*
X199898000Y-81026000D03*
X197358000Y-78486000D03*
X199898000Y-78486000D03*
X197358000Y-75946000D03*
X199898000Y-75946000D03*
X197358000Y-73406000D03*
X199898000Y-73406000D03*
X197358000Y-70866000D03*
X199898000Y-70866000D03*
D13*
X131318000Y-119126000D03*
X133858000Y-119126000D03*
X136398000Y-119126000D03*
X138938000Y-119126000D03*
X141478000Y-119126000D03*
X144018000Y-119126000D03*
X146558000Y-119126000D03*
X149098000Y-119126000D03*
X154178000Y-119126000D03*
X156718000Y-119126000D03*
X159258000Y-119126000D03*
X161798000Y-119126000D03*
X164338000Y-119126000D03*
X166878000Y-119126000D03*
X169418000Y-119126000D03*
X171958000Y-119126000D03*
X177038000Y-119126000D03*
X179578000Y-119126000D03*
X182118000Y-119126000D03*
X184658000Y-119126000D03*
X187198000Y-119126000D03*
X189738000Y-119126000D03*
X192278000Y-119126000D03*
X194818000Y-119126000D03*
X122174000Y-70866000D03*
X124714000Y-70866000D03*
X127254000Y-70866000D03*
X129794000Y-70866000D03*
X132334000Y-70866000D03*
X134874000Y-70866000D03*
X137414000Y-70866000D03*
X139954000Y-70866000D03*
X142494000Y-70866000D03*
X145034000Y-70866000D03*
X149098000Y-70866000D03*
X151638000Y-70866000D03*
X154178000Y-70866000D03*
X156718000Y-70866000D03*
X159258000Y-70866000D03*
X161798000Y-70866000D03*
X164338000Y-70866000D03*
X166878000Y-70866000D03*
X171958000Y-70866000D03*
X174498000Y-70866000D03*
X177038000Y-70866000D03*
X179578000Y-70866000D03*
X182118000Y-70866000D03*
X184658000Y-70866000D03*
X187198000Y-70866000D03*
X189738000Y-70866000D03*
D14*
X117348000Y-119126000D03*
X199898000Y-119126000D03*
X118618000Y-70866000D03*
X193548000Y-70866000D03*
D15*
X108916000Y-103804000D03*
D16*
X106426000Y-102544000D03*
X106426000Y-98044000D03*
D15*
X108916000Y-96794000D03*
D17*
X130175000Y-87725000D03*
X130175000Y-83725000D03*
X125095000Y-87725000D03*
X125095000Y-83725000D03*
X130175000Y-97250000D03*
X130175000Y-93250000D03*
X125095000Y-97250000D03*
X125095000Y-93250000D03*
D18*
X141025000Y-99060000D03*
X136525000Y-99060000D03*
X141025000Y-92560000D03*
X136525000Y-92560000D03*
X141025000Y-85090000D03*
X136525000Y-85090000D03*
X141025000Y-78590000D03*
X136525000Y-78590000D03*
D19*
X190500000Y-80010000D03*
D16*
X190500000Y-82510000D03*
X190500000Y-85010000D03*
X190500000Y-87510000D03*
X190500000Y-90010000D03*
X190500000Y-92510000D03*
X190500000Y-95010000D03*
X190500000Y-97510000D03*
X190500000Y-100010000D03*
X190500000Y-102510000D03*
D19*
X137160000Y-109855000D03*
D16*
X134660000Y-109855000D03*
X132160000Y-109855000D03*
D19*
X148590000Y-109855000D03*
D16*
X146090000Y-109855000D03*
X143590000Y-109855000D03*
D19*
X181610000Y-100330000D03*
D16*
X181610000Y-102830000D03*
X181610000Y-105330000D03*
X181610000Y-107830000D03*
X181610000Y-110330000D03*
X181610000Y-112830000D03*
D19*
X161290000Y-109855000D03*
D16*
X158790000Y-109855000D03*
X156290000Y-109855000D03*
D19*
X172720000Y-109855000D03*
D16*
X170220000Y-109855000D03*
X167720000Y-109855000D03*
D19*
X181610000Y-80010000D03*
D16*
X181610000Y-82510000D03*
X181610000Y-85010000D03*
X181610000Y-87510000D03*
D19*
X172720000Y-80010000D03*
D16*
X170220000Y-80010000D03*
X167720000Y-80010000D03*
X165220000Y-80010000D03*
D18*
X107895000Y-109855000D03*
X112395000Y-109855000D03*
X107895000Y-116355000D03*
X112395000Y-116355000D03*
D20*
X167005000Y-89789000D03*
D21*
X169545000Y-89789000D03*
X167005000Y-92329000D03*
X169545000Y-92329000D03*
X167005000Y-94869000D03*
X169545000Y-94869000D03*
X167005000Y-97409000D03*
X169545000Y-97409000D03*
D22*
X153575000Y-99060000D03*
X157575000Y-99060000D03*
X153575000Y-94615000D03*
X157575000Y-94615000D03*
X153575000Y-90170000D03*
X157575000Y-90170000D03*
X125635000Y-78105000D03*
X129635000Y-78105000D03*
D19*
X123190000Y-109855000D03*
D16*
X120690000Y-109855000D03*
D19*
X111125000Y-76200000D03*
D16*
X111125000Y-78700000D03*
X111125000Y-81200000D03*
X111125000Y-83700000D03*
M02*
