G04 #@! TF.FileFunction,Legend,Top*
%FSLAX46Y46*%
G04 Gerber Fmt 4.6, Leading zero omitted, Abs format (unit mm)*
G04 Created by KiCad (PCBNEW 4.0.7) date 03/25/18 23:56:26*
%MOMM*%
%LPD*%
G01*
G04 APERTURE LIST*
%ADD10C,0.100000*%
%ADD11C,0.150000*%
%ADD12C,0.200000*%
%ADD13C,0.120000*%
G04 APERTURE END LIST*
D10*
D11*
X104140000Y-104140000D02*
X107315000Y-104140000D01*
X104140000Y-96520000D02*
X104140000Y-104140000D01*
X104775000Y-96520000D02*
X104140000Y-96520000D01*
X107315000Y-96520000D02*
X104775000Y-96520000D01*
X109855000Y-102235000D02*
X109855000Y-98425000D01*
D12*
X185872381Y-82716666D02*
X185396190Y-83050000D01*
X185872381Y-83288095D02*
X184872381Y-83288095D01*
X184872381Y-82907142D01*
X184920000Y-82811904D01*
X184967619Y-82764285D01*
X185062857Y-82716666D01*
X185205714Y-82716666D01*
X185300952Y-82764285D01*
X185348571Y-82811904D01*
X185396190Y-82907142D01*
X185396190Y-83288095D01*
X184872381Y-82383333D02*
X185872381Y-81716666D01*
X184872381Y-81716666D02*
X185872381Y-82383333D01*
X184872381Y-85851905D02*
X184872381Y-85280476D01*
X185872381Y-85566191D02*
X184872381Y-85566191D01*
X184872381Y-85042381D02*
X185872381Y-84375714D01*
X184872381Y-84375714D02*
X185872381Y-85042381D01*
X166878095Y-83272381D02*
X167449524Y-83272381D01*
X167163809Y-84272381D02*
X167163809Y-83272381D01*
X167687619Y-83272381D02*
X168354286Y-84272381D01*
X168354286Y-83272381D02*
X167687619Y-84272381D01*
X170013334Y-84272381D02*
X169680000Y-83796190D01*
X169441905Y-84272381D02*
X169441905Y-83272381D01*
X169822858Y-83272381D01*
X169918096Y-83320000D01*
X169965715Y-83367619D01*
X170013334Y-83462857D01*
X170013334Y-83605714D01*
X169965715Y-83700952D01*
X169918096Y-83748571D01*
X169822858Y-83796190D01*
X169441905Y-83796190D01*
X170346667Y-83272381D02*
X171013334Y-84272381D01*
X171013334Y-83272381D02*
X170346667Y-84272381D01*
X123777857Y-80462381D02*
X123777857Y-79462381D01*
X124015952Y-79462381D01*
X124158810Y-79510000D01*
X124254048Y-79605238D01*
X124301667Y-79700476D01*
X124349286Y-79890952D01*
X124349286Y-80033810D01*
X124301667Y-80224286D01*
X124254048Y-80319524D01*
X124158810Y-80414762D01*
X124015952Y-80462381D01*
X123777857Y-80462381D01*
X125301667Y-80462381D02*
X124730238Y-80462381D01*
X125015952Y-80462381D02*
X125015952Y-79462381D01*
X124920714Y-79605238D01*
X124825476Y-79700476D01*
X124730238Y-79748095D01*
X125682619Y-79557619D02*
X125730238Y-79510000D01*
X125825476Y-79462381D01*
X126063572Y-79462381D01*
X126158810Y-79510000D01*
X126206429Y-79557619D01*
X126254048Y-79652857D01*
X126254048Y-79748095D01*
X126206429Y-79890952D01*
X125635000Y-80462381D01*
X126254048Y-80462381D01*
X128015953Y-80462381D02*
X127682619Y-79986190D01*
X127444524Y-80462381D02*
X127444524Y-79462381D01*
X127825477Y-79462381D01*
X127920715Y-79510000D01*
X127968334Y-79557619D01*
X128015953Y-79652857D01*
X128015953Y-79795714D01*
X127968334Y-79890952D01*
X127920715Y-79938571D01*
X127825477Y-79986190D01*
X127444524Y-79986190D01*
X128444524Y-79938571D02*
X128777858Y-79938571D01*
X128920715Y-80462381D02*
X128444524Y-80462381D01*
X128444524Y-79462381D01*
X128920715Y-79462381D01*
X129301667Y-80414762D02*
X129444524Y-80462381D01*
X129682620Y-80462381D01*
X129777858Y-80414762D01*
X129825477Y-80367143D01*
X129873096Y-80271905D01*
X129873096Y-80176667D01*
X129825477Y-80081429D01*
X129777858Y-80033810D01*
X129682620Y-79986190D01*
X129492143Y-79938571D01*
X129396905Y-79890952D01*
X129349286Y-79843333D01*
X129301667Y-79748095D01*
X129301667Y-79652857D01*
X129349286Y-79557619D01*
X129396905Y-79510000D01*
X129492143Y-79462381D01*
X129730239Y-79462381D01*
X129873096Y-79510000D01*
X130301667Y-79938571D02*
X130635001Y-79938571D01*
X130777858Y-80462381D02*
X130301667Y-80462381D01*
X130301667Y-79462381D01*
X130777858Y-79462381D01*
X131063572Y-79462381D02*
X131635001Y-79462381D01*
X131349286Y-80462381D02*
X131349286Y-79462381D01*
X114355714Y-84224762D02*
X114498571Y-84272381D01*
X114736667Y-84272381D01*
X114831905Y-84224762D01*
X114879524Y-84177143D01*
X114927143Y-84081905D01*
X114927143Y-83986667D01*
X114879524Y-83891429D01*
X114831905Y-83843810D01*
X114736667Y-83796190D01*
X114546190Y-83748571D01*
X114450952Y-83700952D01*
X114403333Y-83653333D01*
X114355714Y-83558095D01*
X114355714Y-83462857D01*
X114403333Y-83367619D01*
X114450952Y-83320000D01*
X114546190Y-83272381D01*
X114784286Y-83272381D01*
X114927143Y-83320000D01*
X115355714Y-84272381D02*
X115355714Y-83272381D01*
X115593809Y-83272381D01*
X115736667Y-83320000D01*
X115831905Y-83415238D01*
X115879524Y-83510476D01*
X115927143Y-83700952D01*
X115927143Y-83843810D01*
X115879524Y-84034286D01*
X115831905Y-84129524D01*
X115736667Y-84224762D01*
X115593809Y-84272381D01*
X115355714Y-84272381D01*
X116308095Y-83986667D02*
X116784286Y-83986667D01*
X116212857Y-84272381D02*
X116546190Y-83272381D01*
X116879524Y-84272381D01*
X114379524Y-81684762D02*
X114522381Y-81732381D01*
X114760477Y-81732381D01*
X114855715Y-81684762D01*
X114903334Y-81637143D01*
X114950953Y-81541905D01*
X114950953Y-81446667D01*
X114903334Y-81351429D01*
X114855715Y-81303810D01*
X114760477Y-81256190D01*
X114570000Y-81208571D01*
X114474762Y-81160952D01*
X114427143Y-81113333D01*
X114379524Y-81018095D01*
X114379524Y-80922857D01*
X114427143Y-80827619D01*
X114474762Y-80780000D01*
X114570000Y-80732381D01*
X114808096Y-80732381D01*
X114950953Y-80780000D01*
X115950953Y-81637143D02*
X115903334Y-81684762D01*
X115760477Y-81732381D01*
X115665239Y-81732381D01*
X115522381Y-81684762D01*
X115427143Y-81589524D01*
X115379524Y-81494286D01*
X115331905Y-81303810D01*
X115331905Y-81160952D01*
X115379524Y-80970476D01*
X115427143Y-80875238D01*
X115522381Y-80780000D01*
X115665239Y-80732381D01*
X115760477Y-80732381D01*
X115903334Y-80780000D01*
X115950953Y-80827619D01*
X116855715Y-81732381D02*
X116379524Y-81732381D01*
X116379524Y-80732381D01*
X114808096Y-78240000D02*
X114712858Y-78192381D01*
X114570001Y-78192381D01*
X114427143Y-78240000D01*
X114331905Y-78335238D01*
X114284286Y-78430476D01*
X114236667Y-78620952D01*
X114236667Y-78763810D01*
X114284286Y-78954286D01*
X114331905Y-79049524D01*
X114427143Y-79144762D01*
X114570001Y-79192381D01*
X114665239Y-79192381D01*
X114808096Y-79144762D01*
X114855715Y-79097143D01*
X114855715Y-78763810D01*
X114665239Y-78763810D01*
X115284286Y-79192381D02*
X115284286Y-78192381D01*
X115855715Y-79192381D01*
X115855715Y-78192381D01*
X116331905Y-79192381D02*
X116331905Y-78192381D01*
X116570000Y-78192381D01*
X116712858Y-78240000D01*
X116808096Y-78335238D01*
X116855715Y-78430476D01*
X116903334Y-78620952D01*
X116903334Y-78763810D01*
X116855715Y-78954286D01*
X116808096Y-79049524D01*
X116712858Y-79144762D01*
X116570000Y-79192381D01*
X116331905Y-79192381D01*
X114331905Y-75652381D02*
X114950953Y-75652381D01*
X114617619Y-76033333D01*
X114760477Y-76033333D01*
X114855715Y-76080952D01*
X114903334Y-76128571D01*
X114950953Y-76223810D01*
X114950953Y-76461905D01*
X114903334Y-76557143D01*
X114855715Y-76604762D01*
X114760477Y-76652381D01*
X114474762Y-76652381D01*
X114379524Y-76604762D01*
X114331905Y-76557143D01*
X115236667Y-75652381D02*
X115570000Y-76652381D01*
X115903334Y-75652381D01*
X116141429Y-75652381D02*
X116760477Y-75652381D01*
X116427143Y-76033333D01*
X116570001Y-76033333D01*
X116665239Y-76080952D01*
X116712858Y-76128571D01*
X116760477Y-76223810D01*
X116760477Y-76461905D01*
X116712858Y-76557143D01*
X116665239Y-76604762D01*
X116570001Y-76652381D01*
X116284286Y-76652381D01*
X116189048Y-76604762D01*
X116141429Y-76557143D01*
X169465714Y-113831667D02*
X169941905Y-113831667D01*
X169370476Y-114117381D02*
X169703809Y-113117381D01*
X170037143Y-114117381D01*
X170275238Y-113117381D02*
X170894286Y-113117381D01*
X170560952Y-113498333D01*
X170703810Y-113498333D01*
X170799048Y-113545952D01*
X170846667Y-113593571D01*
X170894286Y-113688810D01*
X170894286Y-113926905D01*
X170846667Y-114022143D01*
X170799048Y-114069762D01*
X170703810Y-114117381D01*
X170418095Y-114117381D01*
X170322857Y-114069762D01*
X170275238Y-114022143D01*
X158035714Y-113831667D02*
X158511905Y-113831667D01*
X157940476Y-114117381D02*
X158273809Y-113117381D01*
X158607143Y-114117381D01*
X158892857Y-113212619D02*
X158940476Y-113165000D01*
X159035714Y-113117381D01*
X159273810Y-113117381D01*
X159369048Y-113165000D01*
X159416667Y-113212619D01*
X159464286Y-113307857D01*
X159464286Y-113403095D01*
X159416667Y-113545952D01*
X158845238Y-114117381D01*
X159464286Y-114117381D01*
X145335714Y-113831667D02*
X145811905Y-113831667D01*
X145240476Y-114117381D02*
X145573809Y-113117381D01*
X145907143Y-114117381D01*
X146764286Y-114117381D02*
X146192857Y-114117381D01*
X146478571Y-114117381D02*
X146478571Y-113117381D01*
X146383333Y-113260238D01*
X146288095Y-113355476D01*
X146192857Y-113403095D01*
X133905714Y-113831667D02*
X134381905Y-113831667D01*
X133810476Y-114117381D02*
X134143809Y-113117381D01*
X134477143Y-114117381D01*
X135000952Y-113117381D02*
X135096191Y-113117381D01*
X135191429Y-113165000D01*
X135239048Y-113212619D01*
X135286667Y-113307857D01*
X135334286Y-113498333D01*
X135334286Y-113736429D01*
X135286667Y-113926905D01*
X135239048Y-114022143D01*
X135191429Y-114069762D01*
X135096191Y-114117381D01*
X135000952Y-114117381D01*
X134905714Y-114069762D01*
X134858095Y-114022143D01*
X134810476Y-113926905D01*
X134762857Y-113736429D01*
X134762857Y-113498333D01*
X134810476Y-113307857D01*
X134858095Y-113212619D01*
X134905714Y-113165000D01*
X135000952Y-113117381D01*
X160575858Y-94369000D02*
X160480620Y-94321381D01*
X160337763Y-94321381D01*
X160194905Y-94369000D01*
X160099667Y-94464238D01*
X160052048Y-94559476D01*
X160004429Y-94749952D01*
X160004429Y-94892810D01*
X160052048Y-95083286D01*
X160099667Y-95178524D01*
X160194905Y-95273762D01*
X160337763Y-95321381D01*
X160433001Y-95321381D01*
X160575858Y-95273762D01*
X160623477Y-95226143D01*
X160623477Y-94892810D01*
X160433001Y-94892810D01*
X161052048Y-95321381D02*
X161052048Y-94321381D01*
X161433001Y-94321381D01*
X161528239Y-94369000D01*
X161575858Y-94416619D01*
X161623477Y-94511857D01*
X161623477Y-94654714D01*
X161575858Y-94749952D01*
X161528239Y-94797571D01*
X161433001Y-94845190D01*
X161052048Y-94845190D01*
X162052048Y-95321381D02*
X162052048Y-94321381D01*
X162718714Y-94321381D02*
X162909191Y-94321381D01*
X163004429Y-94369000D01*
X163099667Y-94464238D01*
X163147286Y-94654714D01*
X163147286Y-94988048D01*
X163099667Y-95178524D01*
X163004429Y-95273762D01*
X162909191Y-95321381D01*
X162718714Y-95321381D01*
X162623476Y-95273762D01*
X162528238Y-95178524D01*
X162480619Y-94988048D01*
X162480619Y-94654714D01*
X162528238Y-94464238D01*
X162623476Y-94369000D01*
X162718714Y-94321381D01*
X164290143Y-94416619D02*
X164337762Y-94369000D01*
X164433000Y-94321381D01*
X164671096Y-94321381D01*
X164766334Y-94369000D01*
X164813953Y-94416619D01*
X164861572Y-94511857D01*
X164861572Y-94607095D01*
X164813953Y-94749952D01*
X164242524Y-95321381D01*
X164861572Y-95321381D01*
X160575858Y-91829000D02*
X160480620Y-91781381D01*
X160337763Y-91781381D01*
X160194905Y-91829000D01*
X160099667Y-91924238D01*
X160052048Y-92019476D01*
X160004429Y-92209952D01*
X160004429Y-92352810D01*
X160052048Y-92543286D01*
X160099667Y-92638524D01*
X160194905Y-92733762D01*
X160337763Y-92781381D01*
X160433001Y-92781381D01*
X160575858Y-92733762D01*
X160623477Y-92686143D01*
X160623477Y-92352810D01*
X160433001Y-92352810D01*
X161052048Y-92781381D02*
X161052048Y-91781381D01*
X161433001Y-91781381D01*
X161528239Y-91829000D01*
X161575858Y-91876619D01*
X161623477Y-91971857D01*
X161623477Y-92114714D01*
X161575858Y-92209952D01*
X161528239Y-92257571D01*
X161433001Y-92305190D01*
X161052048Y-92305190D01*
X162052048Y-92781381D02*
X162052048Y-91781381D01*
X162718714Y-91781381D02*
X162909191Y-91781381D01*
X163004429Y-91829000D01*
X163099667Y-91924238D01*
X163147286Y-92114714D01*
X163147286Y-92448048D01*
X163099667Y-92638524D01*
X163004429Y-92733762D01*
X162909191Y-92781381D01*
X162718714Y-92781381D01*
X162623476Y-92733762D01*
X162528238Y-92638524D01*
X162480619Y-92448048D01*
X162480619Y-92114714D01*
X162528238Y-91924238D01*
X162623476Y-91829000D01*
X162718714Y-91781381D01*
X164528238Y-91781381D02*
X164623477Y-91781381D01*
X164718715Y-91829000D01*
X164766334Y-91876619D01*
X164813953Y-91971857D01*
X164861572Y-92162333D01*
X164861572Y-92400429D01*
X164813953Y-92590905D01*
X164766334Y-92686143D01*
X164718715Y-92733762D01*
X164623477Y-92781381D01*
X164528238Y-92781381D01*
X164433000Y-92733762D01*
X164385381Y-92686143D01*
X164337762Y-92590905D01*
X164290143Y-92400429D01*
X164290143Y-92162333D01*
X164337762Y-91971857D01*
X164385381Y-91876619D01*
X164433000Y-91829000D01*
X164528238Y-91781381D01*
X172085095Y-96988381D02*
X172656524Y-96988381D01*
X172370809Y-97988381D02*
X172370809Y-96988381D01*
X172894619Y-96988381D02*
X173561286Y-97988381D01*
X173561286Y-96988381D02*
X172894619Y-97988381D01*
X163409334Y-90368381D02*
X163076000Y-89892190D01*
X162837905Y-90368381D02*
X162837905Y-89368381D01*
X163218858Y-89368381D01*
X163314096Y-89416000D01*
X163361715Y-89463619D01*
X163409334Y-89558857D01*
X163409334Y-89701714D01*
X163361715Y-89796952D01*
X163314096Y-89844571D01*
X163218858Y-89892190D01*
X162837905Y-89892190D01*
X163742667Y-89368381D02*
X164409334Y-90368381D01*
X164409334Y-89368381D02*
X163742667Y-90368381D01*
X172680381Y-92781381D02*
X172347047Y-92305190D01*
X172108952Y-92781381D02*
X172108952Y-91781381D01*
X172489905Y-91781381D01*
X172585143Y-91829000D01*
X172632762Y-91876619D01*
X172680381Y-91971857D01*
X172680381Y-92114714D01*
X172632762Y-92209952D01*
X172585143Y-92257571D01*
X172489905Y-92305190D01*
X172108952Y-92305190D01*
X173061333Y-92733762D02*
X173204190Y-92781381D01*
X173442286Y-92781381D01*
X173537524Y-92733762D01*
X173585143Y-92686143D01*
X173632762Y-92590905D01*
X173632762Y-92495667D01*
X173585143Y-92400429D01*
X173537524Y-92352810D01*
X173442286Y-92305190D01*
X173251809Y-92257571D01*
X173156571Y-92209952D01*
X173108952Y-92162333D01*
X173061333Y-92067095D01*
X173061333Y-91971857D01*
X173108952Y-91876619D01*
X173156571Y-91829000D01*
X173251809Y-91781381D01*
X173489905Y-91781381D01*
X173632762Y-91829000D01*
X173918476Y-91781381D02*
X174489905Y-91781381D01*
X174204190Y-92781381D02*
X174204190Y-91781381D01*
X172521762Y-95226143D02*
X172474143Y-95273762D01*
X172331286Y-95321381D01*
X172236048Y-95321381D01*
X172093190Y-95273762D01*
X171997952Y-95178524D01*
X171950333Y-95083286D01*
X171902714Y-94892810D01*
X171902714Y-94749952D01*
X171950333Y-94559476D01*
X171997952Y-94464238D01*
X172093190Y-94369000D01*
X172236048Y-94321381D01*
X172331286Y-94321381D01*
X172474143Y-94369000D01*
X172521762Y-94416619D01*
X172950333Y-95321381D02*
X172950333Y-94321381D01*
X172950333Y-94797571D02*
X173521762Y-94797571D01*
X173521762Y-95321381D02*
X173521762Y-94321381D01*
X173759857Y-95416619D02*
X174521762Y-95416619D01*
X174759857Y-95321381D02*
X174759857Y-94321381D01*
X175140810Y-94321381D01*
X175236048Y-94369000D01*
X175283667Y-94416619D01*
X175331286Y-94511857D01*
X175331286Y-94654714D01*
X175283667Y-94749952D01*
X175236048Y-94797571D01*
X175140810Y-94845190D01*
X174759857Y-94845190D01*
X175759857Y-95321381D02*
X175759857Y-94321381D01*
X175997952Y-94321381D01*
X176140810Y-94369000D01*
X176236048Y-94464238D01*
X176283667Y-94559476D01*
X176331286Y-94749952D01*
X176331286Y-94892810D01*
X176283667Y-95083286D01*
X176236048Y-95178524D01*
X176140810Y-95273762D01*
X175997952Y-95321381D01*
X175759857Y-95321381D01*
X171989905Y-89241381D02*
X172608953Y-89241381D01*
X172275619Y-89622333D01*
X172418477Y-89622333D01*
X172513715Y-89669952D01*
X172561334Y-89717571D01*
X172608953Y-89812810D01*
X172608953Y-90050905D01*
X172561334Y-90146143D01*
X172513715Y-90193762D01*
X172418477Y-90241381D01*
X172132762Y-90241381D01*
X172037524Y-90193762D01*
X171989905Y-90146143D01*
X172894667Y-89241381D02*
X173228000Y-90241381D01*
X173561334Y-89241381D01*
X173799429Y-89241381D02*
X174418477Y-89241381D01*
X174085143Y-89622333D01*
X174228001Y-89622333D01*
X174323239Y-89669952D01*
X174370858Y-89717571D01*
X174418477Y-89812810D01*
X174418477Y-90050905D01*
X174370858Y-90146143D01*
X174323239Y-90193762D01*
X174228001Y-90241381D01*
X173942286Y-90241381D01*
X173847048Y-90193762D01*
X173799429Y-90146143D01*
X162433096Y-97036000D02*
X162337858Y-96988381D01*
X162195001Y-96988381D01*
X162052143Y-97036000D01*
X161956905Y-97131238D01*
X161909286Y-97226476D01*
X161861667Y-97416952D01*
X161861667Y-97559810D01*
X161909286Y-97750286D01*
X161956905Y-97845524D01*
X162052143Y-97940762D01*
X162195001Y-97988381D01*
X162290239Y-97988381D01*
X162433096Y-97940762D01*
X162480715Y-97893143D01*
X162480715Y-97559810D01*
X162290239Y-97559810D01*
X162909286Y-97988381D02*
X162909286Y-96988381D01*
X163480715Y-97988381D01*
X163480715Y-96988381D01*
X163956905Y-97988381D02*
X163956905Y-96988381D01*
X164195000Y-96988381D01*
X164337858Y-97036000D01*
X164433096Y-97131238D01*
X164480715Y-97226476D01*
X164528334Y-97416952D01*
X164528334Y-97559810D01*
X164480715Y-97750286D01*
X164433096Y-97845524D01*
X164337858Y-97940762D01*
X164195000Y-97988381D01*
X163956905Y-97988381D01*
X124269524Y-113117381D02*
X123793333Y-113117381D01*
X123745714Y-113593571D01*
X123793333Y-113545952D01*
X123888571Y-113498333D01*
X124126667Y-113498333D01*
X124221905Y-113545952D01*
X124269524Y-113593571D01*
X124317143Y-113688810D01*
X124317143Y-113926905D01*
X124269524Y-114022143D01*
X124221905Y-114069762D01*
X124126667Y-114117381D01*
X123888571Y-114117381D01*
X123793333Y-114069762D01*
X123745714Y-114022143D01*
X124602857Y-113117381D02*
X124936190Y-114117381D01*
X125269524Y-113117381D01*
X119253096Y-113165000D02*
X119157858Y-113117381D01*
X119015001Y-113117381D01*
X118872143Y-113165000D01*
X118776905Y-113260238D01*
X118729286Y-113355476D01*
X118681667Y-113545952D01*
X118681667Y-113688810D01*
X118729286Y-113879286D01*
X118776905Y-113974524D01*
X118872143Y-114069762D01*
X119015001Y-114117381D01*
X119110239Y-114117381D01*
X119253096Y-114069762D01*
X119300715Y-114022143D01*
X119300715Y-113688810D01*
X119110239Y-113688810D01*
X119729286Y-114117381D02*
X119729286Y-113117381D01*
X120300715Y-114117381D01*
X120300715Y-113117381D01*
X120776905Y-114117381D02*
X120776905Y-113117381D01*
X121015000Y-113117381D01*
X121157858Y-113165000D01*
X121253096Y-113260238D01*
X121300715Y-113355476D01*
X121348334Y-113545952D01*
X121348334Y-113688810D01*
X121300715Y-113879286D01*
X121253096Y-113974524D01*
X121157858Y-114069762D01*
X121015000Y-114117381D01*
X120776905Y-114117381D01*
X150264762Y-96178334D02*
X150312381Y-96035477D01*
X150312381Y-95797381D01*
X150264762Y-95702143D01*
X150217143Y-95654524D01*
X150121905Y-95606905D01*
X150026667Y-95606905D01*
X149931429Y-95654524D01*
X149883810Y-95702143D01*
X149836190Y-95797381D01*
X149788571Y-95987858D01*
X149740952Y-96083096D01*
X149693333Y-96130715D01*
X149598095Y-96178334D01*
X149502857Y-96178334D01*
X149407619Y-96130715D01*
X149360000Y-96083096D01*
X149312381Y-95987858D01*
X149312381Y-95749762D01*
X149360000Y-95606905D01*
X150264762Y-94797381D02*
X150312381Y-94892619D01*
X150312381Y-95083096D01*
X150264762Y-95178334D01*
X150169524Y-95225953D01*
X149788571Y-95225953D01*
X149693333Y-95178334D01*
X149645714Y-95083096D01*
X149645714Y-94892619D01*
X149693333Y-94797381D01*
X149788571Y-94749762D01*
X149883810Y-94749762D01*
X149979048Y-95225953D01*
X150312381Y-94321191D02*
X149645714Y-94321191D01*
X149836190Y-94321191D02*
X149740952Y-94273572D01*
X149693333Y-94225953D01*
X149645714Y-94130715D01*
X149645714Y-94035476D01*
X150312381Y-93702143D02*
X149645714Y-93702143D01*
X149312381Y-93702143D02*
X149360000Y-93749762D01*
X149407619Y-93702143D01*
X149360000Y-93654524D01*
X149312381Y-93702143D01*
X149407619Y-93702143D01*
X150312381Y-92797381D02*
X149788571Y-92797381D01*
X149693333Y-92845000D01*
X149645714Y-92940238D01*
X149645714Y-93130715D01*
X149693333Y-93225953D01*
X150264762Y-92797381D02*
X150312381Y-92892619D01*
X150312381Y-93130715D01*
X150264762Y-93225953D01*
X150169524Y-93273572D01*
X150074286Y-93273572D01*
X149979048Y-93225953D01*
X149931429Y-93130715D01*
X149931429Y-92892619D01*
X149883810Y-92797381D01*
X150312381Y-92178334D02*
X150264762Y-92273572D01*
X150169524Y-92321191D01*
X149312381Y-92321191D01*
X149312381Y-91130714D02*
X149312381Y-90511666D01*
X149693333Y-90845000D01*
X149693333Y-90702142D01*
X149740952Y-90606904D01*
X149788571Y-90559285D01*
X149883810Y-90511666D01*
X150121905Y-90511666D01*
X150217143Y-90559285D01*
X150264762Y-90606904D01*
X150312381Y-90702142D01*
X150312381Y-90987857D01*
X150264762Y-91083095D01*
X150217143Y-91130714D01*
X131706905Y-113165000D02*
X131611667Y-113117381D01*
X131468810Y-113117381D01*
X131325952Y-113165000D01*
X131230714Y-113260238D01*
X131183095Y-113355476D01*
X131135476Y-113545952D01*
X131135476Y-113688810D01*
X131183095Y-113879286D01*
X131230714Y-113974524D01*
X131325952Y-114069762D01*
X131468810Y-114117381D01*
X131564048Y-114117381D01*
X131706905Y-114069762D01*
X131754524Y-114022143D01*
X131754524Y-113688810D01*
X131564048Y-113688810D01*
X137604524Y-113117381D02*
X137128333Y-113117381D01*
X137080714Y-113593571D01*
X137128333Y-113545952D01*
X137223571Y-113498333D01*
X137461667Y-113498333D01*
X137556905Y-113545952D01*
X137604524Y-113593571D01*
X137652143Y-113688810D01*
X137652143Y-113926905D01*
X137604524Y-114022143D01*
X137556905Y-114069762D01*
X137461667Y-114117381D01*
X137223571Y-114117381D01*
X137128333Y-114069762D01*
X137080714Y-114022143D01*
X137937857Y-113117381D02*
X138271190Y-114117381D01*
X138604524Y-113117381D01*
X149034524Y-113117381D02*
X148558333Y-113117381D01*
X148510714Y-113593571D01*
X148558333Y-113545952D01*
X148653571Y-113498333D01*
X148891667Y-113498333D01*
X148986905Y-113545952D01*
X149034524Y-113593571D01*
X149082143Y-113688810D01*
X149082143Y-113926905D01*
X149034524Y-114022143D01*
X148986905Y-114069762D01*
X148891667Y-114117381D01*
X148653571Y-114117381D01*
X148558333Y-114069762D01*
X148510714Y-114022143D01*
X149367857Y-113117381D02*
X149701190Y-114117381D01*
X150034524Y-113117381D01*
X143136905Y-113165000D02*
X143041667Y-113117381D01*
X142898810Y-113117381D01*
X142755952Y-113165000D01*
X142660714Y-113260238D01*
X142613095Y-113355476D01*
X142565476Y-113545952D01*
X142565476Y-113688810D01*
X142613095Y-113879286D01*
X142660714Y-113974524D01*
X142755952Y-114069762D01*
X142898810Y-114117381D01*
X142994048Y-114117381D01*
X143136905Y-114069762D01*
X143184524Y-114022143D01*
X143184524Y-113688810D01*
X142994048Y-113688810D01*
X155836905Y-113165000D02*
X155741667Y-113117381D01*
X155598810Y-113117381D01*
X155455952Y-113165000D01*
X155360714Y-113260238D01*
X155313095Y-113355476D01*
X155265476Y-113545952D01*
X155265476Y-113688810D01*
X155313095Y-113879286D01*
X155360714Y-113974524D01*
X155455952Y-114069762D01*
X155598810Y-114117381D01*
X155694048Y-114117381D01*
X155836905Y-114069762D01*
X155884524Y-114022143D01*
X155884524Y-113688810D01*
X155694048Y-113688810D01*
X161734524Y-113117381D02*
X161258333Y-113117381D01*
X161210714Y-113593571D01*
X161258333Y-113545952D01*
X161353571Y-113498333D01*
X161591667Y-113498333D01*
X161686905Y-113545952D01*
X161734524Y-113593571D01*
X161782143Y-113688810D01*
X161782143Y-113926905D01*
X161734524Y-114022143D01*
X161686905Y-114069762D01*
X161591667Y-114117381D01*
X161353571Y-114117381D01*
X161258333Y-114069762D01*
X161210714Y-114022143D01*
X162067857Y-113117381D02*
X162401190Y-114117381D01*
X162734524Y-113117381D01*
X173164524Y-113117381D02*
X172688333Y-113117381D01*
X172640714Y-113593571D01*
X172688333Y-113545952D01*
X172783571Y-113498333D01*
X173021667Y-113498333D01*
X173116905Y-113545952D01*
X173164524Y-113593571D01*
X173212143Y-113688810D01*
X173212143Y-113926905D01*
X173164524Y-114022143D01*
X173116905Y-114069762D01*
X173021667Y-114117381D01*
X172783571Y-114117381D01*
X172688333Y-114069762D01*
X172640714Y-114022143D01*
X173497857Y-113117381D02*
X173831190Y-114117381D01*
X174164524Y-113117381D01*
X167266905Y-113165000D02*
X167171667Y-113117381D01*
X167028810Y-113117381D01*
X166885952Y-113165000D01*
X166790714Y-113260238D01*
X166743095Y-113355476D01*
X166695476Y-113545952D01*
X166695476Y-113688810D01*
X166743095Y-113879286D01*
X166790714Y-113974524D01*
X166885952Y-114069762D01*
X167028810Y-114117381D01*
X167124048Y-114117381D01*
X167266905Y-114069762D01*
X167314524Y-114022143D01*
X167314524Y-113688810D01*
X167124048Y-113688810D01*
X184872381Y-99250476D02*
X184872381Y-99726667D01*
X185348571Y-99774286D01*
X185300952Y-99726667D01*
X185253333Y-99631429D01*
X185253333Y-99393333D01*
X185300952Y-99298095D01*
X185348571Y-99250476D01*
X185443810Y-99202857D01*
X185681905Y-99202857D01*
X185777143Y-99250476D01*
X185824762Y-99298095D01*
X185872381Y-99393333D01*
X185872381Y-99631429D01*
X185824762Y-99726667D01*
X185777143Y-99774286D01*
X184872381Y-98917143D02*
X185872381Y-98583810D01*
X184872381Y-98250476D01*
X184920000Y-114038095D02*
X184872381Y-114133333D01*
X184872381Y-114276190D01*
X184920000Y-114419048D01*
X185015238Y-114514286D01*
X185110476Y-114561905D01*
X185300952Y-114609524D01*
X185443810Y-114609524D01*
X185634286Y-114561905D01*
X185729524Y-114514286D01*
X185824762Y-114419048D01*
X185872381Y-114276190D01*
X185872381Y-114180952D01*
X185824762Y-114038095D01*
X185777143Y-113990476D01*
X185443810Y-113990476D01*
X185443810Y-114180952D01*
X193810000Y-102608095D02*
X193762381Y-102703333D01*
X193762381Y-102846190D01*
X193810000Y-102989048D01*
X193905238Y-103084286D01*
X194000476Y-103131905D01*
X194190952Y-103179524D01*
X194333810Y-103179524D01*
X194524286Y-103131905D01*
X194619524Y-103084286D01*
X194714762Y-102989048D01*
X194762381Y-102846190D01*
X194762381Y-102750952D01*
X194714762Y-102608095D01*
X194667143Y-102560476D01*
X194333810Y-102560476D01*
X194333810Y-102750952D01*
X193762381Y-80200476D02*
X193762381Y-80676667D01*
X194238571Y-80724286D01*
X194190952Y-80676667D01*
X194143333Y-80581429D01*
X194143333Y-80343333D01*
X194190952Y-80248095D01*
X194238571Y-80200476D01*
X194333810Y-80152857D01*
X194571905Y-80152857D01*
X194667143Y-80200476D01*
X194714762Y-80248095D01*
X194762381Y-80343333D01*
X194762381Y-80581429D01*
X194714762Y-80676667D01*
X194667143Y-80724286D01*
X193762381Y-79867143D02*
X194762381Y-79533810D01*
X193762381Y-79200476D01*
X184872381Y-80200476D02*
X184872381Y-80676667D01*
X185348571Y-80724286D01*
X185300952Y-80676667D01*
X185253333Y-80581429D01*
X185253333Y-80343333D01*
X185300952Y-80248095D01*
X185348571Y-80200476D01*
X185443810Y-80152857D01*
X185681905Y-80152857D01*
X185777143Y-80200476D01*
X185824762Y-80248095D01*
X185872381Y-80343333D01*
X185872381Y-80581429D01*
X185824762Y-80676667D01*
X185777143Y-80724286D01*
X184872381Y-79867143D02*
X185872381Y-79533810D01*
X184872381Y-79200476D01*
X184920000Y-87368095D02*
X184872381Y-87463333D01*
X184872381Y-87606190D01*
X184920000Y-87749048D01*
X185015238Y-87844286D01*
X185110476Y-87891905D01*
X185300952Y-87939524D01*
X185443810Y-87939524D01*
X185634286Y-87891905D01*
X185729524Y-87844286D01*
X185824762Y-87749048D01*
X185872381Y-87606190D01*
X185872381Y-87510952D01*
X185824762Y-87368095D01*
X185777143Y-87320476D01*
X185443810Y-87320476D01*
X185443810Y-87510952D01*
X172529524Y-83272381D02*
X172053333Y-83272381D01*
X172005714Y-83748571D01*
X172053333Y-83700952D01*
X172148571Y-83653333D01*
X172386667Y-83653333D01*
X172481905Y-83700952D01*
X172529524Y-83748571D01*
X172577143Y-83843810D01*
X172577143Y-84081905D01*
X172529524Y-84177143D01*
X172481905Y-84224762D01*
X172386667Y-84272381D01*
X172148571Y-84272381D01*
X172053333Y-84224762D01*
X172005714Y-84177143D01*
X172862857Y-83272381D02*
X173196190Y-84272381D01*
X173529524Y-83272381D01*
X165361905Y-83320000D02*
X165266667Y-83272381D01*
X165123810Y-83272381D01*
X164980952Y-83320000D01*
X164885714Y-83415238D01*
X164838095Y-83510476D01*
X164790476Y-83700952D01*
X164790476Y-83843810D01*
X164838095Y-84034286D01*
X164885714Y-84129524D01*
X164980952Y-84224762D01*
X165123810Y-84272381D01*
X165219048Y-84272381D01*
X165361905Y-84224762D01*
X165409524Y-84177143D01*
X165409524Y-83843810D01*
X165219048Y-83843810D01*
D11*
X146558000Y-86487000D02*
X171450000Y-86487000D01*
X146558000Y-100838000D02*
X146558000Y-86487000D01*
X171450000Y-100838000D02*
X146558000Y-100838000D01*
X171450000Y-93726000D02*
X171450000Y-86487000D01*
X171450000Y-93726000D02*
X171450000Y-100838000D01*
X201168000Y-115316000D02*
X201168000Y-69596000D01*
X196088000Y-69596000D02*
X196088000Y-112776000D01*
X201168000Y-69596000D02*
X196088000Y-69596000D01*
X201168000Y-115316000D02*
X198628000Y-115316000D01*
X195808000Y-114046000D02*
X195808000Y-115596000D01*
X198628000Y-115316000D02*
X198628000Y-112776000D01*
X198628000Y-112776000D02*
X196088000Y-112776000D01*
X195808000Y-115596000D02*
X197358000Y-115596000D01*
X132588000Y-120396000D02*
X150368000Y-120396000D01*
X150368000Y-120396000D02*
X150368000Y-117856000D01*
X150368000Y-117856000D02*
X132588000Y-117856000D01*
X129768000Y-120676000D02*
X131318000Y-120676000D01*
X132588000Y-120396000D02*
X132588000Y-117856000D01*
X131318000Y-117576000D02*
X129768000Y-117576000D01*
X129768000Y-117576000D02*
X129768000Y-120676000D01*
X155448000Y-120396000D02*
X173228000Y-120396000D01*
X173228000Y-120396000D02*
X173228000Y-117856000D01*
X173228000Y-117856000D02*
X155448000Y-117856000D01*
X152628000Y-120676000D02*
X154178000Y-120676000D01*
X155448000Y-120396000D02*
X155448000Y-117856000D01*
X154178000Y-117576000D02*
X152628000Y-117576000D01*
X152628000Y-117576000D02*
X152628000Y-120676000D01*
X178308000Y-120396000D02*
X196088000Y-120396000D01*
X196088000Y-120396000D02*
X196088000Y-117856000D01*
X196088000Y-117856000D02*
X178308000Y-117856000D01*
X175488000Y-120676000D02*
X177038000Y-120676000D01*
X178308000Y-120396000D02*
X178308000Y-117856000D01*
X177038000Y-117576000D02*
X175488000Y-117576000D01*
X175488000Y-117576000D02*
X175488000Y-120676000D01*
X123444000Y-72136000D02*
X146304000Y-72136000D01*
X146304000Y-72136000D02*
X146304000Y-69596000D01*
X146304000Y-69596000D02*
X123444000Y-69596000D01*
X120624000Y-72416000D02*
X122174000Y-72416000D01*
X123444000Y-72136000D02*
X123444000Y-69596000D01*
X122174000Y-69316000D02*
X120624000Y-69316000D01*
X120624000Y-69316000D02*
X120624000Y-72416000D01*
X150368000Y-72136000D02*
X168148000Y-72136000D01*
X168148000Y-72136000D02*
X168148000Y-69596000D01*
X168148000Y-69596000D02*
X150368000Y-69596000D01*
X147548000Y-72416000D02*
X149098000Y-72416000D01*
X150368000Y-72136000D02*
X150368000Y-69596000D01*
X149098000Y-69316000D02*
X147548000Y-69316000D01*
X147548000Y-69316000D02*
X147548000Y-72416000D01*
X173228000Y-72136000D02*
X191008000Y-72136000D01*
X191008000Y-72136000D02*
X191008000Y-69596000D01*
X191008000Y-69596000D02*
X173228000Y-69596000D01*
X170408000Y-72416000D02*
X171958000Y-72416000D01*
X173228000Y-72136000D02*
X173228000Y-69596000D01*
X171958000Y-69316000D02*
X170408000Y-69316000D01*
X170408000Y-69316000D02*
X170408000Y-72416000D01*
X119634000Y-119126000D02*
G75*
G03X119634000Y-119126000I-2286000J0D01*
G01*
X202184000Y-119126000D02*
G75*
G03X202184000Y-119126000I-2286000J0D01*
G01*
X120904000Y-70866000D02*
G75*
G03X120904000Y-70866000I-2286000J0D01*
G01*
X195834000Y-70866000D02*
G75*
G03X195834000Y-70866000I-2286000J0D01*
G01*
D13*
X129225000Y-88825000D02*
X131125000Y-88825000D01*
X131125000Y-88825000D02*
X131125000Y-84125000D01*
X129225000Y-88825000D02*
X129225000Y-84125000D01*
X124145000Y-88825000D02*
X126045000Y-88825000D01*
X126045000Y-88825000D02*
X126045000Y-84125000D01*
X124145000Y-88825000D02*
X124145000Y-84125000D01*
X131245000Y-94250000D02*
X131245000Y-96250000D01*
X129105000Y-96250000D02*
X129105000Y-94250000D01*
X126165000Y-94250000D02*
X126165000Y-96250000D01*
X124025000Y-96250000D02*
X124025000Y-94250000D01*
X142025000Y-98060000D02*
X142025000Y-93560000D01*
X138025000Y-99310000D02*
X139525000Y-99310000D01*
X135525000Y-93560000D02*
X135525000Y-98060000D01*
X139525000Y-92310000D02*
X138025000Y-92310000D01*
X142025000Y-84090000D02*
X142025000Y-79590000D01*
X138025000Y-85340000D02*
X139525000Y-85340000D01*
X135525000Y-79590000D02*
X135525000Y-84090000D01*
X139525000Y-78340000D02*
X138025000Y-78340000D01*
X192950000Y-77460000D02*
X187000000Y-77460000D01*
X187000000Y-77460000D02*
X187000000Y-105060000D01*
X187000000Y-105060000D02*
X192950000Y-105060000D01*
X192950000Y-105060000D02*
X192950000Y-77460000D01*
X192950000Y-80760000D02*
X192200000Y-80760000D01*
X192200000Y-80760000D02*
X192200000Y-101760000D01*
X192200000Y-101760000D02*
X192950000Y-101760000D01*
X192950000Y-101760000D02*
X192950000Y-80760000D01*
X192950000Y-77460000D02*
X192200000Y-77460000D01*
X192200000Y-77460000D02*
X192200000Y-79260000D01*
X192200000Y-79260000D02*
X192950000Y-79260000D01*
X192950000Y-79260000D02*
X192950000Y-77460000D01*
X192950000Y-103260000D02*
X192200000Y-103260000D01*
X192200000Y-103260000D02*
X192200000Y-105060000D01*
X192200000Y-105060000D02*
X192950000Y-105060000D01*
X192950000Y-105060000D02*
X192950000Y-103260000D01*
X190700000Y-77460000D02*
X190700000Y-78210000D01*
X190700000Y-78210000D02*
X187750000Y-78210000D01*
X187750000Y-78210000D02*
X187750000Y-91260000D01*
X190700000Y-105060000D02*
X190700000Y-104310000D01*
X190700000Y-104310000D02*
X187750000Y-104310000D01*
X187750000Y-104310000D02*
X187750000Y-91260000D01*
X193250000Y-79660000D02*
X193250000Y-77160000D01*
X193250000Y-77160000D02*
X190750000Y-77160000D01*
X139710000Y-112305000D02*
X139710000Y-106355000D01*
X139710000Y-106355000D02*
X129610000Y-106355000D01*
X129610000Y-106355000D02*
X129610000Y-112305000D01*
X129610000Y-112305000D02*
X139710000Y-112305000D01*
X136410000Y-112305000D02*
X136410000Y-111555000D01*
X136410000Y-111555000D02*
X132910000Y-111555000D01*
X132910000Y-111555000D02*
X132910000Y-112305000D01*
X132910000Y-112305000D02*
X136410000Y-112305000D01*
X139710000Y-112305000D02*
X139710000Y-111555000D01*
X139710000Y-111555000D02*
X137910000Y-111555000D01*
X137910000Y-111555000D02*
X137910000Y-112305000D01*
X137910000Y-112305000D02*
X139710000Y-112305000D01*
X131410000Y-112305000D02*
X131410000Y-111555000D01*
X131410000Y-111555000D02*
X129610000Y-111555000D01*
X129610000Y-111555000D02*
X129610000Y-112305000D01*
X129610000Y-112305000D02*
X131410000Y-112305000D01*
X139710000Y-110055000D02*
X138960000Y-110055000D01*
X138960000Y-110055000D02*
X138960000Y-107105000D01*
X138960000Y-107105000D02*
X134660000Y-107105000D01*
X129610000Y-110055000D02*
X130360000Y-110055000D01*
X130360000Y-110055000D02*
X130360000Y-107105000D01*
X130360000Y-107105000D02*
X134660000Y-107105000D01*
X137510000Y-112605000D02*
X140010000Y-112605000D01*
X140010000Y-112605000D02*
X140010000Y-110105000D01*
X151140000Y-112305000D02*
X151140000Y-106355000D01*
X151140000Y-106355000D02*
X141040000Y-106355000D01*
X141040000Y-106355000D02*
X141040000Y-112305000D01*
X141040000Y-112305000D02*
X151140000Y-112305000D01*
X147840000Y-112305000D02*
X147840000Y-111555000D01*
X147840000Y-111555000D02*
X144340000Y-111555000D01*
X144340000Y-111555000D02*
X144340000Y-112305000D01*
X144340000Y-112305000D02*
X147840000Y-112305000D01*
X151140000Y-112305000D02*
X151140000Y-111555000D01*
X151140000Y-111555000D02*
X149340000Y-111555000D01*
X149340000Y-111555000D02*
X149340000Y-112305000D01*
X149340000Y-112305000D02*
X151140000Y-112305000D01*
X142840000Y-112305000D02*
X142840000Y-111555000D01*
X142840000Y-111555000D02*
X141040000Y-111555000D01*
X141040000Y-111555000D02*
X141040000Y-112305000D01*
X141040000Y-112305000D02*
X142840000Y-112305000D01*
X151140000Y-110055000D02*
X150390000Y-110055000D01*
X150390000Y-110055000D02*
X150390000Y-107105000D01*
X150390000Y-107105000D02*
X146090000Y-107105000D01*
X141040000Y-110055000D02*
X141790000Y-110055000D01*
X141790000Y-110055000D02*
X141790000Y-107105000D01*
X141790000Y-107105000D02*
X146090000Y-107105000D01*
X148940000Y-112605000D02*
X151440000Y-112605000D01*
X151440000Y-112605000D02*
X151440000Y-110105000D01*
X184060000Y-97780000D02*
X178110000Y-97780000D01*
X178110000Y-97780000D02*
X178110000Y-115380000D01*
X178110000Y-115380000D02*
X184060000Y-115380000D01*
X184060000Y-115380000D02*
X184060000Y-97780000D01*
X184060000Y-101080000D02*
X183310000Y-101080000D01*
X183310000Y-101080000D02*
X183310000Y-112080000D01*
X183310000Y-112080000D02*
X184060000Y-112080000D01*
X184060000Y-112080000D02*
X184060000Y-101080000D01*
X184060000Y-97780000D02*
X183310000Y-97780000D01*
X183310000Y-97780000D02*
X183310000Y-99580000D01*
X183310000Y-99580000D02*
X184060000Y-99580000D01*
X184060000Y-99580000D02*
X184060000Y-97780000D01*
X184060000Y-113580000D02*
X183310000Y-113580000D01*
X183310000Y-113580000D02*
X183310000Y-115380000D01*
X183310000Y-115380000D02*
X184060000Y-115380000D01*
X184060000Y-115380000D02*
X184060000Y-113580000D01*
X181810000Y-97780000D02*
X181810000Y-98530000D01*
X181810000Y-98530000D02*
X178860000Y-98530000D01*
X178860000Y-98530000D02*
X178860000Y-106580000D01*
X181810000Y-115380000D02*
X181810000Y-114630000D01*
X181810000Y-114630000D02*
X178860000Y-114630000D01*
X178860000Y-114630000D02*
X178860000Y-106580000D01*
X184360000Y-99980000D02*
X184360000Y-97480000D01*
X184360000Y-97480000D02*
X181860000Y-97480000D01*
X163840000Y-112305000D02*
X163840000Y-106355000D01*
X163840000Y-106355000D02*
X153740000Y-106355000D01*
X153740000Y-106355000D02*
X153740000Y-112305000D01*
X153740000Y-112305000D02*
X163840000Y-112305000D01*
X160540000Y-112305000D02*
X160540000Y-111555000D01*
X160540000Y-111555000D02*
X157040000Y-111555000D01*
X157040000Y-111555000D02*
X157040000Y-112305000D01*
X157040000Y-112305000D02*
X160540000Y-112305000D01*
X163840000Y-112305000D02*
X163840000Y-111555000D01*
X163840000Y-111555000D02*
X162040000Y-111555000D01*
X162040000Y-111555000D02*
X162040000Y-112305000D01*
X162040000Y-112305000D02*
X163840000Y-112305000D01*
X155540000Y-112305000D02*
X155540000Y-111555000D01*
X155540000Y-111555000D02*
X153740000Y-111555000D01*
X153740000Y-111555000D02*
X153740000Y-112305000D01*
X153740000Y-112305000D02*
X155540000Y-112305000D01*
X163840000Y-110055000D02*
X163090000Y-110055000D01*
X163090000Y-110055000D02*
X163090000Y-107105000D01*
X163090000Y-107105000D02*
X158790000Y-107105000D01*
X153740000Y-110055000D02*
X154490000Y-110055000D01*
X154490000Y-110055000D02*
X154490000Y-107105000D01*
X154490000Y-107105000D02*
X158790000Y-107105000D01*
X161640000Y-112605000D02*
X164140000Y-112605000D01*
X164140000Y-112605000D02*
X164140000Y-110105000D01*
X175270000Y-112305000D02*
X175270000Y-106355000D01*
X175270000Y-106355000D02*
X165170000Y-106355000D01*
X165170000Y-106355000D02*
X165170000Y-112305000D01*
X165170000Y-112305000D02*
X175270000Y-112305000D01*
X171970000Y-112305000D02*
X171970000Y-111555000D01*
X171970000Y-111555000D02*
X168470000Y-111555000D01*
X168470000Y-111555000D02*
X168470000Y-112305000D01*
X168470000Y-112305000D02*
X171970000Y-112305000D01*
X175270000Y-112305000D02*
X175270000Y-111555000D01*
X175270000Y-111555000D02*
X173470000Y-111555000D01*
X173470000Y-111555000D02*
X173470000Y-112305000D01*
X173470000Y-112305000D02*
X175270000Y-112305000D01*
X166970000Y-112305000D02*
X166970000Y-111555000D01*
X166970000Y-111555000D02*
X165170000Y-111555000D01*
X165170000Y-111555000D02*
X165170000Y-112305000D01*
X165170000Y-112305000D02*
X166970000Y-112305000D01*
X175270000Y-110055000D02*
X174520000Y-110055000D01*
X174520000Y-110055000D02*
X174520000Y-107105000D01*
X174520000Y-107105000D02*
X170220000Y-107105000D01*
X165170000Y-110055000D02*
X165920000Y-110055000D01*
X165920000Y-110055000D02*
X165920000Y-107105000D01*
X165920000Y-107105000D02*
X170220000Y-107105000D01*
X173070000Y-112605000D02*
X175570000Y-112605000D01*
X175570000Y-112605000D02*
X175570000Y-110105000D01*
X184060000Y-77460000D02*
X178110000Y-77460000D01*
X178110000Y-77460000D02*
X178110000Y-90060000D01*
X178110000Y-90060000D02*
X184060000Y-90060000D01*
X184060000Y-90060000D02*
X184060000Y-77460000D01*
X184060000Y-80760000D02*
X183310000Y-80760000D01*
X183310000Y-80760000D02*
X183310000Y-86760000D01*
X183310000Y-86760000D02*
X184060000Y-86760000D01*
X184060000Y-86760000D02*
X184060000Y-80760000D01*
X184060000Y-77460000D02*
X183310000Y-77460000D01*
X183310000Y-77460000D02*
X183310000Y-79260000D01*
X183310000Y-79260000D02*
X184060000Y-79260000D01*
X184060000Y-79260000D02*
X184060000Y-77460000D01*
X184060000Y-88260000D02*
X183310000Y-88260000D01*
X183310000Y-88260000D02*
X183310000Y-90060000D01*
X183310000Y-90060000D02*
X184060000Y-90060000D01*
X184060000Y-90060000D02*
X184060000Y-88260000D01*
X181810000Y-77460000D02*
X181810000Y-78210000D01*
X181810000Y-78210000D02*
X178860000Y-78210000D01*
X178860000Y-78210000D02*
X178860000Y-83760000D01*
X181810000Y-90060000D02*
X181810000Y-89310000D01*
X181810000Y-89310000D02*
X178860000Y-89310000D01*
X178860000Y-89310000D02*
X178860000Y-83760000D01*
X184360000Y-79660000D02*
X184360000Y-77160000D01*
X184360000Y-77160000D02*
X181860000Y-77160000D01*
X175270000Y-82460000D02*
X175270000Y-76510000D01*
X175270000Y-76510000D02*
X162670000Y-76510000D01*
X162670000Y-76510000D02*
X162670000Y-82460000D01*
X162670000Y-82460000D02*
X175270000Y-82460000D01*
X171970000Y-82460000D02*
X171970000Y-81710000D01*
X171970000Y-81710000D02*
X165970000Y-81710000D01*
X165970000Y-81710000D02*
X165970000Y-82460000D01*
X165970000Y-82460000D02*
X171970000Y-82460000D01*
X175270000Y-82460000D02*
X175270000Y-81710000D01*
X175270000Y-81710000D02*
X173470000Y-81710000D01*
X173470000Y-81710000D02*
X173470000Y-82460000D01*
X173470000Y-82460000D02*
X175270000Y-82460000D01*
X164470000Y-82460000D02*
X164470000Y-81710000D01*
X164470000Y-81710000D02*
X162670000Y-81710000D01*
X162670000Y-81710000D02*
X162670000Y-82460000D01*
X162670000Y-82460000D02*
X164470000Y-82460000D01*
X175270000Y-80210000D02*
X174520000Y-80210000D01*
X174520000Y-80210000D02*
X174520000Y-77260000D01*
X174520000Y-77260000D02*
X168970000Y-77260000D01*
X162670000Y-80210000D02*
X163420000Y-80210000D01*
X163420000Y-80210000D02*
X163420000Y-77260000D01*
X163420000Y-77260000D02*
X168970000Y-77260000D01*
X173070000Y-82760000D02*
X175570000Y-82760000D01*
X175570000Y-82760000D02*
X175570000Y-80260000D01*
X106895000Y-110855000D02*
X106895000Y-115355000D01*
X110895000Y-109605000D02*
X109395000Y-109605000D01*
X113395000Y-115355000D02*
X113395000Y-110855000D01*
X109395000Y-116605000D02*
X110895000Y-116605000D01*
X165675000Y-98739000D02*
X170875000Y-98739000D01*
X165675000Y-91059000D02*
X165675000Y-98739000D01*
X170875000Y-88459000D02*
X170875000Y-98739000D01*
X165675000Y-91059000D02*
X168275000Y-91059000D01*
X168275000Y-91059000D02*
X168275000Y-88459000D01*
X168275000Y-88459000D02*
X170875000Y-88459000D01*
X165675000Y-89789000D02*
X165675000Y-88459000D01*
X165675000Y-88459000D02*
X167005000Y-88459000D01*
X156575000Y-100130000D02*
X154575000Y-100130000D01*
X154575000Y-97990000D02*
X156575000Y-97990000D01*
X156575000Y-95685000D02*
X154575000Y-95685000D01*
X154575000Y-93545000D02*
X156575000Y-93545000D01*
X156575000Y-91240000D02*
X154575000Y-91240000D01*
X154575000Y-89100000D02*
X156575000Y-89100000D01*
X128635000Y-79175000D02*
X126635000Y-79175000D01*
X126635000Y-77035000D02*
X128635000Y-77035000D01*
X125740000Y-112305000D02*
X125740000Y-106355000D01*
X125740000Y-106355000D02*
X118140000Y-106355000D01*
X118140000Y-106355000D02*
X118140000Y-112305000D01*
X118140000Y-112305000D02*
X125740000Y-112305000D01*
X122440000Y-112305000D02*
X122440000Y-111555000D01*
X122440000Y-111555000D02*
X121440000Y-111555000D01*
X121440000Y-111555000D02*
X121440000Y-112305000D01*
X121440000Y-112305000D02*
X122440000Y-112305000D01*
X125740000Y-112305000D02*
X125740000Y-111555000D01*
X125740000Y-111555000D02*
X123940000Y-111555000D01*
X123940000Y-111555000D02*
X123940000Y-112305000D01*
X123940000Y-112305000D02*
X125740000Y-112305000D01*
X119940000Y-112305000D02*
X119940000Y-111555000D01*
X119940000Y-111555000D02*
X118140000Y-111555000D01*
X118140000Y-111555000D02*
X118140000Y-112305000D01*
X118140000Y-112305000D02*
X119940000Y-112305000D01*
X125740000Y-110055000D02*
X124990000Y-110055000D01*
X124990000Y-110055000D02*
X124990000Y-107105000D01*
X124990000Y-107105000D02*
X121940000Y-107105000D01*
X118140000Y-110055000D02*
X118890000Y-110055000D01*
X118890000Y-110055000D02*
X118890000Y-107105000D01*
X118890000Y-107105000D02*
X121940000Y-107105000D01*
X123540000Y-112605000D02*
X126040000Y-112605000D01*
X126040000Y-112605000D02*
X126040000Y-110105000D01*
X113575000Y-73650000D02*
X107625000Y-73650000D01*
X107625000Y-73650000D02*
X107625000Y-86250000D01*
X107625000Y-86250000D02*
X113575000Y-86250000D01*
X113575000Y-86250000D02*
X113575000Y-73650000D01*
X113575000Y-76950000D02*
X112825000Y-76950000D01*
X112825000Y-76950000D02*
X112825000Y-82950000D01*
X112825000Y-82950000D02*
X113575000Y-82950000D01*
X113575000Y-82950000D02*
X113575000Y-76950000D01*
X113575000Y-73650000D02*
X112825000Y-73650000D01*
X112825000Y-73650000D02*
X112825000Y-75450000D01*
X112825000Y-75450000D02*
X113575000Y-75450000D01*
X113575000Y-75450000D02*
X113575000Y-73650000D01*
X113575000Y-84450000D02*
X112825000Y-84450000D01*
X112825000Y-84450000D02*
X112825000Y-86250000D01*
X112825000Y-86250000D02*
X113575000Y-86250000D01*
X113575000Y-86250000D02*
X113575000Y-84450000D01*
X111325000Y-73650000D02*
X111325000Y-74400000D01*
X111325000Y-74400000D02*
X108375000Y-74400000D01*
X108375000Y-74400000D02*
X108375000Y-79950000D01*
X111325000Y-86250000D02*
X111325000Y-85500000D01*
X111325000Y-85500000D02*
X108375000Y-85500000D01*
X108375000Y-85500000D02*
X108375000Y-79950000D01*
X113875000Y-75850000D02*
X113875000Y-73350000D01*
X113875000Y-73350000D02*
X111375000Y-73350000D01*
D11*
X194762381Y-115038095D02*
X193762381Y-115038095D01*
X193762381Y-114657142D01*
X193810000Y-114561904D01*
X193857619Y-114514285D01*
X193952857Y-114466666D01*
X194095714Y-114466666D01*
X194190952Y-114514285D01*
X194238571Y-114561904D01*
X194286190Y-114657142D01*
X194286190Y-115038095D01*
X194762381Y-113514285D02*
X194762381Y-114085714D01*
X194762381Y-113800000D02*
X193762381Y-113800000D01*
X193905238Y-113895238D01*
X194000476Y-113990476D01*
X194048095Y-114085714D01*
X129357381Y-119483095D02*
X128357381Y-119483095D01*
X128357381Y-119102142D01*
X128405000Y-119006904D01*
X128452619Y-118959285D01*
X128547857Y-118911666D01*
X128690714Y-118911666D01*
X128785952Y-118959285D01*
X128833571Y-119006904D01*
X128881190Y-119102142D01*
X128881190Y-119483095D01*
X128452619Y-118530714D02*
X128405000Y-118483095D01*
X128357381Y-118387857D01*
X128357381Y-118149761D01*
X128405000Y-118054523D01*
X128452619Y-118006904D01*
X128547857Y-117959285D01*
X128643095Y-117959285D01*
X128785952Y-118006904D01*
X129357381Y-118578333D01*
X129357381Y-117959285D01*
X152217381Y-119483095D02*
X151217381Y-119483095D01*
X151217381Y-119102142D01*
X151265000Y-119006904D01*
X151312619Y-118959285D01*
X151407857Y-118911666D01*
X151550714Y-118911666D01*
X151645952Y-118959285D01*
X151693571Y-119006904D01*
X151741190Y-119102142D01*
X151741190Y-119483095D01*
X151217381Y-118578333D02*
X151217381Y-117959285D01*
X151598333Y-118292619D01*
X151598333Y-118149761D01*
X151645952Y-118054523D01*
X151693571Y-118006904D01*
X151788810Y-117959285D01*
X152026905Y-117959285D01*
X152122143Y-118006904D01*
X152169762Y-118054523D01*
X152217381Y-118149761D01*
X152217381Y-118435476D01*
X152169762Y-118530714D01*
X152122143Y-118578333D01*
X175077381Y-119483095D02*
X174077381Y-119483095D01*
X174077381Y-119102142D01*
X174125000Y-119006904D01*
X174172619Y-118959285D01*
X174267857Y-118911666D01*
X174410714Y-118911666D01*
X174505952Y-118959285D01*
X174553571Y-119006904D01*
X174601190Y-119102142D01*
X174601190Y-119483095D01*
X174410714Y-118054523D02*
X175077381Y-118054523D01*
X174029762Y-118292619D02*
X174744048Y-118530714D01*
X174744048Y-117911666D01*
X122372381Y-74398095D02*
X121372381Y-74398095D01*
X121372381Y-74017142D01*
X121420000Y-73921904D01*
X121467619Y-73874285D01*
X121562857Y-73826666D01*
X121705714Y-73826666D01*
X121800952Y-73874285D01*
X121848571Y-73921904D01*
X121896190Y-74017142D01*
X121896190Y-74398095D01*
X121372381Y-72921904D02*
X121372381Y-73398095D01*
X121848571Y-73445714D01*
X121800952Y-73398095D01*
X121753333Y-73302857D01*
X121753333Y-73064761D01*
X121800952Y-72969523D01*
X121848571Y-72921904D01*
X121943810Y-72874285D01*
X122181905Y-72874285D01*
X122277143Y-72921904D01*
X122324762Y-72969523D01*
X122372381Y-73064761D01*
X122372381Y-73302857D01*
X122324762Y-73398095D01*
X122277143Y-73445714D01*
X149042381Y-74398095D02*
X148042381Y-74398095D01*
X148042381Y-74017142D01*
X148090000Y-73921904D01*
X148137619Y-73874285D01*
X148232857Y-73826666D01*
X148375714Y-73826666D01*
X148470952Y-73874285D01*
X148518571Y-73921904D01*
X148566190Y-74017142D01*
X148566190Y-74398095D01*
X148042381Y-72969523D02*
X148042381Y-73160000D01*
X148090000Y-73255238D01*
X148137619Y-73302857D01*
X148280476Y-73398095D01*
X148470952Y-73445714D01*
X148851905Y-73445714D01*
X148947143Y-73398095D01*
X148994762Y-73350476D01*
X149042381Y-73255238D01*
X149042381Y-73064761D01*
X148994762Y-72969523D01*
X148947143Y-72921904D01*
X148851905Y-72874285D01*
X148613810Y-72874285D01*
X148518571Y-72921904D01*
X148470952Y-72969523D01*
X148423333Y-73064761D01*
X148423333Y-73255238D01*
X148470952Y-73350476D01*
X148518571Y-73398095D01*
X148613810Y-73445714D01*
X169997381Y-71858095D02*
X168997381Y-71858095D01*
X168997381Y-71477142D01*
X169045000Y-71381904D01*
X169092619Y-71334285D01*
X169187857Y-71286666D01*
X169330714Y-71286666D01*
X169425952Y-71334285D01*
X169473571Y-71381904D01*
X169521190Y-71477142D01*
X169521190Y-71858095D01*
X168997381Y-70953333D02*
X168997381Y-70286666D01*
X169997381Y-70715238D01*
X132548334Y-116657381D02*
X132215000Y-116181190D01*
X131976905Y-116657381D02*
X131976905Y-115657381D01*
X132357858Y-115657381D01*
X132453096Y-115705000D01*
X132500715Y-115752619D01*
X132548334Y-115847857D01*
X132548334Y-115990714D01*
X132500715Y-116085952D01*
X132453096Y-116133571D01*
X132357858Y-116181190D01*
X131976905Y-116181190D01*
X133500715Y-116657381D02*
X132929286Y-116657381D01*
X133215000Y-116657381D02*
X133215000Y-115657381D01*
X133119762Y-115800238D01*
X133024524Y-115895476D01*
X132929286Y-115943095D01*
X134961429Y-115990714D02*
X134961429Y-116657381D01*
X134723333Y-115609762D02*
X134485238Y-116324048D01*
X135104286Y-116324048D01*
X135532857Y-116609762D02*
X135532857Y-116657381D01*
X135485238Y-116752619D01*
X135437619Y-116800238D01*
X135866190Y-115657381D02*
X136532857Y-115657381D01*
X136104285Y-116657381D01*
X136913809Y-116657381D02*
X136913809Y-115657381D01*
X137009047Y-116276429D02*
X137294762Y-116657381D01*
X137294762Y-115990714D02*
X136913809Y-116371667D01*
X143978334Y-116657381D02*
X143645000Y-116181190D01*
X143406905Y-116657381D02*
X143406905Y-115657381D01*
X143787858Y-115657381D01*
X143883096Y-115705000D01*
X143930715Y-115752619D01*
X143978334Y-115847857D01*
X143978334Y-115990714D01*
X143930715Y-116085952D01*
X143883096Y-116133571D01*
X143787858Y-116181190D01*
X143406905Y-116181190D01*
X144359286Y-115752619D02*
X144406905Y-115705000D01*
X144502143Y-115657381D01*
X144740239Y-115657381D01*
X144835477Y-115705000D01*
X144883096Y-115752619D01*
X144930715Y-115847857D01*
X144930715Y-115943095D01*
X144883096Y-116085952D01*
X144311667Y-116657381D01*
X144930715Y-116657381D01*
X146391429Y-115990714D02*
X146391429Y-116657381D01*
X146153333Y-115609762D02*
X145915238Y-116324048D01*
X146534286Y-116324048D01*
X146962857Y-116609762D02*
X146962857Y-116657381D01*
X146915238Y-116752619D01*
X146867619Y-116800238D01*
X147296190Y-115657381D02*
X147962857Y-115657381D01*
X147534285Y-116657381D01*
X148343809Y-116657381D02*
X148343809Y-115657381D01*
X148439047Y-116276429D02*
X148724762Y-116657381D01*
X148724762Y-115990714D02*
X148343809Y-116371667D01*
X156678334Y-116657381D02*
X156345000Y-116181190D01*
X156106905Y-116657381D02*
X156106905Y-115657381D01*
X156487858Y-115657381D01*
X156583096Y-115705000D01*
X156630715Y-115752619D01*
X156678334Y-115847857D01*
X156678334Y-115990714D01*
X156630715Y-116085952D01*
X156583096Y-116133571D01*
X156487858Y-116181190D01*
X156106905Y-116181190D01*
X157011667Y-115657381D02*
X157630715Y-115657381D01*
X157297381Y-116038333D01*
X157440239Y-116038333D01*
X157535477Y-116085952D01*
X157583096Y-116133571D01*
X157630715Y-116228810D01*
X157630715Y-116466905D01*
X157583096Y-116562143D01*
X157535477Y-116609762D01*
X157440239Y-116657381D01*
X157154524Y-116657381D01*
X157059286Y-116609762D01*
X157011667Y-116562143D01*
X159091429Y-115990714D02*
X159091429Y-116657381D01*
X158853333Y-115609762D02*
X158615238Y-116324048D01*
X159234286Y-116324048D01*
X159662857Y-116609762D02*
X159662857Y-116657381D01*
X159615238Y-116752619D01*
X159567619Y-116800238D01*
X159996190Y-115657381D02*
X160662857Y-115657381D01*
X160234285Y-116657381D01*
X161043809Y-116657381D02*
X161043809Y-115657381D01*
X161139047Y-116276429D02*
X161424762Y-116657381D01*
X161424762Y-115990714D02*
X161043809Y-116371667D01*
X168108334Y-116657381D02*
X167775000Y-116181190D01*
X167536905Y-116657381D02*
X167536905Y-115657381D01*
X167917858Y-115657381D01*
X168013096Y-115705000D01*
X168060715Y-115752619D01*
X168108334Y-115847857D01*
X168108334Y-115990714D01*
X168060715Y-116085952D01*
X168013096Y-116133571D01*
X167917858Y-116181190D01*
X167536905Y-116181190D01*
X168965477Y-115990714D02*
X168965477Y-116657381D01*
X168727381Y-115609762D02*
X168489286Y-116324048D01*
X169108334Y-116324048D01*
X170521429Y-115990714D02*
X170521429Y-116657381D01*
X170283333Y-115609762D02*
X170045238Y-116324048D01*
X170664286Y-116324048D01*
X171092857Y-116609762D02*
X171092857Y-116657381D01*
X171045238Y-116752619D01*
X170997619Y-116800238D01*
X171426190Y-115657381D02*
X172092857Y-115657381D01*
X171664285Y-116657381D01*
X172473809Y-116657381D02*
X172473809Y-115657381D01*
X172569047Y-116276429D02*
X172854762Y-116657381D01*
X172854762Y-115990714D02*
X172473809Y-116371667D01*
X109116762Y-101663333D02*
X109164381Y-101520476D01*
X109164381Y-101282380D01*
X109116762Y-101187142D01*
X109069143Y-101139523D01*
X108973905Y-101091904D01*
X108878667Y-101091904D01*
X108783429Y-101139523D01*
X108735810Y-101187142D01*
X108688190Y-101282380D01*
X108640571Y-101472857D01*
X108592952Y-101568095D01*
X108545333Y-101615714D01*
X108450095Y-101663333D01*
X108354857Y-101663333D01*
X108259619Y-101615714D01*
X108212000Y-101568095D01*
X108164381Y-101472857D01*
X108164381Y-101234761D01*
X108212000Y-101091904D01*
X108164381Y-100758571D02*
X109164381Y-100520476D01*
X108450095Y-100329999D01*
X109164381Y-100139523D01*
X108164381Y-99901428D01*
X109164381Y-98996666D02*
X109164381Y-99568095D01*
X109164381Y-99282381D02*
X108164381Y-99282381D01*
X108307238Y-99377619D01*
X108402476Y-99472857D01*
X108450095Y-99568095D01*
X112268261Y-101532095D02*
X111792070Y-101865429D01*
X112268261Y-102103524D02*
X111268261Y-102103524D01*
X111268261Y-101722571D01*
X111315880Y-101627333D01*
X111363499Y-101579714D01*
X111458737Y-101532095D01*
X111601594Y-101532095D01*
X111696832Y-101579714D01*
X111744451Y-101627333D01*
X111792070Y-101722571D01*
X111792070Y-102103524D01*
X112220642Y-100722571D02*
X112268261Y-100817809D01*
X112268261Y-101008286D01*
X112220642Y-101103524D01*
X112125404Y-101151143D01*
X111744451Y-101151143D01*
X111649213Y-101103524D01*
X111601594Y-101008286D01*
X111601594Y-100817809D01*
X111649213Y-100722571D01*
X111744451Y-100674952D01*
X111839690Y-100674952D01*
X111934928Y-101151143D01*
X112220642Y-100294000D02*
X112268261Y-100198762D01*
X112268261Y-100008286D01*
X112220642Y-99913047D01*
X112125404Y-99865428D01*
X112077785Y-99865428D01*
X111982547Y-99913047D01*
X111934928Y-100008286D01*
X111934928Y-100151143D01*
X111887309Y-100246381D01*
X111792070Y-100294000D01*
X111744451Y-100294000D01*
X111649213Y-100246381D01*
X111601594Y-100151143D01*
X111601594Y-100008286D01*
X111649213Y-99913047D01*
X112220642Y-99055904D02*
X112268261Y-99151142D01*
X112268261Y-99341619D01*
X112220642Y-99436857D01*
X112125404Y-99484476D01*
X111744451Y-99484476D01*
X111649213Y-99436857D01*
X111601594Y-99341619D01*
X111601594Y-99151142D01*
X111649213Y-99055904D01*
X111744451Y-99008285D01*
X111839690Y-99008285D01*
X111934928Y-99484476D01*
X111601594Y-98722571D02*
X111601594Y-98341619D01*
X111268261Y-98579714D02*
X112125404Y-98579714D01*
X112220642Y-98532095D01*
X112268261Y-98436857D01*
X112268261Y-98341619D01*
X128722381Y-88677381D02*
X127722381Y-88677381D01*
X127722381Y-88439286D01*
X127770000Y-88296428D01*
X127865238Y-88201190D01*
X127960476Y-88153571D01*
X128150952Y-88105952D01*
X128293810Y-88105952D01*
X128484286Y-88153571D01*
X128579524Y-88201190D01*
X128674762Y-88296428D01*
X128722381Y-88439286D01*
X128722381Y-88677381D01*
X128722381Y-87153571D02*
X128722381Y-87725000D01*
X128722381Y-87439286D02*
X127722381Y-87439286D01*
X127865238Y-87534524D01*
X127960476Y-87629762D01*
X128008095Y-87725000D01*
X127722381Y-86534524D02*
X127722381Y-86439285D01*
X127770000Y-86344047D01*
X127817619Y-86296428D01*
X127912857Y-86248809D01*
X128103333Y-86201190D01*
X128341429Y-86201190D01*
X128531905Y-86248809D01*
X128627143Y-86296428D01*
X128674762Y-86344047D01*
X128722381Y-86439285D01*
X128722381Y-86534524D01*
X128674762Y-86629762D01*
X128627143Y-86677381D01*
X128531905Y-86725000D01*
X128341429Y-86772619D01*
X128103333Y-86772619D01*
X127912857Y-86725000D01*
X127817619Y-86677381D01*
X127770000Y-86629762D01*
X127722381Y-86534524D01*
X128722381Y-84534523D02*
X128722381Y-85010714D01*
X127722381Y-85010714D01*
X128198571Y-84201190D02*
X128198571Y-83867856D01*
X128722381Y-83724999D02*
X128722381Y-84201190D01*
X127722381Y-84201190D01*
X127722381Y-83724999D01*
X128722381Y-83296428D02*
X127722381Y-83296428D01*
X127722381Y-83058333D01*
X127770000Y-82915475D01*
X127865238Y-82820237D01*
X127960476Y-82772618D01*
X128150952Y-82724999D01*
X128293810Y-82724999D01*
X128484286Y-82772618D01*
X128579524Y-82820237D01*
X128674762Y-82915475D01*
X128722381Y-83058333D01*
X128722381Y-83296428D01*
X123642381Y-88677381D02*
X122642381Y-88677381D01*
X122642381Y-88439286D01*
X122690000Y-88296428D01*
X122785238Y-88201190D01*
X122880476Y-88153571D01*
X123070952Y-88105952D01*
X123213810Y-88105952D01*
X123404286Y-88153571D01*
X123499524Y-88201190D01*
X123594762Y-88296428D01*
X123642381Y-88439286D01*
X123642381Y-88677381D01*
X123642381Y-87153571D02*
X123642381Y-87725000D01*
X123642381Y-87439286D02*
X122642381Y-87439286D01*
X122785238Y-87534524D01*
X122880476Y-87629762D01*
X122928095Y-87725000D01*
X123642381Y-86201190D02*
X123642381Y-86772619D01*
X123642381Y-86486905D02*
X122642381Y-86486905D01*
X122785238Y-86582143D01*
X122880476Y-86677381D01*
X122928095Y-86772619D01*
X123642381Y-84534523D02*
X123642381Y-85010714D01*
X122642381Y-85010714D01*
X123118571Y-84201190D02*
X123118571Y-83867856D01*
X123642381Y-83724999D02*
X123642381Y-84201190D01*
X122642381Y-84201190D01*
X122642381Y-83724999D01*
X123642381Y-83296428D02*
X122642381Y-83296428D01*
X122642381Y-83058333D01*
X122690000Y-82915475D01*
X122785238Y-82820237D01*
X122880476Y-82772618D01*
X123070952Y-82724999D01*
X123213810Y-82724999D01*
X123404286Y-82772618D01*
X123499524Y-82820237D01*
X123594762Y-82915475D01*
X123642381Y-83058333D01*
X123642381Y-83296428D01*
X143962381Y-97321666D02*
X143486190Y-97655000D01*
X143962381Y-97893095D02*
X142962381Y-97893095D01*
X142962381Y-97512142D01*
X143010000Y-97416904D01*
X143057619Y-97369285D01*
X143152857Y-97321666D01*
X143295714Y-97321666D01*
X143390952Y-97369285D01*
X143438571Y-97416904D01*
X143486190Y-97512142D01*
X143486190Y-97893095D01*
X142962381Y-96416904D02*
X142962381Y-96893095D01*
X143438571Y-96940714D01*
X143390952Y-96893095D01*
X143343333Y-96797857D01*
X143343333Y-96559761D01*
X143390952Y-96464523D01*
X143438571Y-96416904D01*
X143533810Y-96369285D01*
X143771905Y-96369285D01*
X143867143Y-96416904D01*
X143914762Y-96464523D01*
X143962381Y-96559761D01*
X143962381Y-96797857D01*
X143914762Y-96893095D01*
X143867143Y-96940714D01*
X143962381Y-94575238D02*
X143962381Y-95146667D01*
X143962381Y-94860953D02*
X142962381Y-94860953D01*
X143105238Y-94956191D01*
X143200476Y-95051429D01*
X143248095Y-95146667D01*
X142962381Y-93956191D02*
X142962381Y-93860952D01*
X143010000Y-93765714D01*
X143057619Y-93718095D01*
X143152857Y-93670476D01*
X143343333Y-93622857D01*
X143581429Y-93622857D01*
X143771905Y-93670476D01*
X143867143Y-93718095D01*
X143914762Y-93765714D01*
X143962381Y-93860952D01*
X143962381Y-93956191D01*
X143914762Y-94051429D01*
X143867143Y-94099048D01*
X143771905Y-94146667D01*
X143581429Y-94194286D01*
X143343333Y-94194286D01*
X143152857Y-94146667D01*
X143057619Y-94099048D01*
X143010000Y-94051429D01*
X142962381Y-93956191D01*
X143962381Y-93194286D02*
X142962381Y-93194286D01*
X143581429Y-93099048D02*
X143962381Y-92813333D01*
X143295714Y-92813333D02*
X143676667Y-93194286D01*
X143962381Y-83986666D02*
X143486190Y-84320000D01*
X143962381Y-84558095D02*
X142962381Y-84558095D01*
X142962381Y-84177142D01*
X143010000Y-84081904D01*
X143057619Y-84034285D01*
X143152857Y-83986666D01*
X143295714Y-83986666D01*
X143390952Y-84034285D01*
X143438571Y-84081904D01*
X143486190Y-84177142D01*
X143486190Y-84558095D01*
X142962381Y-83129523D02*
X142962381Y-83320000D01*
X143010000Y-83415238D01*
X143057619Y-83462857D01*
X143200476Y-83558095D01*
X143390952Y-83605714D01*
X143771905Y-83605714D01*
X143867143Y-83558095D01*
X143914762Y-83510476D01*
X143962381Y-83415238D01*
X143962381Y-83224761D01*
X143914762Y-83129523D01*
X143867143Y-83081904D01*
X143771905Y-83034285D01*
X143533810Y-83034285D01*
X143438571Y-83081904D01*
X143390952Y-83129523D01*
X143343333Y-83224761D01*
X143343333Y-83415238D01*
X143390952Y-83510476D01*
X143438571Y-83558095D01*
X143533810Y-83605714D01*
X143962381Y-81240238D02*
X143962381Y-81811667D01*
X143962381Y-81525953D02*
X142962381Y-81525953D01*
X143105238Y-81621191D01*
X143200476Y-81716429D01*
X143248095Y-81811667D01*
X142962381Y-80621191D02*
X142962381Y-80525952D01*
X143010000Y-80430714D01*
X143057619Y-80383095D01*
X143152857Y-80335476D01*
X143343333Y-80287857D01*
X143581429Y-80287857D01*
X143771905Y-80335476D01*
X143867143Y-80383095D01*
X143914762Y-80430714D01*
X143962381Y-80525952D01*
X143962381Y-80621191D01*
X143914762Y-80716429D01*
X143867143Y-80764048D01*
X143771905Y-80811667D01*
X143581429Y-80859286D01*
X143343333Y-80859286D01*
X143152857Y-80811667D01*
X143057619Y-80764048D01*
X143010000Y-80716429D01*
X142962381Y-80621191D01*
X143962381Y-79859286D02*
X142962381Y-79859286D01*
X143581429Y-79764048D02*
X143962381Y-79478333D01*
X143295714Y-79478333D02*
X143676667Y-79859286D01*
X128722381Y-97321666D02*
X128246190Y-97655000D01*
X128722381Y-97893095D02*
X127722381Y-97893095D01*
X127722381Y-97512142D01*
X127770000Y-97416904D01*
X127817619Y-97369285D01*
X127912857Y-97321666D01*
X128055714Y-97321666D01*
X128150952Y-97369285D01*
X128198571Y-97416904D01*
X128246190Y-97512142D01*
X128246190Y-97893095D01*
X127722381Y-96988333D02*
X127722381Y-96321666D01*
X128722381Y-96750238D01*
X127817619Y-95218095D02*
X127770000Y-95170476D01*
X127722381Y-95075238D01*
X127722381Y-94837142D01*
X127770000Y-94741904D01*
X127817619Y-94694285D01*
X127912857Y-94646666D01*
X128008095Y-94646666D01*
X128150952Y-94694285D01*
X128722381Y-95265714D01*
X128722381Y-94646666D01*
X127817619Y-94265714D02*
X127770000Y-94218095D01*
X127722381Y-94122857D01*
X127722381Y-93884761D01*
X127770000Y-93789523D01*
X127817619Y-93741904D01*
X127912857Y-93694285D01*
X128008095Y-93694285D01*
X128150952Y-93741904D01*
X128722381Y-94313333D01*
X128722381Y-93694285D01*
X127722381Y-93075238D02*
X127722381Y-92979999D01*
X127770000Y-92884761D01*
X127817619Y-92837142D01*
X127912857Y-92789523D01*
X128103333Y-92741904D01*
X128341429Y-92741904D01*
X128531905Y-92789523D01*
X128627143Y-92837142D01*
X128674762Y-92884761D01*
X128722381Y-92979999D01*
X128722381Y-93075238D01*
X128674762Y-93170476D01*
X128627143Y-93218095D01*
X128531905Y-93265714D01*
X128341429Y-93313333D01*
X128103333Y-93313333D01*
X127912857Y-93265714D01*
X127817619Y-93218095D01*
X127770000Y-93170476D01*
X127722381Y-93075238D01*
X123642381Y-97321666D02*
X123166190Y-97655000D01*
X123642381Y-97893095D02*
X122642381Y-97893095D01*
X122642381Y-97512142D01*
X122690000Y-97416904D01*
X122737619Y-97369285D01*
X122832857Y-97321666D01*
X122975714Y-97321666D01*
X123070952Y-97369285D01*
X123118571Y-97416904D01*
X123166190Y-97512142D01*
X123166190Y-97893095D01*
X123070952Y-96750238D02*
X123023333Y-96845476D01*
X122975714Y-96893095D01*
X122880476Y-96940714D01*
X122832857Y-96940714D01*
X122737619Y-96893095D01*
X122690000Y-96845476D01*
X122642381Y-96750238D01*
X122642381Y-96559761D01*
X122690000Y-96464523D01*
X122737619Y-96416904D01*
X122832857Y-96369285D01*
X122880476Y-96369285D01*
X122975714Y-96416904D01*
X123023333Y-96464523D01*
X123070952Y-96559761D01*
X123070952Y-96750238D01*
X123118571Y-96845476D01*
X123166190Y-96893095D01*
X123261429Y-96940714D01*
X123451905Y-96940714D01*
X123547143Y-96893095D01*
X123594762Y-96845476D01*
X123642381Y-96750238D01*
X123642381Y-96559761D01*
X123594762Y-96464523D01*
X123547143Y-96416904D01*
X123451905Y-96369285D01*
X123261429Y-96369285D01*
X123166190Y-96416904D01*
X123118571Y-96464523D01*
X123070952Y-96559761D01*
X122737619Y-95218095D02*
X122690000Y-95170476D01*
X122642381Y-95075238D01*
X122642381Y-94837142D01*
X122690000Y-94741904D01*
X122737619Y-94694285D01*
X122832857Y-94646666D01*
X122928095Y-94646666D01*
X123070952Y-94694285D01*
X123642381Y-95265714D01*
X123642381Y-94646666D01*
X122737619Y-94265714D02*
X122690000Y-94218095D01*
X122642381Y-94122857D01*
X122642381Y-93884761D01*
X122690000Y-93789523D01*
X122737619Y-93741904D01*
X122832857Y-93694285D01*
X122928095Y-93694285D01*
X123070952Y-93741904D01*
X123642381Y-94313333D01*
X123642381Y-93694285D01*
X122642381Y-93075238D02*
X122642381Y-92979999D01*
X122690000Y-92884761D01*
X122737619Y-92837142D01*
X122832857Y-92789523D01*
X123023333Y-92741904D01*
X123261429Y-92741904D01*
X123451905Y-92789523D01*
X123547143Y-92837142D01*
X123594762Y-92884761D01*
X123642381Y-92979999D01*
X123642381Y-93075238D01*
X123594762Y-93170476D01*
X123547143Y-93218095D01*
X123451905Y-93265714D01*
X123261429Y-93313333D01*
X123023333Y-93313333D01*
X122832857Y-93265714D01*
X122737619Y-93218095D01*
X122690000Y-93170476D01*
X122642381Y-93075238D01*
X134389762Y-99123333D02*
X134437381Y-98980476D01*
X134437381Y-98742380D01*
X134389762Y-98647142D01*
X134342143Y-98599523D01*
X134246905Y-98551904D01*
X134151667Y-98551904D01*
X134056429Y-98599523D01*
X134008810Y-98647142D01*
X133961190Y-98742380D01*
X133913571Y-98932857D01*
X133865952Y-99028095D01*
X133818333Y-99075714D01*
X133723095Y-99123333D01*
X133627857Y-99123333D01*
X133532619Y-99075714D01*
X133485000Y-99028095D01*
X133437381Y-98932857D01*
X133437381Y-98694761D01*
X133485000Y-98551904D01*
X133437381Y-98218571D02*
X134437381Y-97980476D01*
X133723095Y-97789999D01*
X134437381Y-97599523D01*
X133437381Y-97361428D01*
X133532619Y-97028095D02*
X133485000Y-96980476D01*
X133437381Y-96885238D01*
X133437381Y-96647142D01*
X133485000Y-96551904D01*
X133532619Y-96504285D01*
X133627857Y-96456666D01*
X133723095Y-96456666D01*
X133865952Y-96504285D01*
X134437381Y-97075714D01*
X134437381Y-96456666D01*
X134437381Y-94718095D02*
X133437381Y-94718095D01*
X133437381Y-94480000D01*
X133485000Y-94337142D01*
X133580238Y-94241904D01*
X133675476Y-94194285D01*
X133865952Y-94146666D01*
X134008810Y-94146666D01*
X134199286Y-94194285D01*
X134294524Y-94241904D01*
X134389762Y-94337142D01*
X134437381Y-94480000D01*
X134437381Y-94718095D01*
X133865952Y-93575238D02*
X133818333Y-93670476D01*
X133770714Y-93718095D01*
X133675476Y-93765714D01*
X133627857Y-93765714D01*
X133532619Y-93718095D01*
X133485000Y-93670476D01*
X133437381Y-93575238D01*
X133437381Y-93384761D01*
X133485000Y-93289523D01*
X133532619Y-93241904D01*
X133627857Y-93194285D01*
X133675476Y-93194285D01*
X133770714Y-93241904D01*
X133818333Y-93289523D01*
X133865952Y-93384761D01*
X133865952Y-93575238D01*
X133913571Y-93670476D01*
X133961190Y-93718095D01*
X134056429Y-93765714D01*
X134246905Y-93765714D01*
X134342143Y-93718095D01*
X134389762Y-93670476D01*
X134437381Y-93575238D01*
X134437381Y-93384761D01*
X134389762Y-93289523D01*
X134342143Y-93241904D01*
X134246905Y-93194285D01*
X134056429Y-93194285D01*
X133961190Y-93241904D01*
X133913571Y-93289523D01*
X133865952Y-93384761D01*
X134389762Y-85153333D02*
X134437381Y-85010476D01*
X134437381Y-84772380D01*
X134389762Y-84677142D01*
X134342143Y-84629523D01*
X134246905Y-84581904D01*
X134151667Y-84581904D01*
X134056429Y-84629523D01*
X134008810Y-84677142D01*
X133961190Y-84772380D01*
X133913571Y-84962857D01*
X133865952Y-85058095D01*
X133818333Y-85105714D01*
X133723095Y-85153333D01*
X133627857Y-85153333D01*
X133532619Y-85105714D01*
X133485000Y-85058095D01*
X133437381Y-84962857D01*
X133437381Y-84724761D01*
X133485000Y-84581904D01*
X133437381Y-84248571D02*
X134437381Y-84010476D01*
X133723095Y-83819999D01*
X134437381Y-83629523D01*
X133437381Y-83391428D01*
X133437381Y-83105714D02*
X133437381Y-82486666D01*
X133818333Y-82820000D01*
X133818333Y-82677142D01*
X133865952Y-82581904D01*
X133913571Y-82534285D01*
X134008810Y-82486666D01*
X134246905Y-82486666D01*
X134342143Y-82534285D01*
X134389762Y-82581904D01*
X134437381Y-82677142D01*
X134437381Y-82962857D01*
X134389762Y-83058095D01*
X134342143Y-83105714D01*
X134437381Y-80748095D02*
X133437381Y-80748095D01*
X133437381Y-80510000D01*
X133485000Y-80367142D01*
X133580238Y-80271904D01*
X133675476Y-80224285D01*
X133865952Y-80176666D01*
X134008810Y-80176666D01*
X134199286Y-80224285D01*
X134294524Y-80271904D01*
X134389762Y-80367142D01*
X134437381Y-80510000D01*
X134437381Y-80748095D01*
X134437381Y-79700476D02*
X134437381Y-79510000D01*
X134389762Y-79414761D01*
X134342143Y-79367142D01*
X134199286Y-79271904D01*
X134008810Y-79224285D01*
X133627857Y-79224285D01*
X133532619Y-79271904D01*
X133485000Y-79319523D01*
X133437381Y-79414761D01*
X133437381Y-79605238D01*
X133485000Y-79700476D01*
X133532619Y-79748095D01*
X133627857Y-79795714D01*
X133865952Y-79795714D01*
X133961190Y-79748095D01*
X134008810Y-79700476D01*
X134056429Y-79605238D01*
X134056429Y-79414761D01*
X134008810Y-79319523D01*
X133961190Y-79271904D01*
X133865952Y-79224285D01*
X190166667Y-106132381D02*
X190166667Y-106846667D01*
X190119047Y-106989524D01*
X190023809Y-107084762D01*
X189880952Y-107132381D01*
X189785714Y-107132381D01*
X190595238Y-106227619D02*
X190642857Y-106180000D01*
X190738095Y-106132381D01*
X190976191Y-106132381D01*
X191071429Y-106180000D01*
X191119048Y-106227619D01*
X191166667Y-106322857D01*
X191166667Y-106418095D01*
X191119048Y-106560952D01*
X190547619Y-107132381D01*
X191166667Y-107132381D01*
X194762381Y-94606667D02*
X194286190Y-94940001D01*
X194762381Y-95178096D02*
X193762381Y-95178096D01*
X193762381Y-94797143D01*
X193810000Y-94701905D01*
X193857619Y-94654286D01*
X193952857Y-94606667D01*
X194095714Y-94606667D01*
X194190952Y-94654286D01*
X194238571Y-94701905D01*
X194286190Y-94797143D01*
X194286190Y-95178096D01*
X194714762Y-93797143D02*
X194762381Y-93892381D01*
X194762381Y-94082858D01*
X194714762Y-94178096D01*
X194619524Y-94225715D01*
X194238571Y-94225715D01*
X194143333Y-94178096D01*
X194095714Y-94082858D01*
X194095714Y-93892381D01*
X194143333Y-93797143D01*
X194238571Y-93749524D01*
X194333810Y-93749524D01*
X194429048Y-94225715D01*
X194762381Y-93178096D02*
X194714762Y-93273334D01*
X194619524Y-93320953D01*
X193762381Y-93320953D01*
X194762381Y-92368571D02*
X194238571Y-92368571D01*
X194143333Y-92416190D01*
X194095714Y-92511428D01*
X194095714Y-92701905D01*
X194143333Y-92797143D01*
X194714762Y-92368571D02*
X194762381Y-92463809D01*
X194762381Y-92701905D01*
X194714762Y-92797143D01*
X194619524Y-92844762D01*
X194524286Y-92844762D01*
X194429048Y-92797143D01*
X194381429Y-92701905D01*
X194381429Y-92463809D01*
X194333810Y-92368571D01*
X194095714Y-91987619D02*
X194762381Y-91749524D01*
X194095714Y-91511428D02*
X194762381Y-91749524D01*
X195000476Y-91844762D01*
X195048095Y-91892381D01*
X195095714Y-91987619D01*
X194762381Y-89844761D02*
X194762381Y-90416190D01*
X194762381Y-90130476D02*
X193762381Y-90130476D01*
X193905238Y-90225714D01*
X194000476Y-90320952D01*
X194048095Y-90416190D01*
X194381429Y-89416190D02*
X194381429Y-88654285D01*
X194190952Y-88035238D02*
X194143333Y-88130476D01*
X194095714Y-88178095D01*
X194000476Y-88225714D01*
X193952857Y-88225714D01*
X193857619Y-88178095D01*
X193810000Y-88130476D01*
X193762381Y-88035238D01*
X193762381Y-87844761D01*
X193810000Y-87749523D01*
X193857619Y-87701904D01*
X193952857Y-87654285D01*
X194000476Y-87654285D01*
X194095714Y-87701904D01*
X194143333Y-87749523D01*
X194190952Y-87844761D01*
X194190952Y-88035238D01*
X194238571Y-88130476D01*
X194286190Y-88178095D01*
X194381429Y-88225714D01*
X194571905Y-88225714D01*
X194667143Y-88178095D01*
X194714762Y-88130476D01*
X194762381Y-88035238D01*
X194762381Y-87844761D01*
X194714762Y-87749523D01*
X194667143Y-87701904D01*
X194571905Y-87654285D01*
X194381429Y-87654285D01*
X194286190Y-87701904D01*
X194238571Y-87749523D01*
X194190952Y-87844761D01*
X127936667Y-111212381D02*
X127936667Y-111926667D01*
X127889047Y-112069524D01*
X127793809Y-112164762D01*
X127650952Y-112212381D01*
X127555714Y-112212381D01*
X128936667Y-112212381D02*
X128365238Y-112212381D01*
X128650952Y-112212381D02*
X128650952Y-111212381D01*
X128555714Y-111355238D01*
X128460476Y-111450476D01*
X128365238Y-111498095D01*
X129993333Y-105807381D02*
X129993333Y-104807381D01*
X130231428Y-104807381D01*
X130374286Y-104855000D01*
X130469524Y-104950238D01*
X130517143Y-105045476D01*
X130564762Y-105235952D01*
X130564762Y-105378810D01*
X130517143Y-105569286D01*
X130469524Y-105664524D01*
X130374286Y-105759762D01*
X130231428Y-105807381D01*
X129993333Y-105807381D01*
X130945714Y-105759762D02*
X131088571Y-105807381D01*
X131326667Y-105807381D01*
X131421905Y-105759762D01*
X131469524Y-105712143D01*
X131517143Y-105616905D01*
X131517143Y-105521667D01*
X131469524Y-105426429D01*
X131421905Y-105378810D01*
X131326667Y-105331190D01*
X131136190Y-105283571D01*
X131040952Y-105235952D01*
X130993333Y-105188333D01*
X130945714Y-105093095D01*
X130945714Y-104997857D01*
X130993333Y-104902619D01*
X131040952Y-104855000D01*
X131136190Y-104807381D01*
X131374286Y-104807381D01*
X131517143Y-104855000D01*
X132469524Y-105807381D02*
X131898095Y-105807381D01*
X132183809Y-105807381D02*
X132183809Y-104807381D01*
X132088571Y-104950238D01*
X131993333Y-105045476D01*
X131898095Y-105093095D01*
X133040952Y-105235952D02*
X132945714Y-105188333D01*
X132898095Y-105140714D01*
X132850476Y-105045476D01*
X132850476Y-104997857D01*
X132898095Y-104902619D01*
X132945714Y-104855000D01*
X133040952Y-104807381D01*
X133231429Y-104807381D01*
X133326667Y-104855000D01*
X133374286Y-104902619D01*
X133421905Y-104997857D01*
X133421905Y-105045476D01*
X133374286Y-105140714D01*
X133326667Y-105188333D01*
X133231429Y-105235952D01*
X133040952Y-105235952D01*
X132945714Y-105283571D01*
X132898095Y-105331190D01*
X132850476Y-105426429D01*
X132850476Y-105616905D01*
X132898095Y-105712143D01*
X132945714Y-105759762D01*
X133040952Y-105807381D01*
X133231429Y-105807381D01*
X133326667Y-105759762D01*
X133374286Y-105712143D01*
X133421905Y-105616905D01*
X133421905Y-105426429D01*
X133374286Y-105331190D01*
X133326667Y-105283571D01*
X133231429Y-105235952D01*
X134183810Y-105283571D02*
X134326667Y-105331190D01*
X134374286Y-105378810D01*
X134421905Y-105474048D01*
X134421905Y-105616905D01*
X134374286Y-105712143D01*
X134326667Y-105759762D01*
X134231429Y-105807381D01*
X133850476Y-105807381D01*
X133850476Y-104807381D01*
X134183810Y-104807381D01*
X134279048Y-104855000D01*
X134326667Y-104902619D01*
X134374286Y-104997857D01*
X134374286Y-105093095D01*
X134326667Y-105188333D01*
X134279048Y-105235952D01*
X134183810Y-105283571D01*
X133850476Y-105283571D01*
X134802857Y-104902619D02*
X134850476Y-104855000D01*
X134945714Y-104807381D01*
X135183810Y-104807381D01*
X135279048Y-104855000D01*
X135326667Y-104902619D01*
X135374286Y-104997857D01*
X135374286Y-105093095D01*
X135326667Y-105235952D01*
X134755238Y-105807381D01*
X135374286Y-105807381D01*
X135993333Y-104807381D02*
X136088572Y-104807381D01*
X136183810Y-104855000D01*
X136231429Y-104902619D01*
X136279048Y-104997857D01*
X136326667Y-105188333D01*
X136326667Y-105426429D01*
X136279048Y-105616905D01*
X136231429Y-105712143D01*
X136183810Y-105759762D01*
X136088572Y-105807381D01*
X135993333Y-105807381D01*
X135898095Y-105759762D01*
X135850476Y-105712143D01*
X135802857Y-105616905D01*
X135755238Y-105426429D01*
X135755238Y-105188333D01*
X135802857Y-104997857D01*
X135850476Y-104902619D01*
X135898095Y-104855000D01*
X135993333Y-104807381D01*
X136755238Y-105426429D02*
X137517143Y-105426429D01*
X137945714Y-105521667D02*
X138421905Y-105521667D01*
X137850476Y-105807381D02*
X138183809Y-104807381D01*
X138517143Y-105807381D01*
X139040952Y-104807381D02*
X139136191Y-104807381D01*
X139231429Y-104855000D01*
X139279048Y-104902619D01*
X139326667Y-104997857D01*
X139374286Y-105188333D01*
X139374286Y-105426429D01*
X139326667Y-105616905D01*
X139279048Y-105712143D01*
X139231429Y-105759762D01*
X139136191Y-105807381D01*
X139040952Y-105807381D01*
X138945714Y-105759762D01*
X138898095Y-105712143D01*
X138850476Y-105616905D01*
X138802857Y-105426429D01*
X138802857Y-105188333D01*
X138850476Y-104997857D01*
X138898095Y-104902619D01*
X138945714Y-104855000D01*
X139040952Y-104807381D01*
X152066667Y-111212381D02*
X152066667Y-111926667D01*
X152019047Y-112069524D01*
X151923809Y-112164762D01*
X151780952Y-112212381D01*
X151685714Y-112212381D01*
X152447619Y-111212381D02*
X153066667Y-111212381D01*
X152733333Y-111593333D01*
X152876191Y-111593333D01*
X152971429Y-111640952D01*
X153019048Y-111688571D01*
X153066667Y-111783810D01*
X153066667Y-112021905D01*
X153019048Y-112117143D01*
X152971429Y-112164762D01*
X152876191Y-112212381D01*
X152590476Y-112212381D01*
X152495238Y-112164762D01*
X152447619Y-112117143D01*
X141423333Y-105807381D02*
X141423333Y-104807381D01*
X141661428Y-104807381D01*
X141804286Y-104855000D01*
X141899524Y-104950238D01*
X141947143Y-105045476D01*
X141994762Y-105235952D01*
X141994762Y-105378810D01*
X141947143Y-105569286D01*
X141899524Y-105664524D01*
X141804286Y-105759762D01*
X141661428Y-105807381D01*
X141423333Y-105807381D01*
X142375714Y-105759762D02*
X142518571Y-105807381D01*
X142756667Y-105807381D01*
X142851905Y-105759762D01*
X142899524Y-105712143D01*
X142947143Y-105616905D01*
X142947143Y-105521667D01*
X142899524Y-105426429D01*
X142851905Y-105378810D01*
X142756667Y-105331190D01*
X142566190Y-105283571D01*
X142470952Y-105235952D01*
X142423333Y-105188333D01*
X142375714Y-105093095D01*
X142375714Y-104997857D01*
X142423333Y-104902619D01*
X142470952Y-104855000D01*
X142566190Y-104807381D01*
X142804286Y-104807381D01*
X142947143Y-104855000D01*
X143899524Y-105807381D02*
X143328095Y-105807381D01*
X143613809Y-105807381D02*
X143613809Y-104807381D01*
X143518571Y-104950238D01*
X143423333Y-105045476D01*
X143328095Y-105093095D01*
X144470952Y-105235952D02*
X144375714Y-105188333D01*
X144328095Y-105140714D01*
X144280476Y-105045476D01*
X144280476Y-104997857D01*
X144328095Y-104902619D01*
X144375714Y-104855000D01*
X144470952Y-104807381D01*
X144661429Y-104807381D01*
X144756667Y-104855000D01*
X144804286Y-104902619D01*
X144851905Y-104997857D01*
X144851905Y-105045476D01*
X144804286Y-105140714D01*
X144756667Y-105188333D01*
X144661429Y-105235952D01*
X144470952Y-105235952D01*
X144375714Y-105283571D01*
X144328095Y-105331190D01*
X144280476Y-105426429D01*
X144280476Y-105616905D01*
X144328095Y-105712143D01*
X144375714Y-105759762D01*
X144470952Y-105807381D01*
X144661429Y-105807381D01*
X144756667Y-105759762D01*
X144804286Y-105712143D01*
X144851905Y-105616905D01*
X144851905Y-105426429D01*
X144804286Y-105331190D01*
X144756667Y-105283571D01*
X144661429Y-105235952D01*
X145613810Y-105283571D02*
X145756667Y-105331190D01*
X145804286Y-105378810D01*
X145851905Y-105474048D01*
X145851905Y-105616905D01*
X145804286Y-105712143D01*
X145756667Y-105759762D01*
X145661429Y-105807381D01*
X145280476Y-105807381D01*
X145280476Y-104807381D01*
X145613810Y-104807381D01*
X145709048Y-104855000D01*
X145756667Y-104902619D01*
X145804286Y-104997857D01*
X145804286Y-105093095D01*
X145756667Y-105188333D01*
X145709048Y-105235952D01*
X145613810Y-105283571D01*
X145280476Y-105283571D01*
X146232857Y-104902619D02*
X146280476Y-104855000D01*
X146375714Y-104807381D01*
X146613810Y-104807381D01*
X146709048Y-104855000D01*
X146756667Y-104902619D01*
X146804286Y-104997857D01*
X146804286Y-105093095D01*
X146756667Y-105235952D01*
X146185238Y-105807381D01*
X146804286Y-105807381D01*
X147423333Y-104807381D02*
X147518572Y-104807381D01*
X147613810Y-104855000D01*
X147661429Y-104902619D01*
X147709048Y-104997857D01*
X147756667Y-105188333D01*
X147756667Y-105426429D01*
X147709048Y-105616905D01*
X147661429Y-105712143D01*
X147613810Y-105759762D01*
X147518572Y-105807381D01*
X147423333Y-105807381D01*
X147328095Y-105759762D01*
X147280476Y-105712143D01*
X147232857Y-105616905D01*
X147185238Y-105426429D01*
X147185238Y-105188333D01*
X147232857Y-104997857D01*
X147280476Y-104902619D01*
X147328095Y-104855000D01*
X147423333Y-104807381D01*
X148185238Y-105426429D02*
X148947143Y-105426429D01*
X149375714Y-105521667D02*
X149851905Y-105521667D01*
X149280476Y-105807381D02*
X149613809Y-104807381D01*
X149947143Y-105807381D01*
X150804286Y-105807381D02*
X150232857Y-105807381D01*
X150518571Y-105807381D02*
X150518571Y-104807381D01*
X150423333Y-104950238D01*
X150328095Y-105045476D01*
X150232857Y-105093095D01*
X181276667Y-95972381D02*
X181276667Y-96686667D01*
X181229047Y-96829524D01*
X181133809Y-96924762D01*
X180990952Y-96972381D01*
X180895714Y-96972381D01*
X182181429Y-96305714D02*
X182181429Y-96972381D01*
X181943333Y-95924762D02*
X181705238Y-96639048D01*
X182324286Y-96639048D01*
X185872381Y-110481667D02*
X185396190Y-110815001D01*
X185872381Y-111053096D02*
X184872381Y-111053096D01*
X184872381Y-110672143D01*
X184920000Y-110576905D01*
X184967619Y-110529286D01*
X185062857Y-110481667D01*
X185205714Y-110481667D01*
X185300952Y-110529286D01*
X185348571Y-110576905D01*
X185396190Y-110672143D01*
X185396190Y-111053096D01*
X185824762Y-109672143D02*
X185872381Y-109767381D01*
X185872381Y-109957858D01*
X185824762Y-110053096D01*
X185729524Y-110100715D01*
X185348571Y-110100715D01*
X185253333Y-110053096D01*
X185205714Y-109957858D01*
X185205714Y-109767381D01*
X185253333Y-109672143D01*
X185348571Y-109624524D01*
X185443810Y-109624524D01*
X185539048Y-110100715D01*
X185872381Y-109053096D02*
X185824762Y-109148334D01*
X185729524Y-109195953D01*
X184872381Y-109195953D01*
X185872381Y-108243571D02*
X185348571Y-108243571D01*
X185253333Y-108291190D01*
X185205714Y-108386428D01*
X185205714Y-108576905D01*
X185253333Y-108672143D01*
X185824762Y-108243571D02*
X185872381Y-108338809D01*
X185872381Y-108576905D01*
X185824762Y-108672143D01*
X185729524Y-108719762D01*
X185634286Y-108719762D01*
X185539048Y-108672143D01*
X185491429Y-108576905D01*
X185491429Y-108338809D01*
X185443810Y-108243571D01*
X185205714Y-107862619D02*
X185872381Y-107624524D01*
X185205714Y-107386428D02*
X185872381Y-107624524D01*
X186110476Y-107719762D01*
X186158095Y-107767381D01*
X186205714Y-107862619D01*
X185872381Y-105719761D02*
X185872381Y-106291190D01*
X185872381Y-106005476D02*
X184872381Y-106005476D01*
X185015238Y-106100714D01*
X185110476Y-106195952D01*
X185158095Y-106291190D01*
X185491429Y-105291190D02*
X185491429Y-104529285D01*
X185205714Y-103624523D02*
X185872381Y-103624523D01*
X184824762Y-103862619D02*
X185539048Y-104100714D01*
X185539048Y-103481666D01*
X152066667Y-106767381D02*
X152066667Y-107481667D01*
X152019047Y-107624524D01*
X151923809Y-107719762D01*
X151780952Y-107767381D01*
X151685714Y-107767381D01*
X153019048Y-106767381D02*
X152542857Y-106767381D01*
X152495238Y-107243571D01*
X152542857Y-107195952D01*
X152638095Y-107148333D01*
X152876191Y-107148333D01*
X152971429Y-107195952D01*
X153019048Y-107243571D01*
X153066667Y-107338810D01*
X153066667Y-107576905D01*
X153019048Y-107672143D01*
X152971429Y-107719762D01*
X152876191Y-107767381D01*
X152638095Y-107767381D01*
X152542857Y-107719762D01*
X152495238Y-107672143D01*
X154123333Y-105807381D02*
X154123333Y-104807381D01*
X154361428Y-104807381D01*
X154504286Y-104855000D01*
X154599524Y-104950238D01*
X154647143Y-105045476D01*
X154694762Y-105235952D01*
X154694762Y-105378810D01*
X154647143Y-105569286D01*
X154599524Y-105664524D01*
X154504286Y-105759762D01*
X154361428Y-105807381D01*
X154123333Y-105807381D01*
X155075714Y-105759762D02*
X155218571Y-105807381D01*
X155456667Y-105807381D01*
X155551905Y-105759762D01*
X155599524Y-105712143D01*
X155647143Y-105616905D01*
X155647143Y-105521667D01*
X155599524Y-105426429D01*
X155551905Y-105378810D01*
X155456667Y-105331190D01*
X155266190Y-105283571D01*
X155170952Y-105235952D01*
X155123333Y-105188333D01*
X155075714Y-105093095D01*
X155075714Y-104997857D01*
X155123333Y-104902619D01*
X155170952Y-104855000D01*
X155266190Y-104807381D01*
X155504286Y-104807381D01*
X155647143Y-104855000D01*
X156599524Y-105807381D02*
X156028095Y-105807381D01*
X156313809Y-105807381D02*
X156313809Y-104807381D01*
X156218571Y-104950238D01*
X156123333Y-105045476D01*
X156028095Y-105093095D01*
X157170952Y-105235952D02*
X157075714Y-105188333D01*
X157028095Y-105140714D01*
X156980476Y-105045476D01*
X156980476Y-104997857D01*
X157028095Y-104902619D01*
X157075714Y-104855000D01*
X157170952Y-104807381D01*
X157361429Y-104807381D01*
X157456667Y-104855000D01*
X157504286Y-104902619D01*
X157551905Y-104997857D01*
X157551905Y-105045476D01*
X157504286Y-105140714D01*
X157456667Y-105188333D01*
X157361429Y-105235952D01*
X157170952Y-105235952D01*
X157075714Y-105283571D01*
X157028095Y-105331190D01*
X156980476Y-105426429D01*
X156980476Y-105616905D01*
X157028095Y-105712143D01*
X157075714Y-105759762D01*
X157170952Y-105807381D01*
X157361429Y-105807381D01*
X157456667Y-105759762D01*
X157504286Y-105712143D01*
X157551905Y-105616905D01*
X157551905Y-105426429D01*
X157504286Y-105331190D01*
X157456667Y-105283571D01*
X157361429Y-105235952D01*
X158313810Y-105283571D02*
X158456667Y-105331190D01*
X158504286Y-105378810D01*
X158551905Y-105474048D01*
X158551905Y-105616905D01*
X158504286Y-105712143D01*
X158456667Y-105759762D01*
X158361429Y-105807381D01*
X157980476Y-105807381D01*
X157980476Y-104807381D01*
X158313810Y-104807381D01*
X158409048Y-104855000D01*
X158456667Y-104902619D01*
X158504286Y-104997857D01*
X158504286Y-105093095D01*
X158456667Y-105188333D01*
X158409048Y-105235952D01*
X158313810Y-105283571D01*
X157980476Y-105283571D01*
X158932857Y-104902619D02*
X158980476Y-104855000D01*
X159075714Y-104807381D01*
X159313810Y-104807381D01*
X159409048Y-104855000D01*
X159456667Y-104902619D01*
X159504286Y-104997857D01*
X159504286Y-105093095D01*
X159456667Y-105235952D01*
X158885238Y-105807381D01*
X159504286Y-105807381D01*
X160123333Y-104807381D02*
X160218572Y-104807381D01*
X160313810Y-104855000D01*
X160361429Y-104902619D01*
X160409048Y-104997857D01*
X160456667Y-105188333D01*
X160456667Y-105426429D01*
X160409048Y-105616905D01*
X160361429Y-105712143D01*
X160313810Y-105759762D01*
X160218572Y-105807381D01*
X160123333Y-105807381D01*
X160028095Y-105759762D01*
X159980476Y-105712143D01*
X159932857Y-105616905D01*
X159885238Y-105426429D01*
X159885238Y-105188333D01*
X159932857Y-104997857D01*
X159980476Y-104902619D01*
X160028095Y-104855000D01*
X160123333Y-104807381D01*
X160885238Y-105426429D02*
X161647143Y-105426429D01*
X162075714Y-105521667D02*
X162551905Y-105521667D01*
X161980476Y-105807381D02*
X162313809Y-104807381D01*
X162647143Y-105807381D01*
X162932857Y-104902619D02*
X162980476Y-104855000D01*
X163075714Y-104807381D01*
X163313810Y-104807381D01*
X163409048Y-104855000D01*
X163456667Y-104902619D01*
X163504286Y-104997857D01*
X163504286Y-105093095D01*
X163456667Y-105235952D01*
X162885238Y-105807381D01*
X163504286Y-105807381D01*
X176196667Y-111212381D02*
X176196667Y-111926667D01*
X176149047Y-112069524D01*
X176053809Y-112164762D01*
X175910952Y-112212381D01*
X175815714Y-112212381D01*
X176577619Y-111212381D02*
X177244286Y-111212381D01*
X176815714Y-112212381D01*
X165553333Y-105807381D02*
X165553333Y-104807381D01*
X165791428Y-104807381D01*
X165934286Y-104855000D01*
X166029524Y-104950238D01*
X166077143Y-105045476D01*
X166124762Y-105235952D01*
X166124762Y-105378810D01*
X166077143Y-105569286D01*
X166029524Y-105664524D01*
X165934286Y-105759762D01*
X165791428Y-105807381D01*
X165553333Y-105807381D01*
X166505714Y-105759762D02*
X166648571Y-105807381D01*
X166886667Y-105807381D01*
X166981905Y-105759762D01*
X167029524Y-105712143D01*
X167077143Y-105616905D01*
X167077143Y-105521667D01*
X167029524Y-105426429D01*
X166981905Y-105378810D01*
X166886667Y-105331190D01*
X166696190Y-105283571D01*
X166600952Y-105235952D01*
X166553333Y-105188333D01*
X166505714Y-105093095D01*
X166505714Y-104997857D01*
X166553333Y-104902619D01*
X166600952Y-104855000D01*
X166696190Y-104807381D01*
X166934286Y-104807381D01*
X167077143Y-104855000D01*
X168029524Y-105807381D02*
X167458095Y-105807381D01*
X167743809Y-105807381D02*
X167743809Y-104807381D01*
X167648571Y-104950238D01*
X167553333Y-105045476D01*
X167458095Y-105093095D01*
X168600952Y-105235952D02*
X168505714Y-105188333D01*
X168458095Y-105140714D01*
X168410476Y-105045476D01*
X168410476Y-104997857D01*
X168458095Y-104902619D01*
X168505714Y-104855000D01*
X168600952Y-104807381D01*
X168791429Y-104807381D01*
X168886667Y-104855000D01*
X168934286Y-104902619D01*
X168981905Y-104997857D01*
X168981905Y-105045476D01*
X168934286Y-105140714D01*
X168886667Y-105188333D01*
X168791429Y-105235952D01*
X168600952Y-105235952D01*
X168505714Y-105283571D01*
X168458095Y-105331190D01*
X168410476Y-105426429D01*
X168410476Y-105616905D01*
X168458095Y-105712143D01*
X168505714Y-105759762D01*
X168600952Y-105807381D01*
X168791429Y-105807381D01*
X168886667Y-105759762D01*
X168934286Y-105712143D01*
X168981905Y-105616905D01*
X168981905Y-105426429D01*
X168934286Y-105331190D01*
X168886667Y-105283571D01*
X168791429Y-105235952D01*
X169743810Y-105283571D02*
X169886667Y-105331190D01*
X169934286Y-105378810D01*
X169981905Y-105474048D01*
X169981905Y-105616905D01*
X169934286Y-105712143D01*
X169886667Y-105759762D01*
X169791429Y-105807381D01*
X169410476Y-105807381D01*
X169410476Y-104807381D01*
X169743810Y-104807381D01*
X169839048Y-104855000D01*
X169886667Y-104902619D01*
X169934286Y-104997857D01*
X169934286Y-105093095D01*
X169886667Y-105188333D01*
X169839048Y-105235952D01*
X169743810Y-105283571D01*
X169410476Y-105283571D01*
X170362857Y-104902619D02*
X170410476Y-104855000D01*
X170505714Y-104807381D01*
X170743810Y-104807381D01*
X170839048Y-104855000D01*
X170886667Y-104902619D01*
X170934286Y-104997857D01*
X170934286Y-105093095D01*
X170886667Y-105235952D01*
X170315238Y-105807381D01*
X170934286Y-105807381D01*
X171553333Y-104807381D02*
X171648572Y-104807381D01*
X171743810Y-104855000D01*
X171791429Y-104902619D01*
X171839048Y-104997857D01*
X171886667Y-105188333D01*
X171886667Y-105426429D01*
X171839048Y-105616905D01*
X171791429Y-105712143D01*
X171743810Y-105759762D01*
X171648572Y-105807381D01*
X171553333Y-105807381D01*
X171458095Y-105759762D01*
X171410476Y-105712143D01*
X171362857Y-105616905D01*
X171315238Y-105426429D01*
X171315238Y-105188333D01*
X171362857Y-104997857D01*
X171410476Y-104902619D01*
X171458095Y-104855000D01*
X171553333Y-104807381D01*
X172315238Y-105426429D02*
X173077143Y-105426429D01*
X173505714Y-105521667D02*
X173981905Y-105521667D01*
X173410476Y-105807381D02*
X173743809Y-104807381D01*
X174077143Y-105807381D01*
X174315238Y-104807381D02*
X174934286Y-104807381D01*
X174600952Y-105188333D01*
X174743810Y-105188333D01*
X174839048Y-105235952D01*
X174886667Y-105283571D01*
X174934286Y-105378810D01*
X174934286Y-105616905D01*
X174886667Y-105712143D01*
X174839048Y-105759762D01*
X174743810Y-105807381D01*
X174458095Y-105807381D01*
X174362857Y-105759762D01*
X174315238Y-105712143D01*
X181276667Y-90892381D02*
X181276667Y-91606667D01*
X181229047Y-91749524D01*
X181133809Y-91844762D01*
X180990952Y-91892381D01*
X180895714Y-91892381D01*
X181895714Y-91320952D02*
X181800476Y-91273333D01*
X181752857Y-91225714D01*
X181705238Y-91130476D01*
X181705238Y-91082857D01*
X181752857Y-90987619D01*
X181800476Y-90940000D01*
X181895714Y-90892381D01*
X182086191Y-90892381D01*
X182181429Y-90940000D01*
X182229048Y-90987619D01*
X182276667Y-91082857D01*
X182276667Y-91130476D01*
X182229048Y-91225714D01*
X182181429Y-91273333D01*
X182086191Y-91320952D01*
X181895714Y-91320952D01*
X181800476Y-91368571D01*
X181752857Y-91416190D01*
X181705238Y-91511429D01*
X181705238Y-91701905D01*
X181752857Y-91797143D01*
X181800476Y-91844762D01*
X181895714Y-91892381D01*
X182086191Y-91892381D01*
X182181429Y-91844762D01*
X182229048Y-91797143D01*
X182276667Y-91701905D01*
X182276667Y-91511429D01*
X182229048Y-91416190D01*
X182181429Y-91368571D01*
X182086191Y-91320952D01*
X176934762Y-88685381D02*
X176982381Y-88542524D01*
X176982381Y-88304428D01*
X176934762Y-88209190D01*
X176887143Y-88161571D01*
X176791905Y-88113952D01*
X176696667Y-88113952D01*
X176601429Y-88161571D01*
X176553810Y-88209190D01*
X176506190Y-88304428D01*
X176458571Y-88494905D01*
X176410952Y-88590143D01*
X176363333Y-88637762D01*
X176268095Y-88685381D01*
X176172857Y-88685381D01*
X176077619Y-88637762D01*
X176030000Y-88590143D01*
X175982381Y-88494905D01*
X175982381Y-88256809D01*
X176030000Y-88113952D01*
X176934762Y-87304428D02*
X176982381Y-87399666D01*
X176982381Y-87590143D01*
X176934762Y-87685381D01*
X176839524Y-87733000D01*
X176458571Y-87733000D01*
X176363333Y-87685381D01*
X176315714Y-87590143D01*
X176315714Y-87399666D01*
X176363333Y-87304428D01*
X176458571Y-87256809D01*
X176553810Y-87256809D01*
X176649048Y-87733000D01*
X176982381Y-86828238D02*
X176315714Y-86828238D01*
X176506190Y-86828238D02*
X176410952Y-86780619D01*
X176363333Y-86733000D01*
X176315714Y-86637762D01*
X176315714Y-86542523D01*
X176982381Y-86209190D02*
X176315714Y-86209190D01*
X175982381Y-86209190D02*
X176030000Y-86256809D01*
X176077619Y-86209190D01*
X176030000Y-86161571D01*
X175982381Y-86209190D01*
X176077619Y-86209190D01*
X176982381Y-85304428D02*
X176458571Y-85304428D01*
X176363333Y-85352047D01*
X176315714Y-85447285D01*
X176315714Y-85637762D01*
X176363333Y-85733000D01*
X176934762Y-85304428D02*
X176982381Y-85399666D01*
X176982381Y-85637762D01*
X176934762Y-85733000D01*
X176839524Y-85780619D01*
X176744286Y-85780619D01*
X176649048Y-85733000D01*
X176601429Y-85637762D01*
X176601429Y-85399666D01*
X176553810Y-85304428D01*
X176982381Y-84685381D02*
X176934762Y-84780619D01*
X176839524Y-84828238D01*
X175982381Y-84828238D01*
X176982381Y-83780618D02*
X176982381Y-84352047D01*
X176982381Y-84066333D02*
X175982381Y-84066333D01*
X176125238Y-84161571D01*
X176220476Y-84256809D01*
X176268095Y-84352047D01*
X160956667Y-81367381D02*
X160956667Y-82081667D01*
X160909047Y-82224524D01*
X160813809Y-82319762D01*
X160670952Y-82367381D01*
X160575714Y-82367381D01*
X161480476Y-82367381D02*
X161670952Y-82367381D01*
X161766191Y-82319762D01*
X161813810Y-82272143D01*
X161909048Y-82129286D01*
X161956667Y-81938810D01*
X161956667Y-81557857D01*
X161909048Y-81462619D01*
X161861429Y-81415000D01*
X161766191Y-81367381D01*
X161575714Y-81367381D01*
X161480476Y-81415000D01*
X161432857Y-81462619D01*
X161385238Y-81557857D01*
X161385238Y-81795952D01*
X161432857Y-81891190D01*
X161480476Y-81938810D01*
X161575714Y-81986429D01*
X161766191Y-81986429D01*
X161861429Y-81938810D01*
X161909048Y-81891190D01*
X161956667Y-81795952D01*
X166457619Y-75334762D02*
X166600476Y-75382381D01*
X166838572Y-75382381D01*
X166933810Y-75334762D01*
X166981429Y-75287143D01*
X167029048Y-75191905D01*
X167029048Y-75096667D01*
X166981429Y-75001429D01*
X166933810Y-74953810D01*
X166838572Y-74906190D01*
X166648095Y-74858571D01*
X166552857Y-74810952D01*
X166505238Y-74763333D01*
X166457619Y-74668095D01*
X166457619Y-74572857D01*
X166505238Y-74477619D01*
X166552857Y-74430000D01*
X166648095Y-74382381D01*
X166886191Y-74382381D01*
X167029048Y-74430000D01*
X167838572Y-75334762D02*
X167743334Y-75382381D01*
X167552857Y-75382381D01*
X167457619Y-75334762D01*
X167410000Y-75239524D01*
X167410000Y-74858571D01*
X167457619Y-74763333D01*
X167552857Y-74715714D01*
X167743334Y-74715714D01*
X167838572Y-74763333D01*
X167886191Y-74858571D01*
X167886191Y-74953810D01*
X167410000Y-75049048D01*
X168314762Y-75382381D02*
X168314762Y-74715714D01*
X168314762Y-74906190D02*
X168362381Y-74810952D01*
X168410000Y-74763333D01*
X168505238Y-74715714D01*
X168600477Y-74715714D01*
X168933810Y-75382381D02*
X168933810Y-74715714D01*
X168933810Y-74382381D02*
X168886191Y-74430000D01*
X168933810Y-74477619D01*
X168981429Y-74430000D01*
X168933810Y-74382381D01*
X168933810Y-74477619D01*
X169838572Y-75382381D02*
X169838572Y-74858571D01*
X169790953Y-74763333D01*
X169695715Y-74715714D01*
X169505238Y-74715714D01*
X169410000Y-74763333D01*
X169838572Y-75334762D02*
X169743334Y-75382381D01*
X169505238Y-75382381D01*
X169410000Y-75334762D01*
X169362381Y-75239524D01*
X169362381Y-75144286D01*
X169410000Y-75049048D01*
X169505238Y-75001429D01*
X169743334Y-75001429D01*
X169838572Y-74953810D01*
X170457619Y-75382381D02*
X170362381Y-75334762D01*
X170314762Y-75239524D01*
X170314762Y-74382381D01*
X170790953Y-74477619D02*
X170838572Y-74430000D01*
X170933810Y-74382381D01*
X171171906Y-74382381D01*
X171267144Y-74430000D01*
X171314763Y-74477619D01*
X171362382Y-74572857D01*
X171362382Y-74668095D01*
X171314763Y-74810952D01*
X170743334Y-75382381D01*
X171362382Y-75382381D01*
X106195762Y-114236333D02*
X106243381Y-114093476D01*
X106243381Y-113855380D01*
X106195762Y-113760142D01*
X106148143Y-113712523D01*
X106052905Y-113664904D01*
X105957667Y-113664904D01*
X105862429Y-113712523D01*
X105814810Y-113760142D01*
X105767190Y-113855380D01*
X105719571Y-114045857D01*
X105671952Y-114141095D01*
X105624333Y-114188714D01*
X105529095Y-114236333D01*
X105433857Y-114236333D01*
X105338619Y-114188714D01*
X105291000Y-114141095D01*
X105243381Y-114045857D01*
X105243381Y-113807761D01*
X105291000Y-113664904D01*
X105243381Y-113331571D02*
X106243381Y-113093476D01*
X105529095Y-112902999D01*
X106243381Y-112712523D01*
X105243381Y-112474428D01*
X105576714Y-111664904D02*
X106243381Y-111664904D01*
X105195762Y-111903000D02*
X105910048Y-112141095D01*
X105910048Y-111522047D01*
X115260381Y-114522095D02*
X114784190Y-114855429D01*
X115260381Y-115093524D02*
X114260381Y-115093524D01*
X114260381Y-114712571D01*
X114308000Y-114617333D01*
X114355619Y-114569714D01*
X114450857Y-114522095D01*
X114593714Y-114522095D01*
X114688952Y-114569714D01*
X114736571Y-114617333D01*
X114784190Y-114712571D01*
X114784190Y-115093524D01*
X115212762Y-113712571D02*
X115260381Y-113807809D01*
X115260381Y-113998286D01*
X115212762Y-114093524D01*
X115117524Y-114141143D01*
X114736571Y-114141143D01*
X114641333Y-114093524D01*
X114593714Y-113998286D01*
X114593714Y-113807809D01*
X114641333Y-113712571D01*
X114736571Y-113664952D01*
X114831810Y-113664952D01*
X114927048Y-114141143D01*
X115212762Y-113284000D02*
X115260381Y-113188762D01*
X115260381Y-112998286D01*
X115212762Y-112903047D01*
X115117524Y-112855428D01*
X115069905Y-112855428D01*
X114974667Y-112903047D01*
X114927048Y-112998286D01*
X114927048Y-113141143D01*
X114879429Y-113236381D01*
X114784190Y-113284000D01*
X114736571Y-113284000D01*
X114641333Y-113236381D01*
X114593714Y-113141143D01*
X114593714Y-112998286D01*
X114641333Y-112903047D01*
X115212762Y-112045904D02*
X115260381Y-112141142D01*
X115260381Y-112331619D01*
X115212762Y-112426857D01*
X115117524Y-112474476D01*
X114736571Y-112474476D01*
X114641333Y-112426857D01*
X114593714Y-112331619D01*
X114593714Y-112141142D01*
X114641333Y-112045904D01*
X114736571Y-111998285D01*
X114831810Y-111998285D01*
X114927048Y-112474476D01*
X114593714Y-111712571D02*
X114593714Y-111331619D01*
X114260381Y-111569714D02*
X115117524Y-111569714D01*
X115212762Y-111522095D01*
X115260381Y-111426857D01*
X115260381Y-111331619D01*
X167941667Y-86911381D02*
X167941667Y-87625667D01*
X167894047Y-87768524D01*
X167798809Y-87863762D01*
X167655952Y-87911381D01*
X167560714Y-87911381D01*
X168846429Y-86911381D02*
X168655952Y-86911381D01*
X168560714Y-86959000D01*
X168513095Y-87006619D01*
X168417857Y-87149476D01*
X168370238Y-87339952D01*
X168370238Y-87720905D01*
X168417857Y-87816143D01*
X168465476Y-87863762D01*
X168560714Y-87911381D01*
X168751191Y-87911381D01*
X168846429Y-87863762D01*
X168894048Y-87816143D01*
X168941667Y-87720905D01*
X168941667Y-87482810D01*
X168894048Y-87387571D01*
X168846429Y-87339952D01*
X168751191Y-87292333D01*
X168560714Y-87292333D01*
X168465476Y-87339952D01*
X168417857Y-87387571D01*
X168370238Y-87482810D01*
X147883571Y-95868810D02*
X147883571Y-95535476D01*
X148407381Y-95392619D02*
X148407381Y-95868810D01*
X147407381Y-95868810D01*
X147407381Y-95392619D01*
X148359762Y-95011667D02*
X148407381Y-94868810D01*
X148407381Y-94630714D01*
X148359762Y-94535476D01*
X148312143Y-94487857D01*
X148216905Y-94440238D01*
X148121667Y-94440238D01*
X148026429Y-94487857D01*
X147978810Y-94535476D01*
X147931190Y-94630714D01*
X147883571Y-94821191D01*
X147835952Y-94916429D01*
X147788333Y-94964048D01*
X147693095Y-95011667D01*
X147597857Y-95011667D01*
X147502619Y-94964048D01*
X147455000Y-94916429D01*
X147407381Y-94821191D01*
X147407381Y-94583095D01*
X147455000Y-94440238D01*
X148407381Y-94011667D02*
X147407381Y-94011667D01*
X147407381Y-93630714D01*
X147455000Y-93535476D01*
X147502619Y-93487857D01*
X147597857Y-93440238D01*
X147740714Y-93440238D01*
X147835952Y-93487857D01*
X147883571Y-93535476D01*
X147931190Y-93630714D01*
X147931190Y-94011667D01*
X147407381Y-92059286D02*
X147407381Y-91964047D01*
X147455000Y-91868809D01*
X147502619Y-91821190D01*
X147597857Y-91773571D01*
X147788333Y-91725952D01*
X148026429Y-91725952D01*
X148216905Y-91773571D01*
X148312143Y-91821190D01*
X148359762Y-91868809D01*
X148407381Y-91964047D01*
X148407381Y-92059286D01*
X148359762Y-92154524D01*
X148312143Y-92202143D01*
X148216905Y-92249762D01*
X148026429Y-92297381D01*
X147788333Y-92297381D01*
X147597857Y-92249762D01*
X147502619Y-92202143D01*
X147455000Y-92154524D01*
X147407381Y-92059286D01*
X148407381Y-90773571D02*
X148407381Y-91345000D01*
X148407381Y-91059286D02*
X147407381Y-91059286D01*
X147550238Y-91154524D01*
X147645476Y-91249762D01*
X147693095Y-91345000D01*
X154138334Y-97607381D02*
X153805000Y-97131190D01*
X153566905Y-97607381D02*
X153566905Y-96607381D01*
X153947858Y-96607381D01*
X154043096Y-96655000D01*
X154090715Y-96702619D01*
X154138334Y-96797857D01*
X154138334Y-96940714D01*
X154090715Y-97035952D01*
X154043096Y-97083571D01*
X153947858Y-97131190D01*
X153566905Y-97131190D01*
X154614524Y-97607381D02*
X154805000Y-97607381D01*
X154900239Y-97559762D01*
X154947858Y-97512143D01*
X155043096Y-97369286D01*
X155090715Y-97178810D01*
X155090715Y-96797857D01*
X155043096Y-96702619D01*
X154995477Y-96655000D01*
X154900239Y-96607381D01*
X154709762Y-96607381D01*
X154614524Y-96655000D01*
X154566905Y-96702619D01*
X154519286Y-96797857D01*
X154519286Y-97035952D01*
X154566905Y-97131190D01*
X154614524Y-97178810D01*
X154709762Y-97226429D01*
X154900239Y-97226429D01*
X154995477Y-97178810D01*
X155043096Y-97131190D01*
X155090715Y-97035952D01*
X156956190Y-96607381D02*
X157051429Y-96607381D01*
X157146667Y-96655000D01*
X157194286Y-96702619D01*
X157241905Y-96797857D01*
X157289524Y-96988333D01*
X157289524Y-97226429D01*
X157241905Y-97416905D01*
X157194286Y-97512143D01*
X157146667Y-97559762D01*
X157051429Y-97607381D01*
X156956190Y-97607381D01*
X156860952Y-97559762D01*
X156813333Y-97512143D01*
X156765714Y-97416905D01*
X156718095Y-97226429D01*
X156718095Y-96988333D01*
X156765714Y-96797857D01*
X156813333Y-96702619D01*
X156860952Y-96655000D01*
X156956190Y-96607381D01*
X157908571Y-96607381D02*
X158003810Y-96607381D01*
X158099048Y-96655000D01*
X158146667Y-96702619D01*
X158194286Y-96797857D01*
X158241905Y-96988333D01*
X158241905Y-97226429D01*
X158194286Y-97416905D01*
X158146667Y-97512143D01*
X158099048Y-97559762D01*
X158003810Y-97607381D01*
X157908571Y-97607381D01*
X157813333Y-97559762D01*
X157765714Y-97512143D01*
X157718095Y-97416905D01*
X157670476Y-97226429D01*
X157670476Y-96988333D01*
X157718095Y-96797857D01*
X157765714Y-96702619D01*
X157813333Y-96655000D01*
X157908571Y-96607381D01*
X153662143Y-93162381D02*
X153328809Y-92686190D01*
X153090714Y-93162381D02*
X153090714Y-92162381D01*
X153471667Y-92162381D01*
X153566905Y-92210000D01*
X153614524Y-92257619D01*
X153662143Y-92352857D01*
X153662143Y-92495714D01*
X153614524Y-92590952D01*
X153566905Y-92638571D01*
X153471667Y-92686190D01*
X153090714Y-92686190D01*
X154614524Y-93162381D02*
X154043095Y-93162381D01*
X154328809Y-93162381D02*
X154328809Y-92162381D01*
X154233571Y-92305238D01*
X154138333Y-92400476D01*
X154043095Y-92448095D01*
X155233571Y-92162381D02*
X155328810Y-92162381D01*
X155424048Y-92210000D01*
X155471667Y-92257619D01*
X155519286Y-92352857D01*
X155566905Y-92543333D01*
X155566905Y-92781429D01*
X155519286Y-92971905D01*
X155471667Y-93067143D01*
X155424048Y-93114762D01*
X155328810Y-93162381D01*
X155233571Y-93162381D01*
X155138333Y-93114762D01*
X155090714Y-93067143D01*
X155043095Y-92971905D01*
X154995476Y-92781429D01*
X154995476Y-92543333D01*
X155043095Y-92352857D01*
X155090714Y-92257619D01*
X155138333Y-92210000D01*
X155233571Y-92162381D01*
X156956190Y-92162381D02*
X157051429Y-92162381D01*
X157146667Y-92210000D01*
X157194286Y-92257619D01*
X157241905Y-92352857D01*
X157289524Y-92543333D01*
X157289524Y-92781429D01*
X157241905Y-92971905D01*
X157194286Y-93067143D01*
X157146667Y-93114762D01*
X157051429Y-93162381D01*
X156956190Y-93162381D01*
X156860952Y-93114762D01*
X156813333Y-93067143D01*
X156765714Y-92971905D01*
X156718095Y-92781429D01*
X156718095Y-92543333D01*
X156765714Y-92352857D01*
X156813333Y-92257619D01*
X156860952Y-92210000D01*
X156956190Y-92162381D01*
X157908571Y-92162381D02*
X158003810Y-92162381D01*
X158099048Y-92210000D01*
X158146667Y-92257619D01*
X158194286Y-92352857D01*
X158241905Y-92543333D01*
X158241905Y-92781429D01*
X158194286Y-92971905D01*
X158146667Y-93067143D01*
X158099048Y-93114762D01*
X158003810Y-93162381D01*
X157908571Y-93162381D01*
X157813333Y-93114762D01*
X157765714Y-93067143D01*
X157718095Y-92971905D01*
X157670476Y-92781429D01*
X157670476Y-92543333D01*
X157718095Y-92352857D01*
X157765714Y-92257619D01*
X157813333Y-92210000D01*
X157908571Y-92162381D01*
X153662143Y-88717381D02*
X153328809Y-88241190D01*
X153090714Y-88717381D02*
X153090714Y-87717381D01*
X153471667Y-87717381D01*
X153566905Y-87765000D01*
X153614524Y-87812619D01*
X153662143Y-87907857D01*
X153662143Y-88050714D01*
X153614524Y-88145952D01*
X153566905Y-88193571D01*
X153471667Y-88241190D01*
X153090714Y-88241190D01*
X154614524Y-88717381D02*
X154043095Y-88717381D01*
X154328809Y-88717381D02*
X154328809Y-87717381D01*
X154233571Y-87860238D01*
X154138333Y-87955476D01*
X154043095Y-88003095D01*
X155566905Y-88717381D02*
X154995476Y-88717381D01*
X155281190Y-88717381D02*
X155281190Y-87717381D01*
X155185952Y-87860238D01*
X155090714Y-87955476D01*
X154995476Y-88003095D01*
X156956190Y-87717381D02*
X157051429Y-87717381D01*
X157146667Y-87765000D01*
X157194286Y-87812619D01*
X157241905Y-87907857D01*
X157289524Y-88098333D01*
X157289524Y-88336429D01*
X157241905Y-88526905D01*
X157194286Y-88622143D01*
X157146667Y-88669762D01*
X157051429Y-88717381D01*
X156956190Y-88717381D01*
X156860952Y-88669762D01*
X156813333Y-88622143D01*
X156765714Y-88526905D01*
X156718095Y-88336429D01*
X156718095Y-88098333D01*
X156765714Y-87907857D01*
X156813333Y-87812619D01*
X156860952Y-87765000D01*
X156956190Y-87717381D01*
X157908571Y-87717381D02*
X158003810Y-87717381D01*
X158099048Y-87765000D01*
X158146667Y-87812619D01*
X158194286Y-87907857D01*
X158241905Y-88098333D01*
X158241905Y-88336429D01*
X158194286Y-88526905D01*
X158146667Y-88622143D01*
X158099048Y-88669762D01*
X158003810Y-88717381D01*
X157908571Y-88717381D01*
X157813333Y-88669762D01*
X157765714Y-88622143D01*
X157718095Y-88526905D01*
X157670476Y-88336429D01*
X157670476Y-88098333D01*
X157718095Y-87907857D01*
X157765714Y-87812619D01*
X157813333Y-87765000D01*
X157908571Y-87717381D01*
X128262143Y-76652381D02*
X127928809Y-76176190D01*
X127690714Y-76652381D02*
X127690714Y-75652381D01*
X128071667Y-75652381D01*
X128166905Y-75700000D01*
X128214524Y-75747619D01*
X128262143Y-75842857D01*
X128262143Y-75985714D01*
X128214524Y-76080952D01*
X128166905Y-76128571D01*
X128071667Y-76176190D01*
X127690714Y-76176190D01*
X129214524Y-76652381D02*
X128643095Y-76652381D01*
X128928809Y-76652381D02*
X128928809Y-75652381D01*
X128833571Y-75795238D01*
X128738333Y-75890476D01*
X128643095Y-75938095D01*
X129595476Y-75747619D02*
X129643095Y-75700000D01*
X129738333Y-75652381D01*
X129976429Y-75652381D01*
X130071667Y-75700000D01*
X130119286Y-75747619D01*
X130166905Y-75842857D01*
X130166905Y-75938095D01*
X130119286Y-76080952D01*
X129547857Y-76652381D01*
X130166905Y-76652381D01*
X125610953Y-76652381D02*
X125039524Y-76652381D01*
X125325238Y-76652381D02*
X125325238Y-75652381D01*
X125230000Y-75795238D01*
X125134762Y-75890476D01*
X125039524Y-75938095D01*
X126039524Y-76652381D02*
X126039524Y-75652381D01*
X126134762Y-76271429D02*
X126420477Y-76652381D01*
X126420477Y-75985714D02*
X126039524Y-76366667D01*
X116292381Y-108124523D02*
X117006667Y-108124523D01*
X117149524Y-108172143D01*
X117244762Y-108267381D01*
X117292381Y-108410238D01*
X117292381Y-108505476D01*
X117292381Y-107124523D02*
X117292381Y-107695952D01*
X117292381Y-107410238D02*
X116292381Y-107410238D01*
X116435238Y-107505476D01*
X116530476Y-107600714D01*
X116578095Y-107695952D01*
X116292381Y-106505476D02*
X116292381Y-106410237D01*
X116340000Y-106314999D01*
X116387619Y-106267380D01*
X116482857Y-106219761D01*
X116673333Y-106172142D01*
X116911429Y-106172142D01*
X117101905Y-106219761D01*
X117197143Y-106267380D01*
X117244762Y-106314999D01*
X117292381Y-106410237D01*
X117292381Y-106505476D01*
X117244762Y-106600714D01*
X117197143Y-106648333D01*
X117101905Y-106695952D01*
X116911429Y-106743571D01*
X116673333Y-106743571D01*
X116482857Y-106695952D01*
X116387619Y-106648333D01*
X116340000Y-106600714D01*
X116292381Y-106505476D01*
X119630476Y-105807381D02*
X119630476Y-104807381D01*
X120011429Y-104807381D01*
X120106667Y-104855000D01*
X120154286Y-104902619D01*
X120201905Y-104997857D01*
X120201905Y-105140714D01*
X120154286Y-105235952D01*
X120106667Y-105283571D01*
X120011429Y-105331190D01*
X119630476Y-105331190D01*
X120820952Y-104807381D02*
X121011429Y-104807381D01*
X121106667Y-104855000D01*
X121201905Y-104950238D01*
X121249524Y-105140714D01*
X121249524Y-105474048D01*
X121201905Y-105664524D01*
X121106667Y-105759762D01*
X121011429Y-105807381D01*
X120820952Y-105807381D01*
X120725714Y-105759762D01*
X120630476Y-105664524D01*
X120582857Y-105474048D01*
X120582857Y-105140714D01*
X120630476Y-104950238D01*
X120725714Y-104855000D01*
X120820952Y-104807381D01*
X121582857Y-104807381D02*
X121820952Y-105807381D01*
X122011429Y-105093095D01*
X122201905Y-105807381D01*
X122440000Y-104807381D01*
X122820952Y-105283571D02*
X123154286Y-105283571D01*
X123297143Y-105807381D02*
X122820952Y-105807381D01*
X122820952Y-104807381D01*
X123297143Y-104807381D01*
X124297143Y-105807381D02*
X123963809Y-105331190D01*
X123725714Y-105807381D02*
X123725714Y-104807381D01*
X124106667Y-104807381D01*
X124201905Y-104855000D01*
X124249524Y-104902619D01*
X124297143Y-104997857D01*
X124297143Y-105140714D01*
X124249524Y-105235952D01*
X124201905Y-105283571D01*
X124106667Y-105331190D01*
X123725714Y-105331190D01*
X110315477Y-71842381D02*
X110315477Y-72556667D01*
X110267857Y-72699524D01*
X110172619Y-72794762D01*
X110029762Y-72842381D01*
X109934524Y-72842381D01*
X111315477Y-72842381D02*
X110744048Y-72842381D01*
X111029762Y-72842381D02*
X111029762Y-71842381D01*
X110934524Y-71985238D01*
X110839286Y-72080476D01*
X110744048Y-72128095D01*
X112267858Y-72842381D02*
X111696429Y-72842381D01*
X111982143Y-72842381D02*
X111982143Y-71842381D01*
X111886905Y-71985238D01*
X111791667Y-72080476D01*
X111696429Y-72128095D01*
X107077381Y-80926190D02*
X106077381Y-80926190D01*
X106172619Y-80497619D02*
X106125000Y-80450000D01*
X106077381Y-80354762D01*
X106077381Y-80116666D01*
X106125000Y-80021428D01*
X106172619Y-79973809D01*
X106267857Y-79926190D01*
X106363095Y-79926190D01*
X106505952Y-79973809D01*
X107077381Y-80545238D01*
X107077381Y-79926190D01*
X106982143Y-78926190D02*
X107029762Y-78973809D01*
X107077381Y-79116666D01*
X107077381Y-79211904D01*
X107029762Y-79354762D01*
X106934524Y-79450000D01*
X106839286Y-79497619D01*
X106648810Y-79545238D01*
X106505952Y-79545238D01*
X106315476Y-79497619D01*
X106220238Y-79450000D01*
X106125000Y-79354762D01*
X106077381Y-79211904D01*
X106077381Y-79116666D01*
X106125000Y-78973809D01*
X106172619Y-78926190D01*
M02*
